<?xml version="1.0" encoding="UTF-8" standalone="no"?>
<!-- Created with Inkscape (http://www.inkscape.org/) -->

<svg
   xmlns:dc="http://purl.org/dc/elements/1.1/"
   xmlns:cc="http://creativecommons.org/ns#"
   xmlns:rdf="http://www.w3.org/1999/02/22-rdf-syntax-ns#"
   xmlns:svg="http://www.w3.org/2000/svg"
   xmlns="http://www.w3.org/2000/svg"
   xmlns:xlink="http://www.w3.org/1999/xlink"
   xmlns:sodipodi="http://sodipodi.sourceforge.net/DTD/sodipodi-0.dtd"
   xmlns:inkscape="http://www.inkscape.org/namespaces/inkscape"
   width="210mm"
   height="297mm"
   viewBox="0 0 744.09448819 1052.3622047"
   id="svg3721"
   version="1.1"
   inkscape:version="0.91 r13725"
   sodipodi:docname="cotton.svg">
  <defs
     id="defs3723">
    <linearGradient
       inkscape:collect="always"
       id="linearGradient3794">
      <stop
         style="stop-color:#b3b3b3;stop-opacity:1;"
         offset="0"
         id="stop3796" />
      <stop
         style="stop-color:#b3b3b3;stop-opacity:0;"
         offset="1"
         id="stop3798" />
    </linearGradient>
    <linearGradient
       inkscape:collect="always"
       xlink:href="#linearGradient3794"
       id="linearGradient3800"
       x1="244.28574"
       y1="318.07648"
       x2="500"
       y2="616.64795"
       gradientUnits="userSpaceOnUse" />
  </defs>
  <sodipodi:namedview
     id="base"
     pagecolor="#ffffff"
     bordercolor="#666666"
     borderopacity="1.0"
     inkscape:pageopacity="0.0"
     inkscape:pageshadow="2"
     inkscape:zoom="0.7"
     inkscape:cx="375"
     inkscape:cy="520"
     inkscape:document-units="px"
     inkscape:current-layer="layer1"
     showgrid="false"
     inkscape:window-width="1024"
     inkscape:window-height="705"
     inkscape:window-x="-8"
     inkscape:window-y="-8"
     inkscape:window-maximized="1" />
  <metadata
     id="metadata3726">
    <rdf:RDF>
      <cc:Work
         rdf:about="">
        <dc:format>image/svg+xml</dc:format>
        <dc:type
           rdf:resource="http://purl.org/dc/dcmitype/StillImage" />
        <dc:title></dc:title>
      </cc:Work>
    </rdf:RDF>
  </metadata>
  <g
     inkscape:label="Layer 1"
     inkscape:groupmode="layer"
     id="layer1">
    <g
       id="g3782">
      <path
         sodipodi:nodetypes="ccc"
         inkscape:connector-curvature="0"
         id="path3729"
         d="m 278.57143,549.50506 c -108.28385,80.27824 -83.41622,-74.90655 -87.14286,-60 l 1.42857,0"
         style="fill:none;fill-rule:evenodd;stroke:#000000;stroke-width:1px;stroke-linecap:butt;stroke-linejoin:miter;stroke-opacity:1" />
      <path
         sodipodi:nodetypes="ccc"
         inkscape:connector-curvature="0"
         id="path3729-3"
         d="M 194.08519,491.67302 C 113.80695,383.38917 206.1346,378.2568 191.22805,374.53016 l 22.85714,-2.85714"
         style="fill:none;fill-rule:evenodd;stroke:#000000;stroke-width:1px;stroke-linecap:butt;stroke-linejoin:miter;stroke-opacity:1" />
      <path
         sodipodi:nodetypes="ccc"
         inkscape:connector-curvature="0"
         id="path3729-4"
         d="M 389.45702,582.70748 C 328.31603,672.98572 278.89794,532.08665 275.1713,546.9932 l 4.28572,0"
         style="fill:none;fill-rule:evenodd;stroke:#000000;stroke-width:1px;stroke-linecap:butt;stroke-linejoin:miter;stroke-opacity:1" />
      <path
         sodipodi:nodetypes="ccc"
         inkscape:connector-curvature="0"
         id="path3729-42"
         d="m 278.02845,334.13606 c -55.4267,-62.57891 -64.84479,22.2363 -68.57143,37.14285 l 1.42857,-1.42857"
         style="fill:none;fill-rule:evenodd;stroke:#000000;stroke-width:1px;stroke-linecap:butt;stroke-linejoin:miter;stroke-opacity:1" />
      <path
         sodipodi:nodetypes="ccc"
         inkscape:connector-curvature="0"
         id="path3729-9"
         d="m 393.74274,396.9932 c 4.57329,-145.43605 -116.27336,-77.76369 -120,-62.85714 l -1.42858,-2.85715"
         style="fill:none;fill-rule:evenodd;stroke:#000000;stroke-width:1px;stroke-linecap:butt;stroke-linejoin:miter;stroke-opacity:1" />
      <path
         sodipodi:nodetypes="ccc"
         inkscape:connector-curvature="0"
         id="path3729-49"
         d="m 492.31416,531.27891 c -15.4267,120.27823 -99.1305,36.52203 -102.85714,51.42858 l 1.42857,-1.42858"
         style="fill:none;fill-rule:evenodd;stroke:#000000;stroke-width:1px;stroke-linecap:butt;stroke-linejoin:miter;stroke-opacity:1" />
      <path
         sodipodi:nodetypes="ccc"
         inkscape:connector-curvature="0"
         id="path3729-5"
         d="m 472.31417,449.85035 c 8.85901,-102.57892 -77.70194,-66.33513 -81.42858,-51.42858 l 0,-5.71428"
         style="fill:none;fill-rule:evenodd;stroke:#000000;stroke-width:1px;stroke-linecap:butt;stroke-linejoin:miter;stroke-opacity:1" />
      <path
         sodipodi:nodetypes="ccc"
         inkscape:connector-curvature="0"
         id="path3729-421"
         d="m 472.31416,442.70749 c 77.43044,25.99251 19.44092,83.66488 15.71428,98.57143 l 4.28572,-1.42857"
         style="fill:none;fill-rule:evenodd;stroke:#000000;stroke-width:1px;stroke-linecap:butt;stroke-linejoin:miter;stroke-opacity:1" />
    </g>
    <path
       style="fill:url(#linearGradient3800);fill-opacity:1"
       d="m 339.47426,610.99178 c -7.49517,-1.78523 -17.36185,-8.38385 -26.41827,-17.66795 -8.23402,-8.44103 -32.62742,-43.20993 -32.62742,-46.50518 0,-0.87962 -1.28571,-1.5993 -2.85714,-1.5993 -1.57143,0 -2.85714,0.64285 -2.85714,1.42857 0,0.78571 0.80151,1.42857 1.78114,1.42857 3.0737,0 -11.96911,9.92454 -24.41059,16.10496 -12.16352,6.04235 -24.95317,8.38574 -33.73621,6.18134 -9.77613,-2.45366 -19.46257,-16.67264 -23.03729,-33.8171 -2.10496,-10.09544 -3.16125,-41.19026 -1.49104,-43.89271 0.52215,-0.84486 -3.26865,-7.97378 -8.424,-15.84202 -21.62518,-33.00503 -28.30368,-59.56597 -19.37696,-77.06378 3.45466,-6.7717 12.51386,-15.07269 20.89117,-19.14271 3.50636,-1.70352 6.3752,-3.56581 6.3752,-4.13842 0,-0.57261 3.69643,-1.49635 8.21429,-2.05276 7.8744,-0.96978 15.86614,-3.2003 12.14286,-3.38911 -2.61548,-0.13262 -2.20577,-5.21113 1.64507,-20.39159 7.66535,-30.21771 19.62301,-42.42526 35.55941,-36.30253 7.75946,2.98117 21.70291,14.13987 21.71485,17.37801 0.006,1.51743 1.31522,2.70582 3.3217,3.0142 2.65763,0.40847 3.14873,-0.007 2.4842,-2.10053 -1.70012,-5.3566 24.21897,-19.74865 43.15175,-23.96079 36.95646,-8.22203 62.39823,10.87742 68.67933,51.5584 2.68804,17.40975 3.60923,34.06308 1.82316,32.95923 -1.01207,-0.62549 -1.59376,0.33291 -1.59376,2.62591 0,4.15605 3.56042,3.77127 4.67886,-0.50565 0.96441,-3.68794 17.53327,-11.40919 28.52184,-13.29145 30.52357,-5.22847 47.68313,14.90431 48.39762,56.78339 0.12071,7.07142 0.49794,11.41071 0.83844,9.64285 0.34051,-1.76785 1.19891,-3.21428 1.90758,-3.21428 3.83953,0 17.75779,7.70487 23.53063,13.0261 16.84996,15.53174 16.82306,32.71345 -0.0969,61.8309 -10.48612,18.04558 -12.04319,21.41574 -10.37166,22.44881 1.14693,0.70883 1.12534,2.76979 -0.0791,7.55303 -9.00675,35.76897 -26.72718,50.56403 -53.35863,44.54989 -5.53797,-1.25065 -16.0055,-4.81022 -23.26117,-7.91019 -20.57973,-8.79263 -18.8497,-8.9767 -28.74363,3.05836 -15.09776,18.36505 -28.03536,24.76041 -42.91832,21.21553 l 1.2e-4,0 z"
       id="path3792"
       inkscape:connector-curvature="0" />
  </g>
</svg>
