<?xml version="1.0" encoding="UTF-8" standalone="no"?>
<!-- Created with Inkscape (http://www.inkscape.org/) -->

<svg
   xmlns:dc="http://purl.org/dc/elements/1.1/"
   xmlns:cc="http://creativecommons.org/ns#"
   xmlns:rdf="http://www.w3.org/1999/02/22-rdf-syntax-ns#"
   xmlns:svg="http://www.w3.org/2000/svg"
   xmlns="http://www.w3.org/2000/svg"
   xmlns:sodipodi="http://sodipodi.sourceforge.net/DTD/sodipodi-0.dtd"
   xmlns:inkscape="http://www.inkscape.org/namespaces/inkscape"
   width="744.09448819"
   height="1052.3622047"
   id="svg2"
   version="1.1"
   inkscape:version="0.48.4 r9939"
   sodipodi:docname="New document 1">
  <defs
     id="defs4" />
  <sodipodi:namedview
     id="base"
     pagecolor="#ffffff"
     bordercolor="#666666"
     borderopacity="1.0"
     inkscape:pageopacity="0.0"
     inkscape:pageshadow="2"
     inkscape:zoom="0.35"
     inkscape:cx="309.91903"
     inkscape:cy="745.70641"
     inkscape:document-units="px"
     inkscape:current-layer="layer1"
     showgrid="false"
     inkscape:window-width="1366"
     inkscape:window-height="716"
     inkscape:window-x="0"
     inkscape:window-y="0"
     inkscape:window-maximized="1" />
  <metadata
     id="metadata7">
    <rdf:RDF>
      <cc:Work
         rdf:about="">
        <dc:format>image/svg+xml</dc:format>
        <dc:type
           rdf:resource="http://purl.org/dc/dcmitype/StillImage" />
        <dc:title></dc:title>
      </cc:Work>
    </rdf:RDF>
  </metadata>
  <g
     inkscape:label="Layer 1"
     inkscape:groupmode="layer"
     id="layer1">
    <path
       style="fill:none;stroke:#000000;stroke-width:0.80306345px;stroke-linecap:butt;stroke-linejoin:miter;stroke-opacity:1"
       d="m 335.56889,301.00027 c 4.36033,514.34519 3.16651,516.02364 3.16651,516.02364"
       id="path2985"
       inkscape:connector-curvature="0"
       sodipodi:nodetypes="cc" />
    <path
       style="fill:none;stroke:#000000;stroke-width:0.80306345px;stroke-linecap:butt;stroke-linejoin:miter;stroke-opacity:1"
       d="M 490.55575,857.28871 z"
       id="path2987"
       inkscape:connector-curvature="0" />
    <path
       style="fill:none;stroke:#000000;stroke-width:0.80306345px;stroke-linecap:butt;stroke-linejoin:miter;stroke-opacity:1"
       d="m 358.62935,301.09403 c 5.81377,519.77841 6.26798,515.92988 6.26798,515.92988 l -1.45345,0"
       id="path2989"
       inkscape:connector-curvature="0"
       sodipodi:nodetypes="ccc" />
    <path
       style="fill:none;stroke:#000000;stroke-width:1px;stroke-linecap:butt;stroke-linejoin:miter;stroke-opacity:1"
       d="M 344.09585,1073.7724 z"
       id="path2991"
       inkscape:connector-curvature="0" />
    <path
       sodipodi:type="arc"
       style="fill:#ececec;fill-opacity:1;stroke:#000000;stroke-width:0.1;stroke-miterlimit:4;stroke-opacity:1;stroke-dasharray:none"
       id="path3005"
       sodipodi:cx="109.09647"
       sodipodi:cy="865.98901"
       sodipodi:rx="34.345188"
       sodipodi:ry="61.114227"
       d="m 143.44166,865.98901 a 34.345188,61.114227 0 0 1 -0.005,1.06659"
       sodipodi:start="0"
       sodipodi:end="0.017453293"
       sodipodi:open="true"
       transform="matrix(0.71941634,0,0,0.89643617,154.14845,94.599462)" />
    <path
       sodipodi:type="arc"
       style="fill:#ececec;fill-opacity:1;stroke:#000000;stroke-width:0.1;stroke-miterlimit:4;stroke-opacity:1;stroke-dasharray:none"
       id="path3007"
       sodipodi:cx="111.62186"
       sodipodi:cy="799.31897"
       sodipodi:rx="2.5253813"
       sodipodi:ry="2.5253813"
       d="m 114.14724,799.31897 a 2.5253813,2.5253813 0 0 1 -0.36823,1.3131 l -2.15715,-1.3131 z"
       sodipodi:start="0"
       sodipodi:end="0.54680585"
       transform="matrix(0.71941634,0,0,0.89643617,154.14845,94.599462)" />
    <path
       style="fill:#00ccff;fill-opacity:1;stroke:#000000;stroke-width:0.96367621;stroke-miterlimit:4;stroke-opacity:1;stroke-dasharray:none"
       d="m 339.46508,815.98092 c -0.0407,-0.21512 -0.91267,-116.19048 -1.93759,-257.72304 l -1.86351,-257.33199 2.39333,-4.86392 c 1.31635,-2.67516 4.02791,-6.04477 6.02572,-7.48807 3.28591,-2.37381 3.92076,-2.39708 6.65595,-0.24374 1.663,1.30922 4.10045,4.67883 5.41657,7.48806 2.08447,4.44924 2.4279,7.22516 2.664,21.53312 0.38891,23.5676 4.35909,463.80682 4.35569,482.98631 l -0.003,16.03433 -11.81663,0 c -6.49918,0 -11.84998,-0.17595 -11.89073,-0.39106 l 0,0 z"
       id="path3041"
       inkscape:connector-curvature="0" />
    <g
       id="g3890"
       style="fill:#f2f2f2"
       transform="matrix(0.71941634,0,0,0.89643617,154.14845,94.599462)">
      <path
         inkscape:connector-curvature="0"
         id="path3039"
         d="m 270.84568,812.84928 c -4.20928,-0.74088 -8.61981,-3.05567 -12.35431,-6.48395 l -1.33838,-1.22863 -0.39469,-39.08759 c -0.21708,-21.49818 -0.45856,-45.21488 -0.53662,-52.70378 l -0.14194,-13.61618 17.34941,1.1e-4 17.3494,1.1e-4 0.0991,1.65179 c 0.0545,0.90848 0.38222,23.50893 0.72823,50.22321 0.34601,26.71429 0.66815,49.71652 0.71586,51.11608 l 0.0867,2.54464 -0.79832,0 c -0.7896,0 -0.79831,0.007 -0.79831,0.61012 0,0.33556 0.08,0.6369 0.17789,0.66964 0.26508,0.0887 -2.58556,2.05627 -4.67899,3.22954 -2.22456,1.24676 -4.03512,1.96187 -6.7489,2.66557 -2.54446,0.65979 -6.29303,0.83583 -8.71621,0.40932 l 0,0 z"
         style="fill:#f2f2f2;fill-opacity:1;stroke:#000000;stroke-width:0.01785714;stroke-miterlimit:4;stroke-opacity:1;stroke-dasharray:none" />
      <path
         transform="translate(8.0812204,-48.487322)"
         d="m 346.48231,864.47382 c 0,68.62069 -36.18086,124.24875 -80.81221,124.24875 -44.63134,0 -80.8122,-55.62806 -80.8122,-124.24875 0,-68.6207 36.18086,-124.24876 80.8122,-124.24876 44.63135,0 80.81221,55.62806 80.81221,124.24876 z"
         sodipodi:ry="124.24876"
         sodipodi:rx="80.812202"
         sodipodi:cy="864.47382"
         sodipodi:cx="265.6701"
         id="path3854"
         style="fill:#f2f2f2;fill-opacity:1;stroke:#000000;stroke-width:1.20000005;stroke-miterlimit:4;stroke-opacity:1;stroke-dasharray:none"
         sodipodi:type="arc" />
    </g>
    <path
       style="fill:#00ffff;fill-opacity:1;stroke:#000000;stroke-width:0.01434042;stroke-miterlimit:4;stroke-opacity:1;stroke-dasharray:none"
       d="m 346.09238,206.59606 c -3.02822,-0.66415 -6.20122,-2.73921 -8.8879,-5.81244 l -0.96285,-1.1014 -0.28393,-35.03951 c -0.15618,-19.27175 -0.3299,-40.53226 -0.38606,-47.24557 l -0.10205,-12.20604 12.48144,10e-5 12.48145,9e-5 0.0712,1.48073 c 0.0391,0.81438 0.27498,21.07425 0.5239,45.0219 0.24893,23.94766 0.48067,44.56768 0.51501,45.82229 l 0.0624,2.28111 -0.57434,0 c -0.56805,0 -0.57432,0.007 -0.57432,0.54693 0,0.30081 0.0576,0.57094 0.12793,0.60029 0.19071,0.0795 -1.8601,1.84331 -3.36614,2.89508 -1.60039,1.11765 -2.90294,1.75868 -4.85527,2.38951 -1.83054,0.59145 -4.52732,0.74927 -6.27059,0.36693 l 0,0 z"
       id="path3039-6"
       inkscape:connector-curvature="0" />
    <path
       sodipodi:type="arc"
       style="fill:#f9f9f9;fill-opacity:1;stroke:#000000;stroke-width:1.20000005;stroke-miterlimit:4;stroke-opacity:1;stroke-dasharray:none"
       id="path3854-8"
       sodipodi:cx="265.6701"
       sodipodi:cy="864.47382"
       sodipodi:rx="80.812202"
       sodipodi:ry="124.24876"
       d="m 346.48231,864.47382 a 80.812202,124.24876 0 1 1 -161.62441,0 80.812202,124.24876 0 1 1 161.62441,0 z"
       transform="matrix(0.71941634,0,0,0.89643617,157.05534,-565.53722)" />
  </g>
</svg>
