<?xml version="1.0" encoding="UTF-8" standalone="no"?>
<!-- Created with Inkscape (http://www.inkscape.org/) -->

<svg
   xmlns:dc="http://purl.org/dc/elements/1.1/"
   xmlns:cc="http://creativecommons.org/ns#"
   xmlns:rdf="http://www.w3.org/1999/02/22-rdf-syntax-ns#"
   xmlns:svg="http://www.w3.org/2000/svg"
   xmlns="http://www.w3.org/2000/svg"
   xmlns:sodipodi="http://sodipodi.sourceforge.net/DTD/sodipodi-0.dtd"
   xmlns:inkscape="http://www.inkscape.org/namespaces/inkscape"
   width="744.09448819"
   height="1052.3622047"
   id="svg2"
   version="1.1"
   inkscape:version="0.48.4 r9939"
   sodipodi:docname="needle.svg">
  <defs
     id="defs4" />
  <sodipodi:namedview
     id="base"
     pagecolor="#ffffff"
     bordercolor="#666666"
     borderopacity="1.0"
     inkscape:pageopacity="0.0"
     inkscape:pageshadow="2"
     inkscape:zoom="0.90509668"
     inkscape:cx="365.33333"
     inkscape:cy="534.28571"
     inkscape:document-units="px"
     inkscape:current-layer="layer1"
     showgrid="false"
     inkscape:window-width="1366"
     inkscape:window-height="716"
     inkscape:window-x="0"
     inkscape:window-y="0"
     inkscape:window-maximized="1" />
  <metadata
     id="metadata7">
    <rdf:RDF>
      <cc:Work
         rdf:about="">
        <dc:format>image/svg+xml</dc:format>
        <dc:type
           rdf:resource="http://purl.org/dc/dcmitype/StillImage" />
        <dc:title></dc:title>
      </cc:Work>
    </rdf:RDF>
  </metadata>
  <g
     inkscape:label="Layer 1"
     inkscape:groupmode="layer"
     id="layer1">
    <path
       sodipodi:type="arc"
       style="fill:#ffffff;fill-opacity:1;stroke:#000000;stroke-width:0.1;stroke-miterlimit:4;stroke-opacity:1;stroke-dasharray:none"
       id="path3007"
       sodipodi:cx="170"
       sodipodi:cy="498.79074"
       sodipodi:rx="20"
       sodipodi:ry="13.571428"
       d="m 190,498.79074 a 20,13.571428 0 1 1 -40,0 20,13.571428 0 1 1 40,0 z"
       transform="matrix(0.99984133,0,0,1.1312241,10.026973,-69.381946)" />
    <path
       style="fill:none;stroke:#000000;stroke-width:1px;stroke-linecap:butt;stroke-linejoin:miter;stroke-opacity:1"
       d="m -155.71429,499.50504 -0.71428,2.85714 z"
       id="path3013"
       inkscape:connector-curvature="0" />
    <path
       sodipodi:type="arc"
       style="fill:#ffffff;fill-opacity:1;stroke:#000000;stroke-width:0.1;stroke-miterlimit:4;stroke-opacity:1;stroke-dasharray:none"
       id="path3007-2"
       sodipodi:cx="170"
       sodipodi:cy="498.79074"
       sodipodi:rx="20"
       sodipodi:ry="13.571428"
       d="m 190,498.79074 a 20,13.571428 0 1 1 -40,0 20,13.571428 0 1 1 40,0 z"
       transform="matrix(0.99984133,0,0,1.1312241,84.312688,-69.739066)" />
    <path
       sodipodi:type="arc"
       style="fill:#ffffff;fill-opacity:1;stroke:#000000;stroke-width:0.1;stroke-miterlimit:4;stroke-opacity:1;stroke-dasharray:none"
       id="path3007-1"
       sodipodi:cx="170"
       sodipodi:cy="498.79074"
       sodipodi:rx="20"
       sodipodi:ry="13.571428"
       d="m 190,498.79074 a 20,13.571428 0 1 1 -40,0 20,13.571428 0 1 1 40,0 z"
       transform="matrix(0.99984133,0,0,1.1312241,160.02697,-71.167637)" />
    <path
       sodipodi:type="arc"
       style="fill:#ffffff;fill-opacity:1;stroke:#000000;stroke-width:0.1;stroke-miterlimit:4;stroke-opacity:1;stroke-dasharray:none"
       id="path3007-7"
       sodipodi:cx="170"
       sodipodi:cy="498.79074"
       sodipodi:rx="20"
       sodipodi:ry="13.571428"
       d="m 190,498.79074 a 20,13.571428 0 1 1 -40,0 20,13.571428 0 1 1 40,0 z"
       transform="matrix(0.99984133,0,0,1.1312241,226.45554,-71.881925)" />
    <path
       sodipodi:type="arc"
       style="fill:#ffffff;fill-opacity:1;stroke:#000000;stroke-width:0.1;stroke-miterlimit:4;stroke-opacity:1;stroke-dasharray:none"
       id="path3007-0"
       sodipodi:cx="170"
       sodipodi:cy="498.79074"
       sodipodi:rx="20"
       sodipodi:ry="13.571428"
       d="m 190,498.79074 a 20,13.571428 0 1 1 -40,0 20,13.571428 0 1 1 40,0 z"
       transform="matrix(0.99984133,0,0,1.1312241,299.31269,-71.881922)" />
    <path
       sodipodi:type="arc"
       style="fill:#ffffff;fill-opacity:1;stroke:#000000;stroke-width:0.1;stroke-miterlimit:4;stroke-opacity:1;stroke-dasharray:none"
       id="path3007-16"
       sodipodi:cx="170"
       sodipodi:cy="498.79074"
       sodipodi:rx="20"
       sodipodi:ry="13.571428"
       d="m 190,498.79074 a 20,13.571428 0 1 1 -40,0 20,13.571428 0 1 1 40,0 z"
       transform="matrix(0.99984133,0,0,1.1312241,375.74126,-72.596207)" />
    <path
       style="fill:none;stroke:#000000;stroke-width:1px;stroke-linecap:butt;stroke-linejoin:miter;stroke-opacity:1"
       d="m 50.446852,492.64521 61.026728,-11.7322 1.11385,2.66732 c 0.17464,-27.91632 8.5612,-39.1463 14.36964,-41.66625 l 406.61251,-0.8198 c 28.29063,1.29958 36.64368,-0.23217 36.64368,-0.23217 22.2413,3.95133 25.322,17.45618 26.41752,55.86553"
       id="path3097-0"
       inkscape:connector-curvature="0"
       sodipodi:nodetypes="ccccccc" />
    <path
       style="fill:none;stroke:#000000;stroke-width:1px;stroke-linecap:butt;stroke-linejoin:miter;stroke-opacity:1"
       d="m 49.525505,492.65749 61.026725,11.7322 1.11385,-2.66732 c 0.17464,27.91632 8.5612,39.1463 14.36964,41.66625 l 406.61252,0.8198 c 28.29063,-1.29958 36.64368,0.23217 36.64368,0.23217 22.2413,-3.95133 25.322,-17.45618 26.41752,-55.86553"
       id="path3097-0-5"
       inkscape:connector-curvature="0"
       sodipodi:nodetypes="ccccccc" />
    <path
       style="fill:#f9f9f9;fill-opacity:1;stroke:#000000;stroke-width:0.11048543000000000;stroke-miterlimit:4;stroke-opacity:1;stroke-dasharray:none"
       d="m 327.2732,542.87747 -201.02614,-0.27919 -3.01552,-2.88905 c -5.49119,-5.2609 -8.04457,-13.55459 -10.44042,-33.91175 -0.51366,-4.3645 -0.89976,-5.09113 -2.1527,-4.05129 -1.16844,0.96972 -7.17886,0.19618 -25.609612,-3.29597 -13.245565,-2.50969 -24.828623,-4.86282 -25.740128,-5.22917 -0.911505,-0.36636 10.275146,-3.0218 24.859223,-5.90099 14.584077,-2.87918 26.682237,-4.79348 26.884787,-4.25399 1.08473,2.88905 2.25485,0.0781 2.9261,-7.02931 1.45911,-15.44952 6.36857,-28.95347 11.53063,-31.71612 1.324,-0.70858 80.64619,-1.35836 224.01175,-1.83503 l 221.9619,-0.73798 5.48707,2.42638 c 3.01789,1.3345 6.8529,3.73432 8.52224,5.33293 7.27662,6.96828 10.31861,24.51542 8.61316,49.68326 -1.92536,28.41304 -6.18889,38.3196 -18.1974,42.28276 -5.09964,1.68303 -13.57927,1.73094 -248.61494,1.40451 l 0,0 z M 190.21392,508.47524 c 6.04205,-2.78859 9.47192,-6.82678 10.09889,-11.89007 1.96198,-15.84428 -23.15526,-23.83898 -36.12716,-11.49911 -3.78645,3.60196 -4.35468,4.77859 -4.35109,9.00973 0.005,6.41574 3.00885,11.12122 8.98725,14.08044 6.07634,3.00771 15.24546,3.13587 21.39211,0.29901 z m 71.64364,0.89646 c 2.33615,-0.64868 6.06503,-2.84504 8.28641,-4.88078 3.7359,-3.42369 4.03888,-4.16995 4.03888,-9.94785 0,-5.7779 -0.30298,-6.52416 -4.03888,-9.94785 -4.1589,-3.81134 -10.04008,-6.06021 -15.8485,-6.06021 -5.80842,0 -11.6896,2.24887 -15.84849,6.06021 -3.72012,3.40924 -4.03889,4.18598 -4.03889,9.84171 0,5.384 0.41888,6.55922 3.40065,9.54098 5.85638,5.85639 14.99853,7.90683 24.04882,5.39379 l 0,0 z m 73.62258,-1.11642 c 17.60949,-3.77656 20.28582,-22.4004 4.18574,-29.12744 -5.24051,-2.18962 -14.13525,-2.18962 -19.37577,0 -15.50596,6.47881 -13.80057,24.31026 2.75076,28.76164 6.69083,1.79946 5.86727,1.77524 12.43927,0.3658 z m 72.3856,-2.79421 c 6.04143,-3.13523 8.84332,-7.29456 8.84332,-13.12771 0,-9.38214 -8.07544,-15.48433 -20.4398,-15.44528 -12.13018,0.0383 -19.88738,6.06285 -19.88738,15.44528 0,6.15501 2.59856,9.93649 9.08442,13.21984 6.97064,3.52875 15.48968,3.49371 22.39944,-0.0921 l 0,0 z m 72.67042,0.20074 c 8.67448,-4.16526 11.75251,-14.01245 6.62741,-21.20243 -3.6535,-5.12548 -9.50204,-7.59487 -17.97393,-7.58901 -15.35868,0.0106 -24.26543,10.97349 -18.2952,22.51864 4.19523,8.11269 19.19802,11.28759 29.64172,6.2728 z m 75.70478,-0.5151 c 8.93356,-4.58139 12.08896,-11.76244 8.49577,-19.33455 -5.66853,-11.94554 -28.16393,-13.28694 -36.88534,-2.19946 -3.00842,3.82458 -3.043,10.82623 -0.0774,15.69024 4.4919,7.36761 19.49143,10.44674 28.46705,5.84377 l -3e-5,0 z"
       id="path3146"
       inkscape:connector-curvature="0" />
    <path
       style="fill:#f9f9f9;fill-opacity:1;stroke:#000000;stroke-width:0.11048543;stroke-miterlimit:4;stroke-opacity:1;stroke-dasharray:none"
       d="m 169.92667,507.07138 c -9.1655,-4.53679 -11.61728,-13.32769 -5.6216,-20.15639 10.57551,-12.04484 34.61323,-6.22625 34.67908,8.39444 0.0487,10.80136 -17.03099,17.71489 -29.05748,11.76195 z"
       id="path3148"
       inkscape:connector-curvature="0" />
    <path
       style="fill:#f9f9f9;fill-opacity:1;stroke:#000000;stroke-width:0.11048543;stroke-miterlimit:4;stroke-opacity:1;stroke-dasharray:none"
       d="m 246.64757,507.81765 c -2.38334,-0.84917 -5.86363,-3.07424 -7.73398,-4.94459 -2.80276,-2.80276 -3.40064,-4.28596 -3.40064,-8.43613 0,-4.38409 0.52248,-5.51432 4.03888,-8.73685 8.57467,-7.8581 20.91261,-7.8581 29.48729,0 3.53977,3.24395 4.03888,4.33674 4.03888,8.84299 0,4.50625 -0.49911,5.59904 -4.03888,8.84299 -6.32208,5.79376 -14.19517,7.35195 -22.39155,4.43159 l 0,0 z"
       id="path3150"
       inkscape:connector-curvature="0" />
    <path
       style="fill:#f9f9f9;fill-opacity:1;stroke:#000000;stroke-width:0.11048543;stroke-miterlimit:4;stroke-opacity:1;stroke-dasharray:none"
       d="m 320.53196,505.69481 c -5.26989,-2.29542 -9.33649,-7.84654 -9.33649,-12.74479 0,-14.45376 25.38041,-19.67592 35.16597,-7.23559 5.09276,6.4744 1.53958,16.38359 -7.18132,20.02742 -4.54646,1.89963 -14.23506,1.87519 -18.64816,-0.047 z"
       id="path3152"
       inkscape:connector-curvature="0" />
    <path
       style="fill:#f9f9f9;fill-opacity:1;stroke:#000000;stroke-width:0.11048543;stroke-miterlimit:4;stroke-opacity:1;stroke-dasharray:none"
       d="m 389.0877,505.84938 c -10.63747,-4.37308 -14.18401,-11.39284 -9.92092,-19.63674 3.20381,-6.19549 15.42502,-10.21457 23.34206,-7.6763 14.37563,4.60896 17.5044,17.30643 6.12073,24.83978 -5.1342,3.39765 -14.43114,4.5743 -19.54187,2.47326 z"
       id="path3154"
       inkscape:connector-curvature="0" />
    <path
       style="fill:#f9f9f9;fill-opacity:1;stroke:#000000;stroke-width:0.11048543;stroke-miterlimit:4;stroke-opacity:1;stroke-dasharray:none"
       d="m 462.00809,505.84318 c -8.18962,-3.35144 -11.6053,-7.39575 -11.59684,-13.73116 0.0194,-14.54457 26.16256,-19.49039 35.67527,-6.74914 2.72314,3.64734 2.72314,10.29362 0,13.94096 -4.58924,6.14679 -16.88054,9.48493 -24.07843,6.53934 z"
       id="path3156"
       inkscape:connector-curvature="0" />
    <path
       style="fill:#ececec;fill-opacity:1;stroke:#000000;stroke-width:0.11048543000000000;stroke-miterlimit:4;stroke-opacity:1;stroke-dasharray:none"
       d="m 535.77994,503.97431 c -8.63901,-3.92166 -11.70764,-13.38925 -6.38858,-19.7106 3.93693,-4.67878 9.2613,-6.84878 16.75264,-6.82771 8.09467,0.0228 14.22578,3.24977 17.23069,9.06908 2.71216,5.25236 1.86914,9.3931 -2.8094,13.79926 -6.44938,6.07392 -16.28234,7.52988 -24.78535,3.66997 l 0,0 z"
       id="path3158"
       inkscape:connector-curvature="0" />
    <path
       style="fill:#ececec;fill-opacity:1;stroke:#000000;stroke-width:0.11048543;stroke-miterlimit:4;stroke-opacity:1;stroke-dasharray:none"
       d="m 459.09343,503.23725 c -8.72459,-4.85747 -10.36235,-13.20516 -3.73278,-19.026 5.58718,-4.90561 11.32081,-6.36253 18.5264,-4.70757 10.35739,2.37885 15.14033,8.753 12.55952,16.73787 -0.97962,3.0309 -2.48289,4.45708 -7.23514,6.86414 -7.63835,3.8689 -13.33837,3.90618 -20.118,0.13156 z"
       id="path3179"
       inkscape:connector-curvature="0" />
    <path
       style="fill:#ececec;fill-opacity:1;stroke:#000000;stroke-width:0.11048543;stroke-miterlimit:4;stroke-opacity:1;stroke-dasharray:none"
       d="m 387.98285,504.31126 c -8.59037,-4.52075 -11.3433,-10.35181 -8.17262,-17.31069 1.65601,-3.63455 8.58639,-7.32987 15.22031,-8.11556 10.4178,-1.23383 21.22456,7.11178 19.48208,15.04521 -2.05726,9.36665 -17.19883,15.29151 -26.52977,10.38104 z"
       id="path3181"
       inkscape:connector-curvature="0" />
    <path
       style="fill:#ececec;fill-opacity:1;stroke:#000000;stroke-width:0.11048543;stroke-miterlimit:4;stroke-opacity:1;stroke-dasharray:none"
       d="m 320.47211,504.56479 c -7.80931,-3.39946 -10.61812,-13.13611 -5.41048,-18.75525 7.75397,-8.36667 24.79069,-7.99232 30.86374,0.67817 4.15548,5.93277 0.80398,14.99501 -6.70613,18.13294 -4.60392,1.92364 -14.26593,1.89485 -18.74713,-0.0559 l 0,-1e-5 z"
       id="path3183"
       inkscape:connector-curvature="0" />
    <path
       style="fill:#ececec;fill-opacity:1;stroke:#000000;stroke-width:0.11048543;stroke-miterlimit:4;stroke-opacity:1;stroke-dasharray:none"
       d="m 245.05676,505.96653 c -11.8917,-5.88623 -11.79341,-17.12176 0.20058,-22.92795 6.05168,-2.92957 12.02458,-2.92957 18.07626,0 12.33382,5.97069 12.33382,17.03829 0,23.00898 -6.10104,2.95347 -12.20099,2.92642 -18.27684,-0.081 l 0,10e-6 z"
       id="path3185"
       inkscape:connector-curvature="0" />
    <path
       style="fill:#ececec;fill-opacity:1;stroke:#000000;stroke-width:0.11048543;stroke-miterlimit:4;stroke-opacity:1;stroke-dasharray:none"
       d="m 170.00822,506.00688 c -8.65105,-4.28219 -10.52428,-12.70095 -4.22718,-18.99805 7.86288,-7.86288 21.48259,-7.59291 29.11151,0.57704 10.97129,11.74934 -8.79777,26.38369 -24.88433,18.42101 z"
       id="path3187"
       inkscape:connector-curvature="0" />
  </g>
</svg>
