<?xml version="1.0" encoding="UTF-8" standalone="no"?>
<!-- Created with Inkscape (http://www.inkscape.org/) -->

<svg
   xmlns:dc="http://purl.org/dc/elements/1.1/"
   xmlns:cc="http://creativecommons.org/ns#"
   xmlns:rdf="http://www.w3.org/1999/02/22-rdf-syntax-ns#"
   xmlns:svg="http://www.w3.org/2000/svg"
   xmlns="http://www.w3.org/2000/svg"
   xmlns:sodipodi="http://sodipodi.sourceforge.net/DTD/sodipodi-0.dtd"
   xmlns:inkscape="http://www.inkscape.org/namespaces/inkscape"
   width="400mm"
   height="232mm"
   viewBox="0 0 1417.3222 822.04719"
   id="svg2"
   version="1.1"
   inkscape:version="0.91 r13725"
   sodipodi:docname="scsrimg.svg">
  <defs
     id="defs4" />
  <sodipodi:namedview
     id="base"
     pagecolor="#ffffff"
     bordercolor="#666666"
     borderopacity="1.0"
     inkscape:pageopacity="0.0"
     inkscape:pageshadow="2"
     inkscape:zoom="0.7"
     inkscape:cx="466.34111"
     inkscape:cy="479.5939"
     inkscape:document-units="px"
     inkscape:current-layer="layer1"
     showgrid="false"
     inkscape:window-width="1366"
     inkscape:window-height="706"
     inkscape:window-x="-8"
     inkscape:window-y="-8"
     inkscape:window-maximized="1" />
  <metadata
     id="metadata7">
    <rdf:RDF>
      <cc:Work
         rdf:about="">
        <dc:format>image/svg+xml</dc:format>
        <dc:type
           rdf:resource="http://purl.org/dc/dcmitype/StillImage" />
        <dc:title></dc:title>
      </cc:Work>
    </rdf:RDF>
  </metadata>
  <g
     inkscape:label="Layer 1"
     inkscape:groupmode="layer"
     id="layer1"
     transform="translate(0,-230.31507)">
    <path
       style="fill:none;fill-rule:evenodd;stroke:#000000;stroke-width:1px;stroke-linecap:butt;stroke-linejoin:miter;stroke-opacity:1"
       d="m 499.01505,674.56526 c -82.83251,38.3858 -82.83251,38.3858 -82.83251,38.3858"
       id="path3336"
       inkscape:connector-curvature="0" />
    <path
       style="fill:none;fill-rule:evenodd;stroke:#000000;stroke-width:1px;stroke-linecap:butt;stroke-linejoin:miter;stroke-opacity:1"
       d="m 417.69776,712.44598 c -20.81473,-14.14213 -60.10407,-17.67767 -60.10407,-17.67767 l 0,0"
       id="path3340"
       inkscape:connector-curvature="0"
       sodipodi:nodetypes="ccc" />
    <path
       style="fill:none;fill-rule:evenodd;stroke:#000000;stroke-width:1px;stroke-linecap:butt;stroke-linejoin:miter;stroke-opacity:1"
       d="m 360.32829,694.89087 c -91.52627,14.52187 -169.42083,66.8358 -209.2749,90.44454 -11.68465,24.73265 -25.80117,46.06093 14.61131,91.26031 116.80366,55.50847 234.12826,10.17345 234.35537,10.10153 l 0,0 c 74.75128,-33.64003 74.75128,-56.56854 74.75128,-56.56854 7.43538,-15.13849 7.80091,-33.8119 0,-56.56854"
       id="path3342"
       inkscape:connector-curvature="0"
       sodipodi:nodetypes="ccccccc" />
    <path
       style="fill:none;fill-rule:evenodd;stroke:#000000;stroke-width:1px;stroke-linecap:butt;stroke-linejoin:miter;stroke-opacity:1"
       d="m 474.77139,777.60082 c 161.6244,-78.7919 161.6244,-80.8122 161.6244,-80.8122 l 0,0 0,0"
       id="path3344"
       inkscape:connector-curvature="0" />
    <path
       style="fill:none;fill-rule:evenodd;stroke:#000000;stroke-width:1px;stroke-linecap:butt;stroke-linejoin:miter;stroke-opacity:1"
       d="m 331.3297,555.36724 62.62945,12.12183 260.61934,48.48731 20.20305,40.4061 -38.38575,42.42644 L 495.44362,674.68781 82.832197,589.71242 c -5.484579,-30.01507 -4.462805,-63.9269 -7.333791,-93.05461 -2.176802,-22.08483 0.497007,-55.39814 21.475921,-80.69162 23.242633,-52.37921 81.149283,-65.09287 103.035553,-66.67006 76.03526,-8.83762 128.41093,23.19114 145.19582,96.62801 7.30353,10.46609 15.34001,76.63765 -13.876,109.4431 z"
       id="path3346"
       inkscape:connector-curvature="0"
       sodipodi:nodetypes="cccccccscccc" />
    <path
       style="fill:none;fill-rule:evenodd;stroke:#000000;stroke-width:1px;stroke-linecap:butt;stroke-linejoin:miter;stroke-opacity:1"
       d="m 632.94692,697.97209 c 539.42148,121.2183 530.74858,113.97392 530.74858,113.97392 30.6356,10.86912 88.6684,-26.20696 139.401,-50.50763 l -656.59918,-145.46197 0,-2.0203"
       id="path3350"
       inkscape:connector-curvature="0"
       sodipodi:nodetypes="ccccc" />
    <path
       style="fill:none;fill-rule:evenodd;stroke:#000000;stroke-width:1px;stroke-linecap:butt;stroke-linejoin:miter;stroke-opacity:1"
       d="M 734.07421,635.35314 1204.1015,399.80377"
       id="path3356"
       inkscape:connector-curvature="0"
       sodipodi:nodetypes="cc" />
    <path
       style="fill:none;fill-rule:evenodd;stroke:#000000;stroke-width:1px;stroke-linecap:butt;stroke-linejoin:miter;stroke-opacity:1"
       d="m 1201.5761,400.81391 c 70.7107,-38.38579 73.2361,-39.39594 73.2361,-39.39594 -67.4966,-2.41828 -137.441,-21.97173 -200.0102,10.10153 l -42.4264,16.16244 -410.12194,210.11173 -12.47897,6.66316 2.73458,-0.35715 -3.21428,3.57143"
       id="path3358"
       inkscape:connector-curvature="0"
       sodipodi:nodetypes="cccccccc" />
    <path
       style="fill:none;fill-rule:evenodd;stroke:#000000;stroke-width:1px;stroke-linecap:butt;stroke-linejoin:miter;stroke-opacity:1"
       d="M 466.69017,432.12865 Z"
       id="path3360"
       inkscape:connector-curvature="0" />
    <path
       style="fill:none;fill-rule:evenodd;stroke:#000000;stroke-width:1px;stroke-linecap:butt;stroke-linejoin:miter;stroke-opacity:1"
       d="M 272.98598,544.22585 143.52185,522.22656 c -2.52496,-8.65343 -0.6594,-40.4436 -1.80013,-49.56195 -1.56807,-12.53431 15.47192,-32.39679 25.96329,-40.53596 25.46144,-26.57909 50.74768,-18.82185 72.73099,-16.16244 4.18841,3.1217 -3.15972,1.06579 1.21421,1.0244 18.62099,-0.1762 30.71889,24.24261 39.19189,35.34109 15.20436,36.06755 5.21878,74.26367 -7.83612,91.89415 z"
       id="path3362"
       inkscape:connector-curvature="0"
       sodipodi:nodetypes="ccsccscc" />
    <path
       style="fill:none;fill-rule:evenodd;stroke:#000000;stroke-width:1px;stroke-linecap:butt;stroke-linejoin:miter;stroke-opacity:1"
       d="m 200.13245,803.02795 c 59.01462,-9.4178 127.79038,-43.87542 152.21614,-64.77232 49.31467,-10.26674 60.03493,22.91674 69.89483,39.34515 3.98661,22.30899 0.65361,25.2439 -2.0203,36.36549 -0.66905,3.34525 -22.19394,18.83078 -43.3858,28.63089 -55.78313,11.22259 -120.73828,29.37345 -172.78683,-6.40754 -23.3739,-17.73989 -3.91804,-33.16167 -3.91804,-33.16167 z"
       id="path3364"
       inkscape:connector-curvature="0"
       sodipodi:nodetypes="ccccccc" />
    <ellipse
       style="fill:#ff0000;fill-rule:evenodd;stroke:#000000;stroke-width:1px;stroke-linecap:butt;stroke-linejoin:miter;stroke-opacity:1"
       id="path3366"
       cx="602.0506"
       cy="648.30133"
       rx="22.223356"
       ry="18.182745" />
    <path
       style="fill:none;fill-rule:evenodd;stroke:#000000;stroke-width:1px;stroke-linecap:butt;stroke-linejoin:miter;stroke-opacity:1"
       d="M 724.2854,632.36231 C 1258.5711,359.50517 1258.5711,359.50517 1258.5711,359.50517"
       id="path3368"
       inkscape:connector-curvature="0" />
    <path
       style="fill:none;fill-rule:evenodd;stroke:#000000;stroke-width:1px;stroke-linecap:butt;stroke-linejoin:miter;stroke-opacity:1"
       d="M 1647.1426,412.36231 Z"
       id="path3370"
       inkscape:connector-curvature="0" />
    <path
       style="fill:none;fill-rule:evenodd;stroke:#000000;stroke-width:1px;stroke-linecap:butt;stroke-linejoin:miter;stroke-opacity:1"
       d="M 659.99969,629.50517 C 1291.4283,768.0766 1291.4283,768.0766 1291.4283,768.0766"
       id="path3372"
       inkscape:connector-curvature="0" />
    <path
       style="fill:#b3b3b3"
       d="m 1164.6139,581.26511 c -1.5715,-0.39246 -14.75,-2.96037 -29.2858,-5.70649 -53.2715,-10.06413 -141.01627,-28.89257 -339.28567,-72.8046 -83.28571,-18.44584 -152.61884,-34.02973 -154.07362,-34.63088 -2.26088,-0.93425 -0.0304,-3.98889 15.35714,-21.03141 9.90121,-10.96612 18.0022,-20.44009 18.0022,-21.05325 0,-0.61317 -2.61205,-6.30996 -5.80456,-12.65954 -3.1925,-6.34958 -5.60322,-11.68196 -5.35714,-11.84974 0.40053,-0.27309 607.22145,132.82296 617.55815,135.45109 3.987,1.01371 2.9578,1.75074 -16.4286,11.76405 -47.2578,24.4092 -66.8504,31.8881 -85.6821,32.70657 -6.6786,0.29027 -13.4286,0.20665 -15,-0.1858 z"
       id="path3374"
       inkscape:connector-curvature="0"
       transform="translate(-3.0517575e-4,230.31507)" />
    <path
       style="fill:#b3b3b3"
       d="m 687.53616,393.56621 c -16.46416,-3.7554 -30.92845,-7.44256 -32.14286,-8.19369 -1.2144,-0.75113 -11.04821,-3.53197 -21.85291,-6.17966 -15.17657,-3.71901 -19.23826,-5.19288 -17.85714,-6.47981 0.98327,-0.9162 95.32347,-49.5423 209.6449,-108.05799 140.65325,-71.99369 213.63065,-108.58283 225.71425,-113.16777 9.8215,-3.72658 23.7244,-9.26531 30.8954,-12.30829 26.0477,-11.05312 45.7479,-14.55427 81.2475,-14.43937 20.0017,0.0647 85.8766,4.93361 87.4031,6.46003 1.0895,1.08956 -526.80084,269.48399 -529.76615,269.34812 -1.84319,-0.0844 -16.82193,-3.22616 -33.28609,-6.98157 z"
       id="path3376"
       inkscape:connector-curvature="0"
       transform="translate(-3.0517575e-4,230.31507)" />
    <path
       style="fill:#cccccc"
       d=""
       id="path3378"
       inkscape:connector-curvature="0"
       transform="translate(-3.0517575e-4,230.31507)" />
    <path
       style="fill:#e6e6e6"
       d="m 729.14306,403.16848 -3.54223,-0.82429 4.25651,-2.23056 c 2.34109,-1.22682 121.75196,-62.21789 265.35749,-135.53572 l 261.10097,-133.30515 5.6847,0.01 c 10.4596,0.0179 10.4063,0.1007 -5.5446,8.60095 -7.9667,4.24547 -23.6456,12.71752 -34.842,18.82678 -19.0989,10.42119 -486.95919,245.49935 -488.30582,245.35109 -0.34254,-0.0377 -2.21679,-0.4395 -4.16502,-0.89286 z"
       id="path3380"
       inkscape:connector-curvature="0"
       transform="translate(-3.0517575e-4,230.31507)" />
    <path
       style="fill:#e6e6e6"
       d="m 974.56608,467.43697 -312.40492,-68.66421 -2.47752,-4.92291 -2.47752,-4.92292 2.0253,0.41346 c 1.11391,0.2274 102.31101,22.63594 224.88244,49.79677 122.57144,27.16082 265.54884,58.84126 317.72744,70.40098 52.1787,11.55972 95.706,21.2274 96.7274,21.48375 1.7225,0.43234 1.5251,0.63681 -2.7275,2.82382 -2.5215,1.29675 -5.5488,2.33473 -6.7273,2.3066 -1.1786,-0.0281 -142.7251,-30.95002 -314.54782,-68.71534 z"
       id="path3382"
       inkscape:connector-curvature="0"
       transform="translate(-3.0517575e-4,230.31507)" />
    <path
       style="fill:#ffd42a"
       d="m 261.16324,671.29823 c -27.92138,-2.92238 -67.89422,-13.37511 -88.04949,-23.02457 -12.40164,-5.93736 -28.56729,-29.72606 -32.1566,-47.32031 -2.10425,-10.3147 -0.25252,-20.42324 6.39165,-34.89186 5.27243,-11.48146 3.29274,-9.89494 37.13516,-29.76015 60.84736,-35.71688 108.7215,-56.1311 156.21762,-66.61347 19.00553,-4.1945 19.11827,-4.20162 31.068,-1.96245 19.35121,3.6261 40.8731,11.12374 43.47614,15.14593 0.41896,0.64738 19.19209,-7.40758 41.71804,-17.8999 l 40.9563,-19.07694 65.1984,11.17206 c 35.85913,6.14463 65.45292,11.42656 65.76397,11.73762 0.31106,0.31106 -33.39431,17.41461 -74.90082,38.0079 -52.65968,26.12688 -76.2473,37.14266 -78.0504,36.45074 -2.17098,-0.83307 -2.4439,-0.44038 -1.70738,2.45661 6.34239,24.94646 6.49099,34.46091 0.7921,50.71359 -6.26922,17.87922 -25.56534,34.16622 -61.6907,52.07039 -19.30321,9.5669 -42.69092,16.2335 -72.4127,20.64103 -18.91417,2.80482 -62.32701,3.97728 -79.74929,2.15378 z m 55.53645,-46.38067 c 32.06236,-4.71563 58.83879,-10.96259 69.21284,-16.14739 12.81926,-6.40687 29.58542,-17.71675 33.34018,-22.49015 4.11564,-5.2322 6.46348,-18.09687 5.39698,-29.57202 -1.54007,-16.57053 -16.41503,-38.50654 -31.5943,-46.59194 -6.54418,-3.48583 -8.5198,-3.80475 -23.57143,-3.80514 l -16.42857,-4.3e-4 -13.01163,8.8842 c -32.99931,22.53161 -83.09885,43.80592 -125.5598,53.31782 -7.85714,1.76012 -15.49944,4.23471 -16.98288,5.4991 -4.14729,3.53487 -6.80846,11.10248 -5.7981,16.48816 2.6616,14.18753 29.49745,30.18826 58.57589,34.92556 5.45566,0.8888 11.52652,1.89192 13.49081,2.22913 6.48407,1.11314 37.74248,-0.50317 52.93001,-2.7369 z"
       id="path3388"
       inkscape:connector-curvature="0"
       transform="translate(-3.0517575e-4,230.31507)" />
    <path
       style="fill:#ffd42a"
       d="m 567.34111,455.51969 c -35.35715,-6.15317 -66.53572,-11.55526 -69.28572,-12.00462 -8.40151,-1.37282 -413.247004,-84.9754 -413.703361,-85.43175 -2.264902,-2.2649 -7.727766,-78.60563 -7.691668,-107.48712 0.02766,-22.13188 5.009856,-39.28994 17.014102,-58.59446 3.900803,-6.27305 9.214437,-14.8802 11.808077,-19.12701 14.47823,-23.70655 45.2949,-43.37626 78.67117,-50.21435 45.78014,-9.37938 88.65428,-1.9229 117.47311,20.43041 19.50631,15.13006 30.77569,34.07771 42.72143,71.82933 11.31898,35.77088 7.12191,80.07951 -9.81903,103.66007 -4.24884,5.91407 -4.59191,6.96188 -2.487,7.59576 3.75503,1.1308 74.08437,14.39318 197.44174,37.2327 61.67857,11.41972 113.12825,21.32332 114.3326,22.00798 1.20437,0.68466 4.11942,1.66867 6.4779,2.18667 3.80175,0.83502 5.29533,2.96385 13.1674,18.76763 4.88359,9.80417 8.87925,18.46597 8.87925,19.24844 0,0.78248 -6.82978,8.97236 -15.17728,18.19975 -19.41948,21.46647 -19.29991,21.34953 -22.67987,22.18333 -1.57143,0.38765 -31.78571,-4.32959 -67.14285,-10.48276 z m 45.40302,-20.45366 c 15.97036,-6.80488 16.3459,-26.67707 0.63889,-33.80723 -10.10111,-4.58537 -20.85841,-3.04307 -28.55096,4.09343 -9.40407,8.7243 -6.8749,23.46067 4.9474,28.82627 7.21246,3.27342 16.52096,3.63316 22.96467,0.88753 z M 279.45145,305.57892 c 6.68134,-12.88839 9.31928,-25.6588 9.29196,-44.98272 -0.0307,-21.6905 -2.60683,-32.60632 -10.4124,-44.12003 -17.10205,-25.22657 -21.80305,-28.7816 -42.89085,-32.43515 -8.38304,-1.4524 -18.80328,-2.66093 -23.15606,-2.68563 -10.01257,-0.0568 -23.07975,3.31521 -31.37157,8.09551 -9.92513,5.72192 -31.64117,28.3515 -36.24059,37.76515 l -3.93239,8.04842 0.44363,27.90733 c 0.244,15.34903 0.87659,28.33876 1.40574,28.86606 0.52916,0.52731 30.10059,5.96117 65.71429,12.07524 71.92634,12.34815 65.57467,12.21729 71.14824,1.46582 z"
       id="path3390"
       inkscape:connector-curvature="0"
       transform="translate(-3.0517575e-4,230.31507)" />
    <path
       transform="translate(-3.0517575e-4,230.31507)"
       inkscape:connector-curvature="0"
       id="path3392"
       d="m 567.34111,455.51969 c -35.35715,-6.15317 -66.53572,-11.55526 -69.28572,-12.00462 -8.40151,-1.37282 -413.247004,-84.9754 -413.703361,-85.43175 -2.264902,-2.2649 -7.727766,-78.60563 -7.691668,-107.48712 0.02766,-22.13188 5.009856,-39.28994 17.014102,-58.59446 3.900803,-6.27305 9.214437,-14.8802 11.808077,-19.12701 14.47823,-23.70655 45.2949,-43.37626 78.67117,-50.21435 45.78014,-9.37938 88.65428,-1.9229 117.47311,20.43041 19.50631,15.13006 30.77569,34.07771 42.72143,71.82933 11.31898,35.77088 7.12191,80.07951 -9.81903,103.66007 -4.24884,5.91407 -4.59191,6.96188 -2.487,7.59576 3.75503,1.1308 74.08437,14.39318 197.44174,37.2327 61.67857,11.41972 113.12825,21.32332 114.3326,22.00798 1.20437,0.68466 4.11942,1.66867 6.4779,2.18667 3.80175,0.83502 5.29533,2.96385 13.1674,18.76763 4.88359,9.80417 8.87925,18.46597 8.87925,19.24844 0,0.78248 -6.82978,8.97236 -15.17728,18.19975 -19.41948,21.46647 -19.29991,21.34953 -22.67987,22.18333 -1.57143,0.38765 -31.78571,-4.32959 -67.14285,-10.48276 z m 45.40302,-20.45366 c 15.97036,-6.80488 16.3459,-26.67707 0.63889,-33.80723 -10.10111,-4.58537 -20.85841,-3.04307 -28.55096,4.09343 -9.40407,8.7243 -6.8749,23.46067 4.9474,28.82627 7.21246,3.27342 16.52096,3.63316 22.96467,0.88753 z M 279.45145,305.57892 c 6.68134,-12.88839 9.31928,-25.6588 9.29196,-44.98272 -0.0307,-21.6905 -2.60683,-32.60632 -10.4124,-44.12003 -17.10205,-25.22657 -21.80305,-28.7816 -42.89085,-32.43515 -8.38304,-1.4524 -18.80328,-2.66093 -23.15606,-2.68563 -10.01257,-0.0568 -23.07975,3.31521 -31.37157,8.09551 -9.92513,5.72192 -31.64117,28.3515 -36.24059,37.76515 l -3.93239,8.04842 0.44363,27.90733 c 0.244,15.34903 0.87659,28.33876 1.40574,28.86606 0.52916,0.52731 30.10059,5.96117 65.71429,12.07524 71.92634,12.34815 65.57467,12.21729 71.14824,1.46582 z"
       style="fill:#ffd42a" />
  </g>
</svg>
