<?xml version="1.0" encoding="UTF-8" standalone="no"?>
<!-- Created with Inkscape (http://www.inkscape.org/) -->

<svg
   xmlns:dc="http://purl.org/dc/elements/1.1/"
   xmlns:cc="http://creativecommons.org/ns#"
   xmlns:rdf="http://www.w3.org/1999/02/22-rdf-syntax-ns#"
   xmlns:svg="http://www.w3.org/2000/svg"
   xmlns="http://www.w3.org/2000/svg"
   xmlns:sodipodi="http://sodipodi.sourceforge.net/DTD/sodipodi-0.dtd"
   xmlns:inkscape="http://www.inkscape.org/namespaces/inkscape"
   width="210mm"
   height="297mm"
   viewBox="0 0 744.09448819 1052.3622047"
   id="svg4020"
   version="1.1"
   inkscape:version="0.91 r13725"
   sodipodi:docname="newhand.svg">
  <defs
     id="defs4022" />
  <sodipodi:namedview
     id="base"
     pagecolor="#ffffff"
     bordercolor="#666666"
     borderopacity="1.0"
     inkscape:pageopacity="0.0"
     inkscape:pageshadow="2"
     inkscape:zoom="0.7"
     inkscape:cx="299.45515"
     inkscape:cy="752.03772"
     inkscape:document-units="px"
     inkscape:current-layer="layer1"
     showgrid="false"
     inkscape:window-width="1024"
     inkscape:window-height="705"
     inkscape:window-x="-8"
     inkscape:window-y="-8"
     inkscape:window-maximized="1" />
  <metadata
     id="metadata4025">
    <rdf:RDF>
      <cc:Work
         rdf:about="">
        <dc:format>image/svg+xml</dc:format>
        <dc:type
           rdf:resource="http://purl.org/dc/dcmitype/StillImage" />
      </cc:Work>
    </rdf:RDF>
  </metadata>
  <g
     inkscape:label="Layer 1"
     inkscape:groupmode="layer"
     id="layer1">
    <path
       style="fill:none;fill-rule:evenodd;stroke:#000000;stroke-width:1px;stroke-linecap:butt;stroke-linejoin:miter;stroke-opacity:1"
       d="m 310,570.93363 c 0,0 20,32.85715 50,8.57143 l -1.42857,-2.85714 c 0,0 10,-2.85714 -1.42857,-45.71429 0,0 -34.28572,-67.14285 -65.71429,-75.71428 C 295.71429,422.3622 264.28571,310.93363 264.28571,310.93363 261.42857,215.21935 250,189.50506 250,189.50506"
       id="path4028"
       inkscape:connector-curvature="0" />
    <path
       style="fill:none;fill-rule:evenodd;stroke:#000000;stroke-width:1px;stroke-linecap:butt;stroke-linejoin:miter;stroke-opacity:1"
       d="m 265.71429,300.93363 c 24.28571,17.14286 48.57142,4.28572 48.57142,4.28572 l -1.42857,0 c 22.85715,40 85.71429,58.57143 85.71429,58.57143 2.85714,47.14285 42.85714,87.14285 42.85714,87.14285"
       id="path4034"
       inkscape:connector-curvature="0" />
    <path
       style="fill:none;fill-rule:evenodd;stroke:#000000;stroke-width:1px;stroke-linecap:butt;stroke-linejoin:miter;stroke-opacity:1"
       d="M 252.85714,200.93363 C 310,188.07649 371.42857,215.21935 371.42857,215.21935 l 0,1.42857 c 35.71429,20 91.42857,100 91.42857,100"
       id="path4036"
       inkscape:connector-curvature="0" />
    <path
       style="fill:none;fill-rule:evenodd;stroke:#000000;stroke-width:1px;stroke-linecap:butt;stroke-linejoin:miter;stroke-opacity:1"
       d="m 461.84699,316.80636 c 5.03666,62.26271 23.18523,92.44034 22.43872,91.27013"
       id="path4038"
       inkscape:connector-curvature="0"
       sodipodi:nodetypes="cc" />
    <path
       style="fill:none;fill-rule:evenodd;stroke:#000000;stroke-width:1px;stroke-linecap:butt;stroke-linejoin:miter;stroke-opacity:1"
       d="m 440.41842,450.60187 c 60.94472,32.59958 44.63229,-41.89443 44.53082,-42.43872 l 0.76505,2.77048"
       id="path4040"
       inkscape:connector-curvature="0"
       sodipodi:nodetypes="ccc" />
    <path
       style="fill:none;fill-rule:evenodd;stroke:#000000;stroke-width:1px;stroke-linecap:butt;stroke-linejoin:miter;stroke-opacity:1"
       d="M 310,573.79078 C 262.85714,550.93363 217.14286,456.64792 217.14286,456.64792 191.42857,393.79078 181.42857,319.50506 181.42857,319.50506 l 0,0 c 7.14286,-41.42857 7.14286,-40 7.14286,-40"
       id="path4042"
       inkscape:connector-curvature="0" />
    <path
       style="fill:none;fill-rule:evenodd;stroke:#000000;stroke-width:1px;stroke-linecap:butt;stroke-linejoin:miter;stroke-opacity:1"
       d="M 180,323.79078 C 152.85714,299.50506 152.85714,299.50506 152.85714,299.50506"
       id="path4044"
       inkscape:connector-curvature="0" />
    <path
       style="fill:none;fill-rule:evenodd;stroke:#000000;stroke-width:1px;stroke-linecap:butt;stroke-linejoin:miter;stroke-opacity:1"
       d="m 344.28571,205.21935 c -21.19578,-31.3691 -69.40826,-62.85715 -69.40826,-62.85715 -14.54365,-18.19795 -32.41939,-39.12472 -66.30602,-40 l -0.38868,1.01015 c -32.95724,8.90813 -43.27558,35.92738 -49.61132,66.13271 -22.27078,-6.87926 -47.90334,-18.97745 -80.663524,8.60116 -9.888737,22.85942 -20.154086,45.21668 -22.19362,78.5417 -12.59109,12.40787 -22.33537,24.58339 -37.142857,52.85714 -3.301739,18.59249 -6.063551,37.54493 -1.428572,61.42857 C 6.5995226,384.67601 2.6379506,405.00015 2.8571429,429.50506 1.23343,455.38585 6.5018668,469.77972 12.857143,482.3622 l 0,0 C 33.168217,546.57995 98.660897,577.13912 100,578.07649 c 25.71429,8.0345 48.32632,-14.50938 48.32632,-13.95395"
       id="path4046"
       inkscape:connector-curvature="0"
       sodipodi:nodetypes="cccccccccccccc" />
    <path
       style="fill:none;fill-rule:evenodd;stroke:#000000;stroke-width:1px;stroke-linecap:butt;stroke-linejoin:miter;stroke-opacity:1"
       d="m 102.85714,329.50506 c 2.30255,93.34076 84.50874,178.09056 87.14286,174.28572 23.41585,4.46665 35.58712,0.49986 48.57143,-2.85715 l 0,-1.42857 2.85714,0"
       id="path4048"
       inkscape:connector-curvature="0"
       sodipodi:nodetypes="ccccc" />
    <path
       style="fill:none;fill-rule:evenodd;stroke:#000000;stroke-width:1px;stroke-linecap:butt;stroke-linejoin:miter;stroke-opacity:1"
       d="m 45.714286,408.07649 c 12.833377,38.46254 24.587692,78.15829 55.714284,95.71429 19.69134,31.98701 29.30955,30.3969 41.42857,37.14285 21.99907,5.98021 31.18158,1.70717 40,-2.85714 14.01679,-0.80678 24.67744,-19.76319 33.44888,-36.30602"
       id="path4050"
       inkscape:connector-curvature="0"
       sodipodi:nodetypes="ccccc" />
    <path
       style="fill:none;fill-rule:evenodd;stroke:#000000;stroke-width:1px;stroke-linecap:butt;stroke-linejoin:miter;stroke-opacity:1"
       d="m 145.71429,565.21935 c 19.21347,-13.30444 18.5813,-18.67062 25.71428,-27.14286 l 0,1.42857"
       id="path4052"
       inkscape:connector-curvature="0"
       sodipodi:nodetypes="ccc" />
    <path
       style="fill:none;fill-rule:evenodd;stroke:#000000;stroke-width:1px;stroke-linecap:butt;stroke-linejoin:miter;stroke-opacity:1"
       d="M 4.2857143,420.93363 C 1.4285714,292.3622 0,292.3622 0,292.3622 l 1.4285714,4.28572"
       id="path4054"
       inkscape:connector-curvature="0" />
    <path
       style="fill:none;fill-rule:evenodd;stroke:#000000;stroke-width:1px;stroke-linecap:butt;stroke-linejoin:miter;stroke-opacity:1"
       d="m 215.71429,103.79078 c -1.42858,1.42857 0,0 0,0 z"
       id="path4056"
       inkscape:connector-curvature="0" />
    <path
       style="fill:none;fill-rule:evenodd;stroke:#000000;stroke-width:1px;stroke-linecap:butt;stroke-linejoin:miter;stroke-opacity:1"
       d="M 302.85714,160.93363 Z"
       id="path4058"
       inkscape:connector-curvature="0" />
    <path
       style="fill:none;fill-rule:evenodd;stroke:#000000;stroke-width:1px;stroke-linecap:butt;stroke-linejoin:miter;stroke-opacity:1"
       d="m 271.42857,140.93363 c -31.42857,-72.85714 -30,-74.285712 -30,-74.285712 -39.06937,-18.74969 -73.93525,-30.130435 -128.57142,-42.857142 0,0 -46.666673,-2.701071 -71.428579,5.714285"
       id="path4060"
       inkscape:connector-curvature="0"
       sodipodi:nodetypes="cccc" />
    <path
       style="fill:none;fill-rule:evenodd;stroke:#000000;stroke-width:1px;stroke-linecap:butt;stroke-linejoin:miter;stroke-opacity:1"
       d="m 313.65237,303.83917 c 0,-29.29443 14.64721,-56.56854 14.64721,-56.56854"
       id="path4062"
       inkscape:connector-curvature="0" />
    <path
       style="fill:none;fill-rule:evenodd;stroke:#000000;stroke-width:1px;stroke-linecap:butt;stroke-linejoin:miter;stroke-opacity:1"
       d="m 398.0001,364.44832 c 5.55584,-26.76904 20.70813,-36.87057 20.70813,-36.87057"
       id="path4064"
       inkscape:connector-curvature="0" />
    <path
       style="fill:none;fill-rule:evenodd;stroke:#000000;stroke-width:1px;stroke-linecap:butt;stroke-linejoin:miter;stroke-opacity:1"
       d="m 56.568543,247.27063 c -2.020306,50.50762 7.071067,53.53808 7.071067,53.53808"
       id="path4066"
       inkscape:connector-curvature="0" />
    <path
       style="fill:none;fill-rule:evenodd;stroke:#000000;stroke-width:1px;stroke-linecap:butt;stroke-linejoin:miter;stroke-opacity:1"
       d="m 17.172593,362.42802 c -2.020305,17.35237 13.131984,41.58066 13.131984,43.43656"
       id="path4068"
       inkscape:connector-curvature="0"
       sodipodi:nodetypes="cc" />
    <path
       style="fill:none;fill-rule:evenodd;stroke:#000000;stroke-width:1px;stroke-linecap:butt;stroke-linejoin:miter;stroke-opacity:1"
       d="M 44.285714,28.07649 C -18.276484,157.86231 0,300.93363 0,300.93363"
       id="path4070"
       inkscape:connector-curvature="0"
       sodipodi:nodetypes="cc" />
    <path
       style="fill:#ffd5d5"
       d="m 329.21461,585.59679 c -2.72514,-0.86837 -8.12742,-4.63682 -12.00503,-8.37435 -3.87761,-3.73752 -7.51816,-6.50627 -8.0901,-6.1528 -1.31371,0.81193 -9.93721,-4.96527 -19.37163,-12.97775 -19.11188,-16.23137 -50.02596,-59.69618 -68.26281,-95.97671 -11.65053,-23.17764 -28.25625,-80.68787 -35.57879,-123.21927 l -3.32038,-19.28572 3.22251,-17.85714 c 3.55614,-19.70588 4.0415,-24.71416 2.09786,-21.64723 -0.6707,1.0583 -2.72033,10.80602 -4.55473,21.6616 l -3.33527,19.7374 -3.82949,-3.09017 c -2.10623,-1.6996 -8.09771,-6.8785 -13.31443,-11.50867 -5.21673,-4.63017 -9.82455,-8.07887 -10.23964,-7.6638 -0.41509,0.41509 5.86803,6.7599 13.96246,14.0996 13.94135,12.64143 14.77943,13.72319 15.89844,20.52094 2.95104,17.92683 11.75871,56.22612 17.44663,75.86492 8.84186,30.52851 16.26211,48.82264 28.39793,70.01313 5.80791,10.14125 10.30147,18.8567 9.98568,19.36764 -0.4978,0.80546 -6.29981,2.31648 -18.91694,4.9266 -2.08481,0.43128 -2.98991,0.133 -2.41569,-0.79613 0.50506,-0.8172 0.27543,-1.48583 -0.51028,-1.48583 -0.78572,0 -1.88036,0.73102 -2.43254,1.62447 -0.68953,1.11569 -4.54526,1.35139 -12.31055,0.75257 -13.59928,-1.0487 -15.0458,-2.01654 -31.09064,-20.80228 -30.40908,-35.60382 -54.82525,-83.34887 -62.90903,-123.01664 -1.56993,-7.70382 -2.89961,-16.7988 -2.95483,-20.21109 -0.0552,-3.4123 -0.70956,-7.48989 -1.45407,-9.06131 -2.04639,-4.31926 -0.43422,17.92262 2.22628,30.71428 8.94497,43.0075 37.62233,96.49469 70.68704,131.84094 9.53537,10.19336 12.50958,11.62068 27.51462,13.20413 l 8.15919,0.86103 -5.30204,8.61894 c -6.61537,10.75388 -14.62389,17.85349 -23.87347,21.164 -3.92858,1.40609 -8.22096,3.00205 -9.53863,3.54658 -1.9481,0.80507 -2.24153,0.36837 -1.57036,-2.33706 0.79964,-3.22326 0.70931,-3.20447 -2.89316,0.60144 -2.04521,2.16072 -4.59548,3.92857 -5.66727,3.92857 -5.81824,0 -19.91891,-3.61365 -27.48219,-7.04301 -11.02166,-4.99746 -17.85314,-11.03549 -26.63697,-23.54322 -3.85658,-5.49157 -8.74638,-11.12242 -10.866233,-12.51304 C 91.662911,495.86884 80.85095,484.57271 75.44311,476.42545 68.574927,466.07809 62.276603,452.04547 54.110231,428.89591 50.368394,418.28877 46.67868,408.96734 45.910867,408.18162 c -2.152979,-2.20317 -0.129343,4.98569 7.026533,24.96139 12.591484,35.14926 24.207447,54.18574 40.724214,66.73973 4.420103,3.35961 10.094646,9.31565 12.610096,13.23564 11.10469,17.30514 30.63509,29.46183 50.36427,31.34917 l 8.95786,0.85693 -7.14077,7.14321 c -11.89972,11.9038 -18.13569,16.66789 -27.85506,21.2804 -12.3893,5.87958 -24.46732,6.08745 -35.000001,0.60238 C 71.149157,561.61829 43.0207,535.60028 28.159493,511.97175 19.369663,497.99638 6.8552759,466.50007 4.764043,453.08988 2.6252855,439.37492 4.189641,409.20964 7.7645212,395.23199 c 2.8051848,-10.96817 6.3870608,-19.19322 8.3583348,-19.19322 0.641167,0 1.980775,2.73214 2.976907,6.07142 2.700503,9.05279 9.961158,24.51328 11.016474,23.45796 0.506841,-0.50684 -1.077006,-5.26901 -3.519661,-10.5826 -6.525098,-14.19426 -8.984498,-24.86913 -9.88274,-42.89538 -1.201146,-24.10506 1.305237,-39.47193 8.521524,-52.24628 8.13386,-14.39864 15.408277,-24.8768 23.000514,-33.13022 l 6.534404,-7.10348 0.05673,5.96806 c 0.09409,9.89929 3.014843,27.94053 5.210903,32.18724 3.481776,6.73302 4.873923,4.41373 1.679593,-2.79815 -2.463472,-5.56182 -3.126553,-10.5365 -3.676356,-27.5814 -0.917401,-28.44113 2.889861,-46.65948 16.25449,-77.78023 4.190726,-9.75849 5.911603,-12.11664 11.749223,-16.10021 17.57217,-11.99117 36.22805,-14.17133 59.37975,-6.93922 6.97607,2.17917 13.16178,3.43411 13.74606,2.78874 0.58425,-0.64537 2.17892,-5.83804 3.5437,-11.53926 4.80554,-20.07476 14.43612,-35.87344 27.23617,-44.68011 7.67444,-5.28015 21.46928,-10.50018 23.84328,-9.0224 0.9923,0.61769 3.0899,0.95929 4.66133,0.7591 4.21504,-0.53696 18.79296,4.83809 26.453,9.75352 3.676,2.35889 10.65223,8.62393 15.50273,13.92232 12.58673,13.74897 12.4424,13.6187 26.86854,24.25408 18.90296,13.93581 36.84942,29.70044 45.73673,40.1763 4.24919,5.00871 7.43923,9.39331 7.08897,9.74356 -0.35025,0.35025 -5.43687,-0.35466 -11.3036,-1.56646 -24.53928,-5.06873 -49.19974,-6.07561 -69.45914,-2.836 -5.42026,0.86673 -5.5281,0.79564 -6.47863,-4.27118 -0.53166,-2.83392 -1.58037,-5.15258 -2.33047,-5.15258 -1.72907,0 -1.83103,-0.85517 1.40814,11.80989 3.82112,14.9404 8.26475,52.19424 10.07273,84.44612 1.37674,24.5591 2.07706,29.1569 7.8333,51.42857 12.22994,47.3192 20.75056,92.72795 20.75056,110.5856 l 0,8.6178 6.78571,3.26765 c 19.6065,9.44147 55.9824,58.67104 61.10845,82.70151 2.91705,13.67489 3.42615,29.24792 1.03441,31.64149 -0.98214,0.9829 -1.78571,2.9738 -1.78571,4.42423 0,1.78555 -2.42195,3.76472 -7.5,6.12891 -8.05039,3.74799 -13.17755,4.15011 -21.02626,1.64911 z"
       id="path4072"
       inkscape:connector-curvature="0" />
    <path
       style="fill:#ffd5d5"
       d="m 452.02658,454.59609 c -8.94131,-3.15014 -15.80703,-9.90021 -27.46836,-27.00571 -14.11818,-20.70937 -23.81927,-45.58001 -24.25617,-62.18554 -0.2387,-9.07243 5.36929,-21.90917 13.95117,-31.93438 7.02679,-8.20858 5.45533,-9.17162 -1.91628,-1.17436 -6.40976,6.95377 -10.46753,14.12391 -13.23446,23.38552 -0.99763,3.33929 -2.24413,6.07143 -2.77001,6.07143 -2.30915,0 -20.45659,-7.99434 -33.16675,-14.61067 -17.01131,-8.85532 -34.63421,-22.57259 -42.66533,-33.20973 l -6.02826,-7.98438 0.87529,-10.35465 c 0.97305,-11.51117 6.5894,-32.40679 11.07205,-41.1935 1.6043,-3.1447 2.65941,-6.47319 2.34467,-7.39664 -1.83461,-5.38278 -12.8625,26.88143 -15.31808,44.816 -0.90335,6.59766 -1.91173,12.43145 -2.24085,12.96397 -1.29069,2.08839 -15.58126,4.42891 -22.2322,3.6412 -3.86317,-0.45753 -10.78415,-2.51936 -15.37997,-4.58184 l -8.35603,-3.74997 -0.98108,-17.38418 c -1.33689,-23.68882 -4.7126,-55.89296 -7.2477,-69.14274 -1.59322,-8.32703 -1.69155,-11.19755 -0.41067,-11.98917 3.00361,-1.85633 25.7077,-3.09514 41.11728,-2.24349 17.52997,0.96885 36.55417,4.68909 56.26325,11.00247 11.4244,3.65956 16.15084,6.11044 25.36704,13.15398 18.92644,14.46467 49.74339,48.64754 73.77666,81.83477 7.02972,9.70724 7.2896,10.41823 8.87699,24.28571 3.06656,26.78968 11.6252,59.68128 19.70143,75.71429 3.06373,6.08214 3.61066,9.15823 3.68306,20.71429 0.1728,27.58194 -10.40972,36.64184 -33.35669,28.55732 z"
       id="path4074"
       inkscape:connector-curvature="0" />
    <path
       style="fill:#ffd5d5"
       d="M 4.317279,369.46291 C 3.8282688,356.18678 2.7124433,332.46734 1.8376667,316.75305 -0.61990225,272.60584 -1.1528184,225.85451 0.55935603,204.61019 5.4576938,143.83263 19.459906,85.707413 40.190568,40.095262 l 4.973808,-10.943505 8.788245,-1.669743 c 4.833535,-0.918358 19.716816,-2.019299 33.073959,-2.446537 l 24.28571,-0.776795 25.69477,6.704936 c 39.59615,10.332441 66.26275,19.445097 93.82332,32.061817 8.32703,3.811958 9.7389,5.032881 11.28254,9.756697 0.97045,2.96972 5.91775,15.363777 10.99399,27.542348 5.07626,12.17857 9.58544,23.03868 10.02041,24.13358 0.43496,1.09489 -2.88495,-1.00327 -7.3776,-4.66258 -15.03185,-12.24361 -33.42153,-19.25535 -45.98473,-17.53338 -14.86294,2.0372 -33.17138,16.28763 -41.14711,32.02696 -2.0345,4.01489 -5.3285,12.92255 -7.32,19.79479 -1.99149,6.87225 -3.8427,12.71679 -4.11379,12.98789 -0.2711,0.27108 -6.11435,-1.13615 -12.98501,-3.12719 -23.01055,-6.66819 -41.42991,-4.44672 -58.58797,7.06602 -8.202113,5.50347 -8.807844,6.33708 -14.553213,20.0282 -7.6564,18.24507 -12.737499,35.85888 -14.924636,51.7368 -1.670301,12.12584 -1.979555,12.83788 -9.172938,21.12034 -8.881303,10.22591 -22.26163,30.50371 -27.06369,41.01483 -4.81248,10.53394 -7.4314,34.98468 -5.621247,52.48107 1.204381,11.64116 1.067131,13.56753 -1.224548,17.18698 -1.419527,2.24199 -3.7652444,7.43925 -5.2127042,11.54945 l -2.6317452,7.4731 -0.8891096,-24.13843 z"
       id="path4076"
       inkscape:connector-curvature="0" />
  </g>
</svg>
