<?xml version="1.0" encoding="UTF-8" standalone="no"?>
<!-- Created with Inkscape (http://www.inkscape.org/) -->

<svg
   xmlns:dc="http://purl.org/dc/elements/1.1/"
   xmlns:cc="http://creativecommons.org/ns#"
   xmlns:rdf="http://www.w3.org/1999/02/22-rdf-syntax-ns#"
   xmlns:svg="http://www.w3.org/2000/svg"
   xmlns="http://www.w3.org/2000/svg"
   xmlns:sodipodi="http://sodipodi.sourceforge.net/DTD/sodipodi-0.dtd"
   xmlns:inkscape="http://www.inkscape.org/namespaces/inkscape"
   width="744.09448819"
   height="1052.3622047"
   id="svg3089"
   version="1.1"
   inkscape:version="0.91 r13725"
   sodipodi:docname="cedar_oil.svg">
  <defs
     id="defs3091">
    <inkscape:perspective
       sodipodi:type="inkscape:persp3d"
       inkscape:vp_x="0 : 526.18109 : 1"
       inkscape:vp_y="0 : 1000 : 0"
       inkscape:vp_z="744.09448 : 526.18109 : 1"
       inkscape:persp3d-origin="372.04724 : 350.78739 : 1"
       id="perspective3897" />
  </defs>
  <sodipodi:namedview
     id="base"
     pagecolor="#ffffff"
     bordercolor="#666666"
     borderopacity="1.0"
     inkscape:pageopacity="0.0"
     inkscape:pageshadow="2"
     inkscape:zoom="0.70710678"
     inkscape:cx="347.6874"
     inkscape:cy="563.37466"
     inkscape:document-units="px"
     inkscape:current-layer="layer1"
     showgrid="false"
     inkscape:window-width="1024"
     inkscape:window-height="705"
     inkscape:window-x="-8"
     inkscape:window-y="-8"
     inkscape:window-maximized="1" />
  <metadata
     id="metadata3094">
    <rdf:RDF>
      <cc:Work
         rdf:about="">
        <dc:format>image/svg+xml</dc:format>
        <dc:type
           rdf:resource="http://purl.org/dc/dcmitype/StillImage" />
        <dc:title />
      </cc:Work>
    </rdf:RDF>
  </metadata>
  <g
     inkscape:label="Layer 1"
     inkscape:groupmode="layer"
     id="layer1">
    <rect
       style="fill:#ffffff;stroke:#834b4b;stroke-width:1.06921148;stroke-opacity:1"
       id="rect3937"
       width="294.21655"
       height="119.93044"
       x="256.03461"
       y="539.39679"
       rx="0"
       ry="46.55191" />
    <text
       xml:space="preserve"
       style="font-size:54.65183640000000054px;font-style:normal;font-weight:normal;line-height:125%;letter-spacing:0px;word-spacing:0px;fill:#280b0b;fill-opacity:1;stroke:none;font-family:Sans"
       x="306.63452"
       y="512.12396"
       id="text4001"
       sodipodi:linespacing="125%"
       transform="scale(0.86095988,1.1614943)"><tspan
         sodipodi:role="line"
         x="306.63452"
         y="512.12396"
         id="tspan4007"> GLYCERINE</tspan></text>
    <path
       style="fill:#d4aa00;stroke:#834b4b;stroke-width:0.71116346;stroke-opacity:1"
       d="m 267.21605,742.29452 c -43.89563,-7.64849 -43.52451,-62.21003 -43.52451,-62.21003 -5.16171,-50.6374 2.77709,-30.89917 1.90936,-43.56633 -0.79515,-11.60767 1.40782,-216.57054 1.11966,-215.45712 -12.14543,46.92848 328.90494,15.59929 344.89964,-2.89652 0.24139,-0.27913 2.96694,66.37749 2.96694,146.92492 0,120.44089 -0.17128,116.41999 -0.96446,121.43426 -7.76214,49.07087 -36.84307,58.77853 -84.87487,57.9941 -13.9241,-0.2274 -11.13455,-2.17513 -83.66649,-2.24086 -51.38788,-0.0466 -133.82957,0.72077 -137.86527,0.0176 z"
       id="path4063"
       inkscape:connector-curvature="0"
       sodipodi:nodetypes="ssssssssss" />
    <path
       style="fill:#0000ff;stroke:#834b4b;stroke-width:0.25;stroke-opacity:1"
       d=""
       id="path4089"
       inkscape:connector-curvature="0" />
    <path
       style="fill:#0000ff;stroke:#834b4b;stroke-width:0.08838835;stroke-opacity:1"
       d=""
       id="path4099"
       inkscape:connector-curvature="0" />
    <path
       style="fill:#0000ff;stroke:#834b4b;stroke-width:0.02209709;stroke-opacity:1"
       d="m 556.42941,430.86291 c 0.007,-0.007 0.0264,-0.008 0.0424,-0.002 0.0176,0.007 0.0124,0.0123 -0.0134,0.0134 -0.0233,9.6e-4 -0.0363,-0.004 -0.029,-0.0116 z"
       id="path4115"
       inkscape:connector-curvature="0" />
    <path
       style="fill:#0000ff;stroke:#834b4b;stroke-width:0.02209709;stroke-opacity:1"
       d=""
       id="path4117"
       inkscape:connector-curvature="0" />
    <path
       style="fill:#0000ff;stroke:#834b4b;stroke-width:0.02209709;stroke-opacity:1"
       d="m 556.25217,430.79414 c 0.0334,-0.005 0.0881,-0.005 0.12153,0 0.0334,0.005 0.006,0.009 -0.0608,0.009 -0.0669,0 -0.0942,-0.004 -0.0608,-0.009 z"
       id="path4119"
       inkscape:connector-curvature="0" />
    <path
       style="fill:#0000ff;stroke:#834b4b;stroke-width:0.02209709;stroke-opacity:1"
       d="m 555.90966,430.81743 c 0.0152,-0.006 0.0401,-0.006 0.0553,0 0.0152,0.006 0.003,0.0111 -0.0276,0.0111 -0.0304,0 -0.0428,-0.005 -0.0276,-0.0111 z"
       id="path4121"
       inkscape:connector-curvature="0" />
    <path
       style="fill:#0000ff;stroke:#834b4b;stroke-width:0.02209709;stroke-opacity:1"
       d="m 555.6445,430.81743 c 0.0152,-0.006 0.04,-0.006 0.0552,0 0.0152,0.006 0.003,0.0111 -0.0276,0.0111 -0.0304,0 -0.0428,-0.005 -0.0276,-0.0111 z"
       id="path4123"
       inkscape:connector-curvature="0" />
    <path
       style="fill:#0000ff;stroke:#834b4b;stroke-width:0.02209709;stroke-opacity:1"
       d="m 555.46772,430.81743 c 0.0152,-0.006 0.0401,-0.006 0.0553,0 0.0152,0.006 0.003,0.0111 -0.0276,0.0111 -0.0304,0 -0.0428,-0.005 -0.0276,-0.0111 z"
       id="path4125"
       inkscape:connector-curvature="0" />
    <path
       style="fill:#0000ff;stroke:#834b4b;stroke-width:0.02209709;stroke-opacity:1"
       d="m 544.85053,429.4045 c 0.007,-0.007 0.0264,-0.008 0.0424,-0.002 0.0176,0.007 0.0124,0.0123 -0.0133,0.0134 -0.0233,9.6e-4 -0.0363,-0.004 -0.029,-0.0116 z"
       id="path4131"
       inkscape:connector-curvature="0" />
    <path
       style="fill:#b3b3b3;stroke:#834b4b;stroke-width:0.3000001;stroke-miterlimit:4;stroke-opacity:1;stroke-dasharray:none"
       d="m 369.90089,457.79723 c -36.34153,-0.99703 -77.31187,-5.35205 -102.33755,-10.87818 -24.64328,-5.44169 -41.66245,-14.7092 -41.66245,-22.68659 0,-2.93708 11.62042,-13.91661 19.20059,-18.14163 20.48073,-11.41551 51.83365,-19.35655 95.79941,-24.26397 22.13851,-2.47108 88.57606,-3.04306 112,-0.0151 89.54216,11.5749 105.00485,29.42466 106.69387,30.61103 l 10.80613,7.59028 -5.10424,7.26922 c -14.07389,20.04338 -68.41,27.41374 -143.39576,30.19524 -14.575,0.54065 -30.1,0.8924 -34.5,0.78168 -4.4,-0.11072 -12.275,-0.3186 -17.5,-0.46194 z"
       id="path4181"
       inkscape:connector-curvature="0"
       sodipodi:nodetypes="csssssscssscc" />
    <text
       xml:space="preserve"
       style="font-size:44.95901489px;font-style:normal;font-weight:normal;line-height:125%;letter-spacing:0px;word-spacing:0px;fill:#000000;fill-opacity:1;stroke:none;font-family:Sans"
       x="926.55701"
       y="620.91595"
       id="text4185"
       sodipodi:linespacing="125%"
       transform="scale(1.1688433,0.85554668)"><tspan
         sodipodi:role="line"
         x="926.55701"
         y="620.91595"
         id="tspan4191"
         style="fill:#000000" /></text>
    <text
       xml:space="preserve"
       style="font-size:40px;font-style:normal;font-weight:normal;line-height:125%;letter-spacing:0px;word-spacing:0px;fill:#000000;fill-opacity:1;stroke:none;font-family:Sans"
       x="510"
       y="353.36218"
       id="text4197"
       sodipodi:linespacing="125%"><tspan
         sodipodi:role="line"
         id="tspan4199"
         x="510"
         y="353.36218" /></text>
    <path
       style="fill:#e6e6e6;stroke:#060000;stroke-width:2;stroke-opacity:1"
       d=""
       id="path3839"
       inkscape:connector-curvature="0" />
    <path
       style="fill:#e6e6e6;stroke:#060000;stroke-width:2;stroke-opacity:1"
       d=""
       id="path3843"
       inkscape:connector-curvature="0" />
    <path
       style="fill:#e6e6e6;stroke:#060000;stroke-width:2;stroke-opacity:1"
       d=""
       id="path3847"
       inkscape:connector-curvature="0" />
    <path
       style="fill:#ececec;stroke:#060000;stroke-width:0.35355338;stroke-opacity:1"
       d=""
       id="path3859"
       inkscape:connector-curvature="0" />
    <path
       style="fill:#ececec;stroke:#060000;stroke-width:0.35355338;stroke-opacity:1"
       d=""
       id="path3861"
       inkscape:connector-curvature="0" />
    <path
       style="fill:#ececec;stroke:#060000;stroke-width:0.35355338;stroke-opacity:1"
       d=""
       id="path3863"
       inkscape:connector-curvature="0" />
    <path
       style="fill:#ececec;stroke:#060000;stroke-width:0.35355337999999997;stroke-opacity:1"
       d=""
       id="path3865"
       inkscape:connector-curvature="0" />
    <path
       style="fill:#ffffff;stroke:#060000;stroke-width:0.35355337999999997;stroke-opacity:1"
       d=""
       id="path3871"
       inkscape:connector-curvature="0" />
    <path
       style="fill:#ffffff;stroke:#060000;stroke-width:0.35355338;stroke-opacity:1"
       d=""
       id="path3875"
       inkscape:connector-curvature="0" />
    <path
       style="fill:#ececec;fill-opacity:1"
       d="m 354.1874,456.60187 c -38.43441,-2.05115 -80.48598,-7.95591 -99.83705,-14.01883 -14.96957,-4.69014 -27.66295,-12.97193 -27.66295,-18.04867 0,-3.97439 19.76497,-18.75174 29.26058,-21.87677 2.88168,-0.94837 5.57003,-2.22045 5.97411,-2.82685 0.40407,-0.6064 0.74158,-0.73849 0.75,-0.29353 0.008,0.44496 0.57781,0.45761 1.26531,0.0281 0.6875,-0.42949 1.7,-0.8551 2.25,-0.9458 0.55,-0.0907 6.17892,-1.74065 12.50871,-3.66656 27.34346,-8.31956 58.08054,-12.45534 99.49129,-13.38688 35.45069,-0.79748 75.2509,0.929 95.88167,4.15921 29.6744,4.64618 58.53763,12.4006 72.66707,19.52277 7.47144,3.76611 21.95581,13.97536 21.94155,15.46543 -0.0154,1.60724 -6.67977,9.56867 -10.24524,12.23919 -20.19733,15.12768 -72.44866,23.00148 -157.24505,23.69541 -22,0.18003 -43.15,0.15923 -47,-0.0462 l 0,0 z"
       id="path3726"
       inkscape:connector-curvature="0" />
    <path
       style="fill:none;fill-rule:evenodd;stroke:#000000;stroke-width:1px;stroke-linecap:butt;stroke-linejoin:miter;stroke-opacity:1"
       d="m 227,422.36218 c -1,-119 -1,-119 -1,-119"
       id="path3391"
       inkscape:connector-curvature="0" />
    <path
       style="fill:none;fill-rule:evenodd;stroke:#000000;stroke-width:1px;stroke-linecap:butt;stroke-linejoin:miter;stroke-opacity:1"
       d="m 570,419.36218 c -1,-119 -1,-119 -1,-119"
       id="path3393"
       inkscape:connector-curvature="0" />
    <ellipse
       style="fill:#cccccc"
       id="path3395"
       cx="396"
       cy="304.86218"
       rx="172"
       ry="20.5" />
    <path
       style="fill:#ececec"
       d="m 227.4874,364.52438 0,-55.14359 6.75,2.26361 c 17.02063,5.70785 48.5833,9.68459 98.25,12.37902 23.88115,1.29555 103.11885,1.29555 127,0 60.73783,-3.29503 99.36939,-9.2737 106.59198,-16.49629 l 2.34417,-2.34417 0.28192,56.17262 c 0.15506,30.89494 0.26028,56.26927 0.23381,56.3874 -0.0265,0.11813 -4.56522,-2.85641 -10.08614,-6.6101 -16.30835,-11.0881 -38.72825,-18.62183 -74.36574,-24.98904 -34.49963,-6.1639 -38.85029,-6.49489 -85.5,-6.50456 -43.69729,-0.009 -52.58872,0.48384 -79.08564,4.38426 -34.43807,5.06938 -64.77978,14.25972 -78.62625,23.81545 -2.35846,1.62763 -6.42561,4.95499 -9.03811,7.39415 l -4.75,4.43483 0,-55.14359 z"
       id="path3399"
       inkscape:connector-curvature="0" />
    <path
       style="fill:none;fill-rule:evenodd;stroke:#000000;stroke-width:1px;stroke-linecap:butt;stroke-linejoin:miter;stroke-opacity:1"
       d="M 230,691.36218 Z"
       id="path3403"
       inkscape:connector-curvature="0" />
    <path
       style="fill:#d4aa00"
       d="m 343.16192,455.50722 c -28.89023,-2.08479 -64.11219,-7.14376 -82.50039,-11.84963 -18.70495,-4.78694 -35.09355,-14.85467 -33.01181,-20.2796 1.29182,-3.36643 16.09291,-14.34398 25.57108,-18.96535 9.7855,-4.77122 39.30576,-13.23076 57.4142,-16.45303 41.66608,-7.41417 120.02447,-8.10098 164.90424,-1.44539 18.5244,2.74714 44.78327,9.19318 59.95572,14.71796 11.45093,4.16965 30.98872,15.96559 32.13378,19.40077 0.29605,0.88817 -1.9197,4.19872 -4.92389,7.35678 -14.79035,15.5479 -53.12633,24.0035 -122.6693,27.05663 -28.89635,1.26863 -82.16787,1.52206 -96.87363,0.46086 z"
       id="path3826"
       inkscape:connector-curvature="0" />
    <rect
       style="fill:#e3dedb"
       id="rect3830"
       width="254.55844"
       height="123.03658"
       x="275.77164"
       y="486.67676"
       rx="2.0436299"
       ry="123.03658" />
    <text
       xml:space="preserve"
       style="font-style:normal;font-weight:normal;font-size:39.93468094px;line-height:125%;font-family:sans-serif;letter-spacing:0px;word-spacing:0px;fill:#000000;fill-opacity:1;stroke:none;stroke-width:1px;stroke-linecap:butt;stroke-linejoin:miter;stroke-opacity:1"
       x="370.06757"
       y="430.49799"
       id="text3832"
       sodipodi:linespacing="125%"
       transform="scale(0.79869368,1.2520445)"><tspan
         sodipodi:role="line"
         x="370.06757"
         y="430.49799"
         id="tspan3836">CEDAR WOOD</tspan><tspan
         sodipodi:role="line"
         x="370.06757"
         y="485.31366"
         id="tspan3840">      OIL</tspan></text>
  </g>
</svg>
