<?xml version="1.0" encoding="UTF-8" standalone="no"?>
<!-- Created with Inkscape (http://www.inkscape.org/) -->

<svg
   xmlns:dc="http://purl.org/dc/elements/1.1/"
   xmlns:cc="http://creativecommons.org/ns#"
   xmlns:rdf="http://www.w3.org/1999/02/22-rdf-syntax-ns#"
   xmlns:svg="http://www.w3.org/2000/svg"
   xmlns="http://www.w3.org/2000/svg"
   xmlns:sodipodi="http://sodipodi.sourceforge.net/DTD/sodipodi-0.dtd"
   xmlns:inkscape="http://www.inkscape.org/namespaces/inkscape"
   width="210mm"
   height="297mm"
   viewBox="0 0 744.09448819 1052.3622047"
   id="svg2"
   version="1.1"
   inkscape:version="0.91 r13725"
   sodipodi:docname="HAND_3.svg">
  <defs
     id="defs4" />
  <sodipodi:namedview
     id="base"
     pagecolor="#ffffff"
     bordercolor="#666666"
     borderopacity="1.0"
     inkscape:pageopacity="0.0"
     inkscape:pageshadow="2"
     inkscape:zoom="1.979899"
     inkscape:cx="518.0365"
     inkscape:cy="292.86436"
     inkscape:document-units="px"
     inkscape:current-layer="layer1-0"
     showgrid="false"
     inkscape:window-width="1024"
     inkscape:window-height="705"
     inkscape:window-x="-8"
     inkscape:window-y="-8"
     inkscape:window-maximized="1" />
  <metadata
     id="metadata7">
    <rdf:RDF>
      <cc:Work
         rdf:about="">
        <dc:format>image/svg+xml</dc:format>
        <dc:type
           rdf:resource="http://purl.org/dc/dcmitype/StillImage" />
        <dc:title></dc:title>
      </cc:Work>
    </rdf:RDF>
  </metadata>
  <g
     inkscape:label="Layer 1"
     inkscape:groupmode="layer"
     id="layer1">
    <g
       id="layer1-0"
       inkscape:label="Layer 1"
       transform="matrix(1.2622032,0,0,1.1866926,49.933501,210.77762)">
      <path
         inkscape:connector-curvature="0"
         id="path4028"
         d="m 310,570.93363 c 0,0 20,32.85715 50,8.57143 l -1.42857,-2.85714 c 0,0 10,-2.85714 -1.42857,-45.71429 0,0 -34.28572,-67.14285 -65.71429,-75.71428 C 295.71429,422.3622 264.28571,310.93363 264.28571,310.93363 261.42857,215.21935 250,189.50506 250,189.50506"
         style="fill:none;fill-rule:evenodd;stroke:#000000;stroke-width:1px;stroke-linecap:butt;stroke-linejoin:miter;stroke-opacity:1" />
      <path
         inkscape:connector-curvature="0"
         id="path4034"
         d="m 263.71352,298.80555 c 24.28571,17.14286 50.57219,6.4138 50.57219,6.4138 l -1.42857,0 c 22.85715,40 57.41909,106.72447 57.41909,106.72447 2.85714,47.14285 16.82557,70.28929 16.82557,70.28929"
         style="fill:none;fill-rule:evenodd;stroke:#000000;stroke-width:1px;stroke-linecap:butt;stroke-linejoin:miter;stroke-opacity:1"
         sodipodi:nodetypes="ccccc" />
      <path
         inkscape:connector-curvature="0"
         id="path4036"
         d="M 252.85714,200.93363 C 310,188.07649 371.42857,215.21935 371.42857,215.21935 l 0,1.42857 c 35.71429,20 60.86976,149.35687 60.86976,149.35687"
         style="fill:none;fill-rule:evenodd;stroke:#000000;stroke-width:1px;stroke-linecap:butt;stroke-linejoin:miter;stroke-opacity:1"
         sodipodi:nodetypes="cccc" />
      <path
         sodipodi:nodetypes="cc"
         inkscape:connector-curvature="0"
         id="path4038"
         d="m 431.28818,360.1441 c 5.03666,62.26271 5.47646,102.71564 4.72995,101.54543"
         style="fill:none;fill-rule:evenodd;stroke:#000000;stroke-width:1px;stroke-linecap:butt;stroke-linejoin:miter;stroke-opacity:1" />
      <path
         sodipodi:nodetypes="ccc"
         inkscape:connector-curvature="0"
         id="path4040"
         d="m 386.09165,481.4027 c 60.94472,32.59958 51.42314,-19.72692 51.32167,-20.27121 l -2.63038,-0.841"
         style="fill:none;fill-rule:evenodd;stroke:#000000;stroke-width:1px;stroke-linecap:butt;stroke-linejoin:miter;stroke-opacity:1" />
      <path
         inkscape:connector-curvature="0"
         id="path4042"
         d="M 310,573.79078 C 262.85714,550.93363 217.14286,456.64792 217.14286,456.64792 191.42857,393.79078 181.42857,319.50506 181.42857,319.50506 l 0,0 c 7.14286,-41.42857 7.14286,-40 7.14286,-40"
         style="fill:none;fill-rule:evenodd;stroke:#000000;stroke-width:1px;stroke-linecap:butt;stroke-linejoin:miter;stroke-opacity:1" />
      <path
         inkscape:connector-curvature="0"
         id="path4044"
         d="M 180,323.79078 C 152.85714,299.50506 152.85714,299.50506 152.85714,299.50506"
         style="fill:none;fill-rule:evenodd;stroke:#000000;stroke-width:1px;stroke-linecap:butt;stroke-linejoin:miter;stroke-opacity:1" />
      <path
         sodipodi:nodetypes="cccccccccccccc"
         inkscape:connector-curvature="0"
         id="path4046"
         d="m 344.28571,205.21935 c -21.19578,-31.3691 -69.40826,-62.85715 -69.40826,-62.85715 -14.54365,-18.19795 -32.41939,-39.12472 -66.30602,-40 l -0.38868,1.01015 c -32.95724,8.90813 -43.27558,35.92738 -49.61132,66.13271 -22.27078,-6.87926 -47.90334,-18.97745 -80.663524,8.60116 -9.888737,22.85942 -20.154086,45.21668 -22.19362,78.5417 -12.59109,12.40787 -22.33537,24.58339 -37.142857,52.85714 -3.301739,18.59249 -6.063551,37.54493 -1.428572,61.42857 C 6.5995226,384.67601 2.6379506,405.00015 2.8571429,429.50506 1.23343,455.38585 6.5018668,469.77972 12.857143,482.3622 l 0,0 C 33.168217,546.57995 98.660897,577.13912 100,578.07649 c 25.71429,8.0345 48.32632,-14.50938 48.32632,-13.95395"
         style="fill:none;fill-rule:evenodd;stroke:#000000;stroke-width:1px;stroke-linecap:butt;stroke-linejoin:miter;stroke-opacity:1" />
      <path
         sodipodi:nodetypes="ccccc"
         inkscape:connector-curvature="0"
         id="path4048"
         d="m 102.85714,329.50506 c 2.30255,93.34076 84.50874,178.09056 87.14286,174.28572 23.41585,4.46665 35.58712,0.49986 48.57143,-2.85715 l 0,-1.42857 2.85714,0"
         style="fill:none;fill-rule:evenodd;stroke:#000000;stroke-width:1px;stroke-linecap:butt;stroke-linejoin:miter;stroke-opacity:1" />
      <path
         sodipodi:nodetypes="ccccc"
         inkscape:connector-curvature="0"
         id="path4050"
         d="m 45.714286,408.07649 c 12.833377,38.46254 24.587692,78.15829 55.714284,95.71429 19.69134,31.98701 29.30955,30.3969 41.42857,37.14285 21.99907,5.98021 31.18158,1.70717 40,-2.85714 14.01679,-0.80678 24.67744,-19.76319 33.44888,-36.30602"
         style="fill:none;fill-rule:evenodd;stroke:#000000;stroke-width:1px;stroke-linecap:butt;stroke-linejoin:miter;stroke-opacity:1" />
      <path
         sodipodi:nodetypes="ccc"
         inkscape:connector-curvature="0"
         id="path4052"
         d="m 145.71429,565.21935 c 19.21347,-13.30444 18.5813,-18.67062 25.71428,-27.14286 l 0,1.42857"
         style="fill:none;fill-rule:evenodd;stroke:#000000;stroke-width:1px;stroke-linecap:butt;stroke-linejoin:miter;stroke-opacity:1" />
      <path
         inkscape:connector-curvature="0"
         id="path4054"
         d="M 4.2857143,420.93363 C 1.4285714,292.3622 0,292.3622 0,292.3622 l 1.4285714,4.28572"
         style="fill:none;fill-rule:evenodd;stroke:#000000;stroke-width:1px;stroke-linecap:butt;stroke-linejoin:miter;stroke-opacity:1" />
      <path
         inkscape:connector-curvature="0"
         id="path4056"
         d="m 215.71429,103.79078 c -1.42858,1.42857 0,0 0,0 z"
         style="fill:none;fill-rule:evenodd;stroke:#000000;stroke-width:1px;stroke-linecap:butt;stroke-linejoin:miter;stroke-opacity:1" />
      <path
         inkscape:connector-curvature="0"
         id="path4058"
         d="M 302.85714,160.93363 Z"
         style="fill:none;fill-rule:evenodd;stroke:#000000;stroke-width:1px;stroke-linecap:butt;stroke-linejoin:miter;stroke-opacity:1" />
      <path
         sodipodi:nodetypes="cccc"
         inkscape:connector-curvature="0"
         id="path4060"
         d="m 271.42857,140.93363 c -31.42857,-72.85714 -30,-74.285712 -30,-74.285712 -39.06937,-18.74969 -73.93525,-30.130435 -128.57142,-42.857142 0,0 -46.666673,-2.701071 -71.428579,5.714285"
         style="fill:none;fill-rule:evenodd;stroke:#000000;stroke-width:1px;stroke-linecap:butt;stroke-linejoin:miter;stroke-opacity:1" />
      <path
         inkscape:connector-curvature="0"
         id="path4062"
         d="m 313.65237,303.83917 c 0,-29.29443 14.64721,-56.56854 14.64721,-56.56854"
         style="fill:none;fill-rule:evenodd;stroke:#000000;stroke-width:1px;stroke-linecap:butt;stroke-linejoin:miter;stroke-opacity:1" />
      <path
         inkscape:connector-curvature="0"
         id="path4064"
         d="m 370.83671,413.80519 c 5.55584,-26.76904 20.70813,-36.87057 20.70813,-36.87057"
         style="fill:none;fill-rule:evenodd;stroke:#000000;stroke-width:1px;stroke-linecap:butt;stroke-linejoin:miter;stroke-opacity:1" />
      <path
         inkscape:connector-curvature="0"
         id="path4066"
         d="m 56.568543,247.27063 c -2.020306,50.50762 7.071067,53.53808 7.071067,53.53808"
         style="fill:none;fill-rule:evenodd;stroke:#000000;stroke-width:1px;stroke-linecap:butt;stroke-linejoin:miter;stroke-opacity:1" />
      <path
         sodipodi:nodetypes="cc"
         inkscape:connector-curvature="0"
         id="path4068"
         d="m 17.172593,362.42802 c -2.020305,17.35237 13.131984,41.58066 13.131984,43.43656"
         style="fill:none;fill-rule:evenodd;stroke:#000000;stroke-width:1px;stroke-linecap:butt;stroke-linejoin:miter;stroke-opacity:1" />
      <path
         sodipodi:nodetypes="cc"
         inkscape:connector-curvature="0"
         id="path4070"
         d="M 44.285714,28.07649 C -18.276484,157.86231 0,300.93363 0,300.93363"
         style="fill:none;fill-rule:evenodd;stroke:#000000;stroke-width:1px;stroke-linecap:butt;stroke-linejoin:miter;stroke-opacity:1" />
      <path
         inkscape:connector-curvature="0"
         id="path4072"
         d="m 329.21461,585.59679 c -2.72514,-0.86837 -8.12742,-4.63682 -12.00503,-8.37435 -3.87761,-3.73752 -7.51816,-6.50627 -8.0901,-6.1528 -1.31371,0.81193 -9.93721,-4.96527 -19.37163,-12.97775 -19.11188,-16.23137 -50.02596,-59.69618 -68.26281,-95.97671 -11.65053,-23.17764 -28.25625,-80.68787 -35.57879,-123.21927 l -3.32038,-19.28572 3.22251,-17.85714 c 3.55614,-19.70588 4.0415,-24.71416 2.09786,-21.64723 -0.6707,1.0583 -2.72033,10.80602 -4.55473,21.6616 l -3.33527,19.7374 -3.82949,-3.09017 c -2.10623,-1.6996 -8.09771,-6.8785 -13.31443,-11.50867 -5.21673,-4.63017 -9.82455,-8.07887 -10.23964,-7.6638 -0.41509,0.41509 5.86803,6.7599 13.96246,14.0996 13.94135,12.64143 14.77943,13.72319 15.89844,20.52094 2.95104,17.92683 11.75871,56.22612 17.44663,75.86492 8.84186,30.52851 16.26211,48.82264 28.39793,70.01313 5.80791,10.14125 10.30147,18.8567 9.98568,19.36764 -0.4978,0.80546 -6.29981,2.31648 -18.91694,4.9266 -2.08481,0.43128 -2.98991,0.133 -2.41569,-0.79613 0.50506,-0.8172 0.27543,-1.48583 -0.51028,-1.48583 -0.78572,0 -1.88036,0.73102 -2.43254,1.62447 -0.68953,1.11569 -4.54526,1.35139 -12.31055,0.75257 -13.59928,-1.0487 -15.0458,-2.01654 -31.09064,-20.80228 -30.40908,-35.60382 -54.82525,-83.34887 -62.90903,-123.01664 -1.56993,-7.70382 -2.89961,-16.7988 -2.95483,-20.21109 -0.0552,-3.4123 -0.70956,-7.48989 -1.45407,-9.06131 -2.04639,-4.31926 -0.43422,17.92262 2.22628,30.71428 8.94497,43.0075 37.62233,96.49469 70.68704,131.84094 9.53537,10.19336 12.50958,11.62068 27.51462,13.20413 l 8.15919,0.86103 -5.30204,8.61894 c -6.61537,10.75388 -14.62389,17.85349 -23.87347,21.164 -3.92858,1.40609 -8.22096,3.00205 -9.53863,3.54658 -1.9481,0.80507 -2.24153,0.36837 -1.57036,-2.33706 0.79964,-3.22326 0.70931,-3.20447 -2.89316,0.60144 -2.04521,2.16072 -4.59548,3.92857 -5.66727,3.92857 -5.81824,0 -19.91891,-3.61365 -27.48219,-7.04301 -11.02166,-4.99746 -17.85314,-11.03549 -26.63697,-23.54322 -3.85658,-5.49157 -8.74638,-11.12242 -10.866233,-12.51304 C 91.662911,495.86884 80.85095,484.57271 75.44311,476.42545 68.574927,466.07809 62.276603,452.04547 54.110231,428.89591 50.368394,418.28877 46.67868,408.96734 45.910867,408.18162 c -2.152979,-2.20317 -0.129343,4.98569 7.026533,24.96139 12.591484,35.14926 24.207447,54.18574 40.724214,66.73973 4.420103,3.35961 10.094646,9.31565 12.610096,13.23564 11.10469,17.30514 30.63509,29.46183 50.36427,31.34917 l 8.95786,0.85693 -7.14077,7.14321 c -11.89972,11.9038 -18.13569,16.66789 -27.85506,21.2804 -12.3893,5.87958 -24.46732,6.08745 -35.000001,0.60238 C 71.149157,561.61829 43.0207,535.60028 28.159493,511.97175 19.369663,497.99638 6.8552759,466.50007 4.764043,453.08988 2.6252855,439.37492 4.189641,409.20964 7.7645212,395.23199 c 2.8051848,-10.96817 6.3870608,-19.19322 8.3583348,-19.19322 0.641167,0 1.980775,2.73214 2.976907,6.07142 2.700503,9.05279 9.961158,24.51328 11.016474,23.45796 0.506841,-0.50684 -1.077006,-5.26901 -3.519661,-10.5826 -6.525098,-14.19426 -8.984498,-24.86913 -9.88274,-42.89538 -1.201146,-24.10506 1.305237,-39.47193 8.521524,-52.24628 8.13386,-14.39864 15.408277,-24.8768 23.000514,-33.13022 l 6.534404,-7.10348 0.05673,5.96806 c 0.09409,9.89929 3.014843,27.94053 5.210903,32.18724 3.481776,6.73302 4.873923,4.41373 1.679593,-2.79815 -2.463472,-5.56182 -3.126553,-10.5365 -3.676356,-27.5814 -0.917401,-28.44113 2.889861,-46.65948 16.25449,-77.78023 4.190726,-9.75849 5.911603,-12.11664 11.749223,-16.10021 17.572169,-11.99117 36.228049,-14.17133 59.379749,-6.93922 6.97607,2.17917 13.16178,3.43411 13.74606,2.78874 0.58425,-0.64537 2.17892,-5.83804 3.5437,-11.53926 4.80554,-20.07476 14.43612,-35.87344 27.23617,-44.68011 7.67444,-5.28015 21.46928,-10.50018 23.84328,-9.0224 0.9923,0.61769 3.0899,0.95929 4.66133,0.7591 4.21504,-0.53696 18.79296,4.83809 26.453,9.75352 3.676,2.35889 10.65223,8.62393 15.50273,13.92232 12.58673,13.74897 12.4424,13.6187 26.86854,24.25408 18.90296,13.93581 36.84942,29.70044 45.73673,40.1763 4.24919,5.00871 7.43923,9.39331 7.08897,9.74356 -0.35025,0.35025 -5.43687,-0.35466 -11.3036,-1.56646 -24.53928,-5.06873 -49.19974,-6.07561 -69.45914,-2.836 -5.42026,0.86673 -5.5281,0.79564 -6.47863,-4.27118 -0.53166,-2.83392 -1.58037,-5.15258 -2.33047,-5.15258 -1.72907,0 -1.83103,-0.85517 1.40814,11.80989 3.82112,14.9404 8.26475,52.19424 10.07273,84.44612 1.37674,24.5591 2.07706,29.1569 7.8333,51.42857 12.22994,47.3192 20.75056,92.72795 20.75056,110.5856 l 0,8.6178 6.78571,3.26765 c 19.6065,9.44147 55.9824,58.67104 61.10845,82.70151 2.91705,13.67489 3.42615,29.24792 1.03441,31.64149 -0.98214,0.9829 -1.78571,2.9738 -1.78571,4.42423 0,1.78555 -2.42195,3.76472 -7.5,6.12891 -8.05039,3.74799 -13.17755,4.15011 -21.02626,1.64911 z"
         style="fill:#ffd5d5" />
      <path
         inkscape:connector-curvature="0"
         id="path4076"
         d="M 4.317279,369.46291 C 3.8282688,356.18678 2.7124433,332.46734 1.8376667,316.75305 -0.61990225,272.60584 -1.1528184,225.85451 0.55935603,204.61019 5.4576938,143.83263 19.459906,85.707413 40.190568,40.095262 l 4.973808,-10.943505 8.788245,-1.669743 c 4.833535,-0.918358 19.716816,-2.019299 33.073959,-2.446537 l 24.28571,-0.776795 25.69477,6.704936 c 39.59615,10.332441 66.26275,19.445097 93.82332,32.061817 8.32703,3.811958 9.7389,5.032881 11.28254,9.756697 0.97045,2.96972 5.91775,15.363777 10.99399,27.542348 5.07626,12.17857 9.58544,23.03868 10.02041,24.13358 0.43496,1.09489 -2.88495,-1.00327 -7.3776,-4.66258 -15.03185,-12.24361 -33.42153,-19.25535 -45.98473,-17.53338 -14.86294,2.0372 -33.17138,16.28763 -41.14711,32.02696 -2.0345,4.01489 -5.3285,12.92255 -7.32,19.79479 -1.99149,6.87225 -3.8427,12.71679 -4.11379,12.98789 -0.2711,0.27108 -6.11435,-1.13615 -12.98501,-3.12719 -23.01055,-6.66819 -41.42991,-4.44672 -58.58797,7.06602 -8.202113,5.50347 -8.807844,6.33708 -14.553213,20.0282 -7.6564,18.24507 -12.737499,35.85888 -14.924636,51.7368 -1.670301,12.12584 -1.979555,12.83788 -9.172938,21.12034 -8.881303,10.22591 -22.26163,30.50371 -27.06369,41.01483 -4.81248,10.53394 -7.4314,34.98468 -5.621247,52.48107 1.204381,11.64116 1.067131,13.56753 -1.224548,17.18698 -1.419527,2.24199 -3.7652444,7.43925 -5.2127042,11.54945 l -2.6317452,7.4731 -0.8891096,-24.13843 z"
         style="fill:#ffd5d5" />
      <path
         style="fill:#ffd5d5"
         d="m 571.97865,793.50123 c -8.48751,-1.37286 -21.2991,-5.71885 -30.39644,-10.31117 -2.72543,-1.37579 -3.07206,-1.75767 -4.89174,-5.38913 -8.25216,-16.46852 -14.86813,-41.58316 -17.50149,-66.43671 -0.84327,-7.95869 -0.84254,-7.99114 0.272,-12.12183 2.73522,-10.13727 6.23685,-18.00358 11.55008,-25.94695 3.05957,-4.57411 8.83433,-10.95778 12.17228,-13.45578 1.36534,-1.02177 1.6261,-1.45418 1.15877,-1.92152 -0.46733,-0.46733 -1.24102,-0.11083 -3.43806,1.58418 -8.25155,6.36602 -16.76387,19.6248 -21.23329,33.07292 -1.01556,3.05571 -1.89373,5.60919 -1.95151,5.6744 -0.0578,0.0652 -1.77182,-2.8895 -3.80898,-6.566 -19.19133,-34.63488 -45.17518,-80.2151 -59.52474,-104.4168 -4.03533,-6.8059 -7.392,-12.82894 -7.45929,-13.38452 -0.0673,-0.55559 -0.14127,-1.18062 -0.16442,-1.38896 -0.0718,-0.64597 -2.60228,-0.41616 -3.31993,0.3015 -0.37417,0.37417 -2.57396,1.05248 -4.88842,1.50736 -18.23768,3.58442 -34.55031,1.52216 -49.29759,-6.23227 l -5.41814,-2.84897 -0.58814,-11.57924 c -1.86033,-36.62608 -5.51423,-70.1397 -10.08621,-92.51096 -2.57646,-12.60691 -2.87175,-11.32621 2.84566,-12.34175 38.01547,-6.7524 88.20473,-1.04884 134.78215,15.31679 3.15433,1.10832 6.0522,2.13679 6.43972,2.2855 0.38751,0.1487 0.70457,0.66831 0.70457,1.15469 0,0.54068 1.22668,1.6398 3.15672,2.82845 4.13605,2.54726 10.96762,9.37294 15.38533,15.37205 17.4336,23.67428 34.88568,67.41178 50.08141,125.51145 6.25827,23.92799 6.98301,27.69752 8.10845,42.17387 2.96487,38.13682 5.08966,78.22497 5.09022,96.03672 1.8e-4,5.65934 -0.13517,6.94272 -0.75739,7.18149 -0.41669,0.1599 -0.75762,0.52514 -0.75762,0.81165 0,0.28651 0.34093,0.52093 0.75762,0.52093 0.41669,0 0.75761,0.36524 0.75761,0.81165 0,0.4886 0.28174,0.70354 0.70785,0.54003 1.02909,-0.3949 1.29892,1.16302 1.29679,7.48715 -0.005,14.73446 -5.43964,23.38812 -16.49694,26.26818 -2.6625,0.69349 -10.11656,0.9244 -13.28689,0.4116 z M 446.71973,568.88507 c 0,-15.77176 6.75869,-41.14713 15.71776,-59.01199 2.67382,-5.33175 2.85022,-5.94383 1.71301,-5.94383 -2.24397,0 -11.90296,24.11389 -15.417,38.48888 -3.0649,12.53766 -4.64597,29.19134 -2.77138,29.19134 0.57979,0 0.75761,-0.63943 0.75761,-2.7244 z"
         id="path3390"
         inkscape:connector-curvature="0"
         transform="matrix(0.79226546,0,0,0.84267821,-39.560588,-177.61771)" />
    </g>
  </g>
</svg>
