<?xml version="1.0" encoding="UTF-8" standalone="no"?>
<!-- Created with Inkscape (http://www.inkscape.org/) -->

<svg
   xmlns:dc="http://purl.org/dc/elements/1.1/"
   xmlns:cc="http://creativecommons.org/ns#"
   xmlns:rdf="http://www.w3.org/1999/02/22-rdf-syntax-ns#"
   xmlns:svg="http://www.w3.org/2000/svg"
   xmlns="http://www.w3.org/2000/svg"
   xmlns:sodipodi="http://sodipodi.sourceforge.net/DTD/sodipodi-0.dtd"
   xmlns:inkscape="http://www.inkscape.org/namespaces/inkscape"
   width="210mm"
   height="297mm"
   viewBox="0 0 744.09448819 1052.3622047"
   id="svg3929"
   version="1.1"
   inkscape:version="0.91 r13725"
   sodipodi:docname="hand2.svg">
  <defs
     id="defs3931" />
  <sodipodi:namedview
     id="base"
     pagecolor="#ffffff"
     bordercolor="#666666"
     borderopacity="1.0"
     inkscape:pageopacity="0.0"
     inkscape:pageshadow="2"
     inkscape:zoom="0.98994949"
     inkscape:cx="337.33657"
     inkscape:cy="619.15894"
     inkscape:document-units="px"
     inkscape:current-layer="layer1"
     showgrid="false"
     inkscape:window-width="1024"
     inkscape:window-height="705"
     inkscape:window-x="-8"
     inkscape:window-y="-8"
     inkscape:window-maximized="1" />
  <metadata
     id="metadata3934">
    <rdf:RDF>
      <cc:Work
         rdf:about="">
        <dc:format>image/svg+xml</dc:format>
        <dc:type
           rdf:resource="http://purl.org/dc/dcmitype/StillImage" />
        <dc:title></dc:title>
      </cc:Work>
    </rdf:RDF>
  </metadata>
  <g
     inkscape:label="Layer 1"
     inkscape:groupmode="layer"
     id="layer1">
    <path
       style="fill:none;fill-rule:evenodd;stroke:#000000;stroke-width:1px;stroke-linecap:butt;stroke-linejoin:miter;stroke-opacity:1"
       d="m 340.35715,497.71935 -41.78572,24.64285 c -32.45244,6.60212 -44.98313,0.2374 -95.71428,35.71429 l -1.42858,1.42857 c -23.22689,-25.49885 -57.18483,-37.10652 -62.85714,-40 -4.59114,-29.21105 -35.71429,-65.71428 -35.71429,-65.71428 0,0 -51.155129,-38.66259 -37.142856,37.14285 19.75323,59.15091 31.819899,83.06309 32.857139,80 0,10.23463 75.543697,61.64231 101.428567,62.85714 50.28775,6.22923 124.40619,-21.96215 122.85715,-24.28571"
       id="path3939"
       inkscape:connector-curvature="0"
       sodipodi:nodetypes="cccccccccc" />
    <path
       style="fill:none;fill-rule:evenodd;stroke:#000000;stroke-width:1px;stroke-linecap:butt;stroke-linejoin:miter;stroke-opacity:1"
       d="m 474.80565,573.54567 0.20793,0.23766 c 3.92449,6.19549 132.82124,-102.64749 148.64347,-159.75766 l 6.34805,-4.63235 c 13.32872,-10.91053 -31.55065,29.04492 2.66641,-1.23782 L 681.124,324.17945 610.28717,170.94597"
       id="path3941"
       inkscape:connector-curvature="0"
       sodipodi:nodetypes="ccccccc" />
    <path
       style="fill:none;fill-rule:evenodd;stroke:#000000;stroke-width:1px;stroke-linecap:butt;stroke-linejoin:miter;stroke-opacity:1"
       d="m 339.16317,498.16315 c 49.24981,-27.48949 49.24981,-27.48949 49.24981,-27.48949 l 17.05616,-4.79078"
       id="path3943"
       inkscape:connector-curvature="0"
       sodipodi:nodetypes="ccc" />
    <path
       style="fill:none;fill-rule:evenodd;stroke:#000000;stroke-width:1px;stroke-linecap:butt;stroke-linejoin:miter;stroke-opacity:1"
       d="M 422.85715,478.07648 C 371.20993,442.16546 375.59003,466.18345 334.21393,436.4746"
       id="path3945"
       inkscape:connector-curvature="0"
       sodipodi:nodetypes="cc" />
    <path
       style="fill:none;fill-rule:evenodd;stroke:#000000;stroke-width:1px;stroke-linecap:butt;stroke-linejoin:miter;stroke-opacity:1"
       d="m 334.28571,436.64792 c -40.11697,-35.83461 -48.09357,-93.35528 -51.18346,-95.20921 -11.76033,-39.7549 2.61204,-63.36222 2.61204,-63.36222 9.50979,-24.3575 36.1327,-8.715 36.1327,-8.715 14.91852,32.11931 21.72221,50.03767 29.28572,69.28572 6.40366,-4.03548 49.29298,44.99207 62.43872,38.00071"
       id="path3947"
       inkscape:connector-curvature="0"
       sodipodi:nodetypes="cccccc" />
    <path
       style="fill:none;fill-rule:evenodd;stroke:#000000;stroke-width:1px;stroke-linecap:butt;stroke-linejoin:miter;stroke-opacity:1"
       d="m 412.85715,376.64792 c 17.56353,17.74916 43.48887,-60.95031 49.84155,-60.49277 C 479.85158,244.99186 565.442,204.8071 565.442,204.8071 l 43.09789,-29.69799 4.23674,-1.95541 c -1.3796,-18.04457 -2.82304,3.27015 -2.82304,3.27015"
       id="path3951"
       inkscape:connector-curvature="0"
       sodipodi:nodetypes="cccccc" />
    <path
       style="fill:none;fill-rule:evenodd;stroke:#000000;stroke-width:1px;stroke-linecap:butt;stroke-linejoin:miter;stroke-opacity:1"
       d="m 248.57143,532.3622 c -53.98818,-65.77526 -57.5,-114.28571 -57.5,-114.28571"
       id="path3953"
       inkscape:connector-curvature="0"
       sodipodi:nodetypes="cc" />
    <path
       style="fill:none;fill-rule:evenodd;stroke:#000000;stroke-width:1px;stroke-linecap:butt;stroke-linejoin:miter;stroke-opacity:1"
       d="m 191.42857,418.07649 c 39.37165,-47.57 71.73185,-61.1434 92.85715,-68.57143 l -20,3.21428 20.07178,-4.35749 -1.18347,-2.96919"
       id="path3955"
       inkscape:connector-curvature="0"
       sodipodi:nodetypes="ccccc" />
    <path
       style="fill:none;fill-rule:evenodd;stroke:#000000;stroke-width:1px;stroke-linecap:butt;stroke-linejoin:miter;stroke-opacity:1"
       d="m 225.71428,382.3622 c 2.69004,-38.61802 8.59159,-50.49606 14.45903,-62.85714 23.15885,-6.60078 -3.24205,-3.90072 37.45976,-11.25525"
       id="path3957"
       inkscape:connector-curvature="0"
       sodipodi:nodetypes="ccc" />
    <path
       style="fill:none;fill-rule:evenodd;stroke:#000000;stroke-width:1px;stroke-linecap:butt;stroke-linejoin:miter;stroke-opacity:1"
       d="m 282.85714,523.79077 c 2.53096,-17.99523 10.32779,-16.76559 24.28572,-27.14285 L 360,492.3622"
       id="path3959"
       inkscape:connector-curvature="0"
       sodipodi:nodetypes="ccc" />
    <path
       style="fill:none;fill-rule:evenodd;stroke:#000000;stroke-width:1px;stroke-linecap:butt;stroke-linejoin:miter;stroke-opacity:1"
       d="M 302.14286,500.21935 C 306.22678,477.36221 296.38,459.50506 270,436.64792 l 2.85714,5.71428 1.78571,-1.07143 c 17.69143,1.04889 27.66534,-4.73987 33.92858,-18.92857"
       id="path3961"
       inkscape:connector-curvature="0"
       sodipodi:nodetypes="ccccc" />
    <path
       style="fill:none;fill-rule:evenodd;stroke:#000000;stroke-width:1px;stroke-linecap:butt;stroke-linejoin:miter;stroke-opacity:1"
       d="m 272.85714,440.93363 -27.14285,-17.14285 -2.85715,0 -5.71428,-2.85714"
       id="path3963"
       inkscape:connector-curvature="0"
       sodipodi:nodetypes="cccc" />
    <path
       style="fill:none;fill-rule:evenodd;stroke:#000000;stroke-width:1px;stroke-linecap:butt;stroke-linejoin:miter;stroke-opacity:1"
       d="m 333.90935,289.72044 c 47.61303,-12.04086 107.1726,10.4902 107.1726,10.4902 0,0 21.78537,17.12462 14.65337,25.69326"
       id="path3965"
       inkscape:connector-curvature="0"
       sodipodi:nodetypes="ccc" />
    <path
       style="fill:none;fill-rule:evenodd;stroke:#000000;stroke-width:1px;stroke-linecap:butt;stroke-linejoin:miter;stroke-opacity:1"
       d="m 307.14286,425.21935 c 5.66944,19.30813 17.67381,35.4488 38.57143,47.14285 -8.52123,6.71687 -17.94573,12.53047 -22.85715,22.85715"
       id="path3967"
       inkscape:connector-curvature="0"
       sodipodi:nodetypes="ccc" />
    <path
       style="fill:none;fill-rule:evenodd;stroke:#000000;stroke-width:1px;stroke-linecap:butt;stroke-linejoin:miter;stroke-opacity:1"
       d="m 344.28571,470.93363 c 28.57143,-4.28571 27.14286,-5.71428 27.14286,-5.71428"
       id="path3969"
       inkscape:connector-curvature="0" />
    <path
       style="fill:none;fill-rule:evenodd;stroke:#000000;stroke-width:1px;stroke-linecap:butt;stroke-linejoin:miter;stroke-opacity:1"
       d="M 308.21429,423.43364 C 311.07143,417.71935 310,414.14792 310,414.14792"
       id="path3971"
       inkscape:connector-curvature="0"
       sodipodi:nodetypes="cc" />
    <path
       style="fill:none;fill-rule:evenodd;stroke:#000000;stroke-width:1px;stroke-linecap:butt;stroke-linejoin:miter;stroke-opacity:1"
       d="m 342.26541,312.14683 c 21.95809,0.90863 55.40042,1.91878 73.66425,11.91878 15.11561,13.16087 21.63981,11.36466 20.90863,17.83612 l -5.46919,28.61353"
       id="path3973"
       inkscape:connector-curvature="0"
       sodipodi:nodetypes="cccc" />
    <path
       style="fill:none;fill-rule:evenodd;stroke:#000000;stroke-width:1px;stroke-linecap:butt;stroke-linejoin:miter;stroke-opacity:1"
       d="M 321.83766,610.25459 C 350.7386,608.34812 474.99304,573.72321 474.2938,573.72321"
       id="path3975"
       inkscape:connector-curvature="0"
       sodipodi:nodetypes="cc" />
    <path
       style="fill:none;fill-rule:evenodd;stroke:#000000;stroke-width:1px;stroke-linecap:butt;stroke-linejoin:miter;stroke-opacity:1"
       d="M 573.76665,604.86463 Z"
       id="path3977"
       inkscape:connector-curvature="0" />
    <path
       style="fill:none;fill-rule:evenodd;stroke:#000000;stroke-width:1px;stroke-linecap:butt;stroke-linejoin:miter;stroke-opacity:1"
       d="M 657.60931,414.95595 Z"
       id="path3979"
       inkscape:connector-curvature="0" />
    <path
       style="fill:none;fill-rule:evenodd;stroke:#000000;stroke-width:1px;stroke-linecap:butt;stroke-linejoin:miter;stroke-opacity:1"
       d="m 242.25279,319.49218 c -5.05076,-20.20305 21.46882,-38.74295 21.46882,-38.74295 l 1.01015,2.02031 -1.42857,1.42858 c 8.08122,-9.09137 25.77376,-5.71429 25.77376,-5.71429"
       id="path3983"
       inkscape:connector-curvature="0"
       sodipodi:nodetypes="ccccc" />
    <path
       style="fill:none;fill-rule:evenodd;stroke:#000000;stroke-width:1px;stroke-linecap:butt;stroke-linejoin:miter;stroke-opacity:1"
       d="M 328.29958,232.11834 Z"
       id="path3985"
       inkscape:connector-curvature="0" />
    <ellipse
       style="fill:#ffaaaa"
       id="path3989"
       cx="533.26007"
       cy="356.05139"
       rx="31.331833"
       ry="88.346146"
       transform="matrix(0.98586764,-0.16752613,0.3309847,0.94363612,0,0)" />
    <path
       style="fill:#ffd5d5"
       d="m 414.62442,376.96484 c -0.50766,-0.50766 -2.82344,-1.07252 -5.14617,-1.25524 -5.70653,-0.44891 -11.77185,-4.3989 -33.53643,-21.84033 -10.17449,-8.1535 -19.75325,-15.2885 -21.28614,-15.85555 -1.77945,-0.65827 -4.49206,-5.25743 -7.50306,-12.72129 l -4.716,-11.69027 7.49778,0 c 22.22709,0 55.44649,5.76297 63.80996,11.0699 23.98142,15.21707 22.65308,12.99031 19.08105,31.98657 -1.83237,9.74466 -3.0675,12.7983 -6.70881,16.58638 -4.11716,4.28312 -9.2632,5.94881 -11.49218,3.71983 z"
       id="path3991"
       inkscape:connector-curvature="0" />
    <path
       style="fill:#ffd5d5"
       d="m 408.37532,375.16097 c -4.84313,-1.65129 -15.48332,-8.60573 -30.71428,-20.07492 -12.81724,-9.6516 -23.75125,-17.95172 -24.2978,-18.4447 -0.54656,-0.49299 -3.3041,-5.96984 -6.12788,-12.17079 l -5.13415,-11.27445 15.41359,0.87824 c 22.37811,1.27506 45.93585,5.76855 55.4136,10.5698 9.60572,4.86607 18.23621,11.2615 20.1243,14.91266 1.72133,3.32869 1.7151,5.38 -0.0442,14.57524 -2.52161,13.17924 -5.30771,18.77571 -10.74759,21.58878 -5.00987,2.59071 -4.59616,2.60739 -13.88555,-0.55986 z"
       id="path3993"
       inkscape:connector-curvature="0" />
    <path
       style="fill:#ffd5d5"
       d="m 435.62103,355.38787 c 0.50799,-2.94643 1.30951,-7.99569 1.78116,-11.22058 l 0.85755,-5.86344 -11.95139,-8.24507 c -12.89069,-8.89308 -18.2679,-11.24566 -32.69537,-14.30454 -7.2965,-1.54699 -42.13523,-4.97228 -50.88981,-5.00342 -1.58499,-0.006 -9.75779,-18.37612 -8.66256,-19.47135 4.11187,-4.11187 51.99907,-3.99301 70.80943,0.17576 25.37963,5.62466 34.91446,9.17276 41.23216,15.34331 3.31702,3.23975 7.04953,8.03697 8.29447,10.66048 l 2.26352,4.77002 -10.17501,19.25799 c -5.59626,10.59189 -10.53788,19.25798 -10.98139,19.25798 -0.4435,0 -0.39074,-2.41071 0.11725,-5.35714 z"
       id="path3995"
       inkscape:connector-curvature="0" />
    <path
       style="fill:#ffd5d5"
       d="m 242.4495,314.43939 c 0,-5.88028 1.6552,-10.70825 5.79219,-16.89499 3.75606,-5.61707 14.75639,-16.60365 15.46937,-15.45003 0.13034,0.2109 -0.0356,0.68462 -0.3687,1.05272 -0.6055,0.66908 -0.4749,1.42858 0.24565,1.42858 0.21013,0 0.99845,-0.55687 1.75181,-1.23749 3.13067,-2.82837 8.0483,-4.39087 14.87754,-4.7271 2.40625,-0.11847 4.375,-0.10527 4.375,0.0293 0,0.1346 -0.38101,1.00278 -0.84668,1.92928 -2.69632,5.36461 -4.87605,14.72085 -5.77991,24.80956 -0.19502,2.17676 -0.2919,2.41071 -0.9983,2.41071 -1.15752,0 -15.21488,2.7613 -19.30852,3.7928 -3.88853,0.97981 -5.29028,1.57868 -6.63802,2.83597 -1.02923,0.96016 -3.56669,2.14344 -6.51786,3.03942 l -2.05357,0.62347 0,-3.64222 z"
       id="path3997"
       inkscape:connector-curvature="0" />
    <path
       style="fill:#ffd5d5"
       d="m 226.53689,379.72651 c 0.10986,-0.96689 0.36648,-3.68656 0.57027,-6.0437 1.14885,-13.28841 3.50896,-26.73617 6.29929,-35.89286 1.02063,-3.3493 3.97914,-10.81628 5.95881,-15.03945 1.23815,-2.64131 1.32233,-2.73102 2.98275,-3.17854 3.45587,-0.93142 8.17929,-2.97768 9.68171,-4.19426 0.84947,-0.68786 2.53697,-1.56005 3.75,-1.93819 1.72194,-0.5368 15.10003,-3.32434 21.04478,-4.38503 l 0.98214,-0.17524 10e-4,3.11607 c 0.004,9.34354 2.93194,26.33756 5.3347,30.95944 0.92044,1.77054 0.92773,2.3352 0.0301,2.3352 -0.60615,0 2.54216,0.5204 2.74514,1.51786 0.55358,2.72023 -1.97881,2.06273 -12.03978,3.53025 -5.00893,0.73062 -9.22768,1.34011 -9.375,1.35443 -0.14733,0.0143 -0.26786,0.35829 -0.26786,0.76439 0,0.53421 0.1728,0.68819 0.625,0.55693 0.34375,-0.0998 2.63393,-0.2823 5.08928,-0.40559 l 4.46429,-0.22416 -4.82143,2.1137 c -14.56956,6.38733 -28.39478,14.94034 -42.07388,26.02921 l -1.18118,0.95752 0.19975,-1.75798 z"
       id="path3999"
       inkscape:connector-curvature="0"
       sodipodi:nodetypes="csssssssccsssscscscssccc" />
    <path
       style="fill:#ffd5d5"
       d="M 244.34002,525.91495 C 216.77472,490.87098 197.67396,452.9691 192.46689,422.98247 l -0.7315,-4.21262 2.58482,-3.07924 c 5.14501,-6.1291 12.11096,-13.57873 19.24404,-20.58025 20.53199,-20.15333 40.34343,-33.27532 63.97824,-42.37561 3.49223,-1.34464 6.50709,-2.4448 6.69969,-2.4448 0.1926,0 0.35018,-0.32143 0.35018,-0.71428 0,-1.88185 0.73051,-0.0611 2.95985,7.37705 7.56467,25.23963 17.13232,45.27235 29.48235,61.73009 4.04504,5.39045 6.08877,7.74485 11.42948,13.16686 4.30983,4.37544 5.60879,5.43797 11.1467,9.11784 7.41421,4.92666 15.3143,9.05872 21.17924,11.07758 2.32834,0.80147 7.55156,2.19078 11.60715,3.08735 8.81468,1.94866 12.42483,2.95841 17.12185,4.78889 4.5589,1.77665 12.64811,5.7995 12.30395,6.11887 -0.14645,0.13592 -3.27479,1.08462 -6.95184,2.10824 l -6.68556,1.86113 -20.34177,11.35286 -20.34177,11.35286 -11.67852,0.94458 c -6.42318,0.51952 -11.73561,0.88749 -11.80539,0.8177 -0.0698,-0.0698 0.71391,-1.3977 1.74155,-2.95092 3.15831,-4.77362 6.96398,-8.33774 17.89998,-16.76389 2.84212,-2.18985 3.10931,-2.49346 2.55258,-2.90055 -0.55673,-0.40709 -0.49647,-0.47554 0.5756,-0.65391 0.65859,-0.10957 4.17064,-0.68868 7.80457,-1.28692 11.64016,-1.91627 17.04344,-3.32505 17.42102,-4.54214 0.16887,-0.54431 -1.12136,-0.59371 -2.08176,-0.0797 -1.14019,0.61021 -8.2565,2.10385 -17.05936,3.58059 -4.57999,0.76832 -8.46618,1.48282 -8.63599,1.58776 -0.16981,0.10495 -2.20826,-1.08217 -4.5299,-2.63805 -14.80258,-9.92018 -25.18836,-23.09495 -30.59102,-38.80591 -1.10514,-3.21375 -1.18274,-3.67883 -0.74496,-4.46429 2.2909,-4.11023 3.33923,-10.95202 1.62762,-10.6224 -0.42804,0.0824 -0.54619,0.46409 -0.47513,1.5348 0.30033,4.52543 -4.2041,13.1156 -9.4429,18.00806 -5.04703,4.71337 -10.68562,6.76035 -19.41619,7.04868 l -5.17857,0.17102 -2.5,-2.30185 c -2.45991,-2.26493 -3.39286,-2.61801 -3.39286,-1.28405 0,0.37184 -0.0959,0.67607 -0.2131,0.67607 -0.11721,0 -5.42658,-3.29464 -11.79859,-7.32143 -10.06681,-6.3617 -11.77211,-7.32142 -13.00911,-7.32142 -0.95401,0 -2.38006,-0.48089 -4.323,-1.45778 -2.27797,-1.14534 -2.964,-1.35584 -3.20089,-0.98214 -0.16583,0.26159 -0.30398,0.56035 -0.30699,0.66389 -0.003,0.10355 1.36297,0.86694 3.0355,1.69643 2.07438,1.02879 3.5037,1.50817 4.49677,1.50817 1.28318,0 2.97394,0.95892 14.25823,8.08663 10.06246,6.35595 12.89356,8.30668 13.2283,9.11481 0.58334,1.40831 0.87415,1.51224 2.14218,0.76561 l 1.09648,-0.64562 5.60991,5.71428 c 9.97934,10.16503 15.24805,17.69195 18.76608,26.80942 2.48479,6.43968 3.43532,14.62443 2.59911,22.38023 l -0.2977,2.76109 -2.73802,1.67844 c -9.50913,5.82922 -11.70168,7.73587 -13.78521,11.9877 -1.1211,2.2878 -2.18454,5.84183 -2.83435,9.47241 -0.17545,0.98029 -0.10062,1.16071 0.48143,1.16071 0.5183,0 0.74494,-0.33207 0.9141,-1.33928 1.43331,-8.53429 4.64387,-13.3124 11.82556,-17.59938 1.73825,-1.03761 5.15483,-3.18236 7.5924,-4.76612 l 4.43195,-2.87955 18.06805,-1.51123 c 9.93743,-0.83118 18.30912,-1.51457 18.60377,-1.51865 0.29464,-0.004 -0.66965,0.67356 -2.14286,1.50588 -1.47322,0.83232 -3.5625,2.08766 -4.64286,2.78965 -1.08036,0.702 -10.34246,6.20823 -20.58246,12.23607 l -18.61817,10.95973 -3.70326,0.69596 c -2.03679,0.38278 -8.77474,1.4179 -14.97323,2.30027 -13.20716,1.88007 -19.97009,3.22454 -26.13687,5.19603 -2.46124,0.78684 -4.55067,1.43062 -4.64318,1.43062 -0.0925,0 -2.09605,-2.45089 -4.45231,-5.44643 z"
       id="path4001"
       inkscape:connector-curvature="0" />
    <path
       style="fill:#ff5555"
       d="m 303.33819,490.88282 c -0.004,-6.7323 -0.096,-7.92748 -0.84595,-10.95001 -2.79659,-11.27188 -9.24008,-21.56695 -20.89662,-33.38756 l -4.32469,-4.38555 3.75,-0.2083 c 11.50225,-0.6389 18.99076,-4.49189 24.39908,-12.55379 l 1.55096,-2.31194 1.34431,3.65571 c 3.8027,10.34103 9.68907,19.64387 17.22009,27.21467 5.01297,5.03947 12.18996,10.64058 17.18199,13.4093 0.83482,0.46302 1.51786,0.93972 1.51786,1.05936 0,0.11962 -2.18309,1.88368 -4.8513,3.92011 -8.38091,6.39648 -12.74858,10.99093 -16.66854,17.53403 -0.53702,0.89638 -0.66176,0.91948 -8.1399,1.50726 -7.24194,0.56921 -7.66208,0.64301 -9.0499,1.58967 -0.80047,0.54601 -1.61915,1.09882 -1.81931,1.22847 -0.24304,0.15742 -0.3653,-2.27439 -0.36808,-7.32143 z"
       id="path4003"
       inkscape:connector-curvature="0" />
    <path
       style="fill:#ffd5d5"
       d="m 192.97286,631.54762 c -12.95898,-3.07161 -47.61091,-22.1019 -69.49791,-38.16716 -17.65704,-12.96043 -23.2785,-18.99421 -29.879919,-32.07154 -8.200647,-16.24539 -26.364822,-66.85755 -28.099832,-78.29659 -2.594757,-17.10743 -0.656372,-30.28176 5.177753,-35.19085 2.881702,-2.42479 3.861251,-2.66491 9.425864,-2.31058 7.594569,0.48358 17.742377,5.17056 23.136234,10.68596 5.74524,5.87468 21.20903,29.45264 26.37207,40.21002 2.56326,5.34065 5.41689,12.80175 6.34139,16.58022 l 1.6809,6.86993 14.59921,6.91363 c 16.93653,8.02049 31.86134,17.60865 42.16907,27.0907 l 7.27081,6.6884 4.56487,-3.48446 c 6.79152,-5.18409 25.71225,-16.37983 34.28123,-20.28484 11.38053,-5.18627 19.08857,-7.25367 37.70961,-10.11421 9.34395,-1.43541 18.2607,-3.03467 19.81501,-3.55391 1.5543,-0.51925 13.63329,-7.32414 26.84219,-15.122 23.28399,-13.74567 24.19104,-14.17792 29.75141,-14.17792 3.15438,0 5.73523,-0.45457 5.73523,-1.01015 0,-0.55558 -1.70464,-1.01561 -3.78808,-1.02226 -3.55156,-0.0113 -2.9997,-0.45822 8.83884,-7.157 19.69577,-11.14474 25.25646,-13.83593 32.41668,-15.68867 l 6.65781,-1.72272 8.78179,5.72425 c 4.82997,3.14834 8.99343,5.72426 9.2521,5.72426 3.56968,0 -10.57941,-9.69168 -23.68178,-16.22127 -8.5605,-4.26614 -16.9714,-7.07942 -28.64797,-9.58216 -14.31658,-3.06861 -31.48103,-12.8364 -42.27352,-24.05662 -17.29185,-17.97715 -28.87707,-40.43995 -41.23156,-79.94455 -5.20419,-16.64087 -7.13652,-26.76095 -7.13652,-37.37564 0,-14.93522 4.34636,-31.81981 8.19091,-31.81981 2.13551,0 2.60215,-1.62143 0.65357,-2.27096 -0.87182,-0.2906 -0.42425,-1.67745 1.46042,-4.52539 4.93522,-7.45762 16.20323,-9.39466 27.05903,-4.65163 4.14704,1.8119 4.40111,2.21917 11.86819,19.02413 4.19674,9.44492 10.71721,24.84646 14.48995,34.22563 6.61698,16.45006 6.99574,17.11404 10.71213,18.77814 2.11895,0.94881 10.67115,7.3119 19.00491,14.14021 22.13407,18.13567 29.50443,22.8816 37.14432,23.91802 12.20701,1.65597 12.13684,1.6634 16.18369,-1.71409 5.56922,-4.64806 12.64636,-15.68643 23.11042,-36.04583 5.07323,-9.87071 10.30774,-19.41449 11.63226,-21.20839 1.32451,-1.79389 3.53146,-6.70265 4.90434,-10.90833 7.8887,-24.1664 25.01316,-48.06989 49.31914,-68.843 11.58934,-9.90484 31.69453,-23.84812 43.5739,-30.21925 3.88909,-2.08579 14.87204,-9.16798 24.40657,-15.7382 9.53452,-6.57022 17.48947,-11.94461 17.67767,-11.94308 0.18819,0.002 0.36995,6.25185 0.40389,13.8896 0.0901,20.26316 4.8754,41.4971 15.0812,66.91983 9.53381,23.74877 21.31083,43.16394 33.76819,55.66901 9.39649,9.43249 14.61818,12.31943 21.42837,11.84718 2.70497,-0.18757 4.91785,-0.26421 4.91751,-0.17031 -3.4e-4,0.0939 -9.76742,17.14024 -21.7046,37.88072 -19.14989,33.27234 -22.29679,38.18547 -26.74156,41.75059 -6.09868,4.89171 -9.51152,9.17375 -8.79656,11.03691 1.32269,3.44688 -12.55624,26.12049 -27.25243,44.52148 -23.78685,29.78334 -70.65757,75.28936 -101.13071,98.18616 -5.32335,3.99983 -10.85134,7.71577 -12.28443,8.25766 -4.5391,1.71633 -43.75216,12.13877 -80.89244,21.5004 -34.53511,8.70498 -67.57017,15.97987 -72.63351,15.99518 -1.33535,0.004 -4.92299,1.18771 -7.97254,2.63038 -14.44512,6.83363 -48.90237,16.227 -71.92304,19.6069 -16.70293,2.45233 -42.63461,2.625 -52.24174,0.34787 z"
       id="path4018"
       inkscape:connector-curvature="0" />
  </g>
</svg>
