<?xml version="1.0" encoding="UTF-8" standalone="no"?>
<!-- Created with Inkscape (http://www.inkscape.org/) -->

<svg
   xmlns:dc="http://purl.org/dc/elements/1.1/"
   xmlns:cc="http://creativecommons.org/ns#"
   xmlns:rdf="http://www.w3.org/1999/02/22-rdf-syntax-ns#"
   xmlns:svg="http://www.w3.org/2000/svg"
   xmlns="http://www.w3.org/2000/svg"
   xmlns:sodipodi="http://sodipodi.sourceforge.net/DTD/sodipodi-0.dtd"
   xmlns:inkscape="http://www.inkscape.org/namespaces/inkscape"
   width="210mm"
   height="297mm"
   viewBox="0 0 744.09448819 1052.3622047"
   id="svg2"
   version="1.1"
   inkscape:version="0.91 r13725"
   sodipodi:docname="hand_4.svg">
  <defs
     id="defs4" />
  <sodipodi:namedview
     id="base"
     pagecolor="#ffffff"
     bordercolor="#666666"
     borderopacity="1.0"
     inkscape:pageopacity="0.0"
     inkscape:pageshadow="2"
     inkscape:zoom="0.49497475"
     inkscape:cx="449.69589"
     inkscape:cy="342.96241"
     inkscape:document-units="px"
     inkscape:current-layer="layer1"
     showgrid="false"
     inkscape:window-width="1024"
     inkscape:window-height="705"
     inkscape:window-x="-8"
     inkscape:window-y="-8"
     inkscape:window-maximized="1" />
  <metadata
     id="metadata7">
    <rdf:RDF>
      <cc:Work
         rdf:about="">
        <dc:format>image/svg+xml</dc:format>
        <dc:type
           rdf:resource="http://purl.org/dc/dcmitype/StillImage" />
        <dc:title></dc:title>
      </cc:Work>
    </rdf:RDF>
  </metadata>
  <g
     inkscape:label="Layer 1"
     inkscape:groupmode="layer"
     id="layer1">
    <g
       id="layer1-0"
       inkscape:label="Layer 1"
       transform="matrix(1.2622032,0,0,1.1866926,49.933501,210.77762)">
      <path
         inkscape:connector-curvature="0"
         id="path4028"
         d="m 302.37696,542.4992 c 0,0 34.02551,13.6225 64.02551,-10.66322 l 4.9739,-9.66701 c 0,0 10,2.25026 -1.42857,-40.60689 0.70292,-2.24294 -40.19789,-39.76539 -78.51923,-26.34273 C 295.71429,422.3622 264.28571,310.93363 264.28571,310.93363 261.42857,215.21935 250,189.50506 250,189.50506"
         style="fill:none;fill-rule:evenodd;stroke:#000000;stroke-width:1px;stroke-linecap:butt;stroke-linejoin:miter;stroke-opacity:1"
         sodipodi:nodetypes="ccccccc" />
      <path
         inkscape:connector-curvature="0"
         id="path4034"
         d="m 263.71352,298.80555 c 24.28571,17.14286 50.57219,6.4138 50.57219,6.4138 l -1.42857,0 c -6.25203,8.54264 -14.60314,58.18577 -8.20625,81.18746 3.98895,14.33859 0.7223,7.61668 0.7223,7.61668"
         style="fill:none;fill-rule:evenodd;stroke:#000000;stroke-width:1px;stroke-linecap:butt;stroke-linejoin:miter;stroke-opacity:1"
         sodipodi:nodetypes="ccccc" />
      <path
         inkscape:connector-curvature="0"
         id="path4036"
         d="M 252.85714,200.93363 C 310,188.07649 371.42857,215.21935 371.42857,215.21935 l 0,1.42857 c 35.71429,20 -2.4032,211.04991 -2.4032,211.04991"
         style="fill:none;fill-rule:evenodd;stroke:#000000;stroke-width:1px;stroke-linecap:butt;stroke-linejoin:miter;stroke-opacity:1"
         sodipodi:nodetypes="cccc" />
      <path
         sodipodi:nodetypes="cc"
         inkscape:connector-curvature="0"
         id="path4038"
         d="m 287.99241,407.83368 c 0,0 6.54507,-12.46833 18.23407,-12.75881"
         style="fill:none;fill-rule:evenodd;stroke:#000000;stroke-width:1px;stroke-linecap:butt;stroke-linejoin:miter;stroke-opacity:1" />
      <path
         sodipodi:nodetypes="ccc"
         inkscape:connector-curvature="0"
         id="path4040"
         d="m 357.94353,470.87807 c -0.56111,2.17069 0,0 -0.56111,2.17069 l 11.77518,-46.80761"
         style="fill:none;fill-rule:evenodd;stroke:#000000;stroke-width:1px;stroke-linecap:butt;stroke-linejoin:miter;stroke-opacity:1" />
      <path
         inkscape:connector-curvature="0"
         id="path4042"
         d="m 303.41167,542.54446 c -56.98238,1.56263 -88.07906,-81.40385 -86.26881,-85.89654 -25.71429,-62.85714 -35.71429,-137.14286 -35.71429,-137.14286 l 0,0 c 7.14286,-41.42857 7.14286,-40 7.14286,-40"
         style="fill:none;fill-rule:evenodd;stroke:#000000;stroke-width:1px;stroke-linecap:butt;stroke-linejoin:miter;stroke-opacity:1"
         sodipodi:nodetypes="ccccc" />
      <path
         inkscape:connector-curvature="0"
         id="path4044"
         d="M 180,323.79078 C 152.85714,299.50506 152.85714,299.50506 152.85714,299.50506"
         style="fill:none;fill-rule:evenodd;stroke:#000000;stroke-width:1px;stroke-linecap:butt;stroke-linejoin:miter;stroke-opacity:1" />
      <path
         sodipodi:nodetypes="cccccccccccccc"
         inkscape:connector-curvature="0"
         id="path4046"
         d="m 344.28571,205.21935 c -21.19578,-31.3691 -69.40826,-62.85715 -69.40826,-62.85715 -14.54365,-18.19795 -32.41939,-39.12472 -66.30602,-40 l -0.38868,1.01015 c -32.95724,8.90813 -43.27558,35.92738 -49.61132,66.13271 -22.27078,-6.87926 -47.90334,-18.97745 -80.663524,8.60116 -9.888737,22.85942 -20.154086,45.21668 -22.19362,78.5417 -12.59109,12.40787 -22.33537,24.58339 -37.142857,52.85714 -3.301739,18.59249 -6.063551,37.54493 -1.428572,61.42857 C 6.5995226,384.67601 2.6379506,405.00015 2.8571429,429.50506 1.23343,455.38585 6.5018668,469.77972 12.857143,482.3622 l 0,0 C 33.168217,546.57995 98.660897,577.13912 100,578.07649 c 25.71429,8.0345 48.32632,-14.50938 48.32632,-13.95395"
         style="fill:none;fill-rule:evenodd;stroke:#000000;stroke-width:1px;stroke-linecap:butt;stroke-linejoin:miter;stroke-opacity:1" />
      <path
         sodipodi:nodetypes="ccccc"
         inkscape:connector-curvature="0"
         id="path4048"
         d="m 102.85714,329.50506 c 2.30255,93.34076 91.29959,172.07143 93.93371,168.26659 29.55655,5.77294 29.35645,6.63816 41.78058,3.16198 l -8.08353,-2.73567 -1.86427,3.00957"
         style="fill:none;fill-rule:evenodd;stroke:#000000;stroke-width:1px;stroke-linecap:butt;stroke-linejoin:miter;stroke-opacity:1" />
      <path
         sodipodi:nodetypes="ccccc"
         inkscape:connector-curvature="0"
         id="path4050"
         d="m 45.714286,408.07649 c 12.833377,38.46254 24.587692,78.15829 55.714284,95.71429 19.69134,31.98701 29.30955,30.3969 41.42857,37.14285 21.99907,5.98021 31.18158,1.70717 40,-2.85714 14.01679,-0.80678 24.67744,-19.76319 33.44888,-36.30602"
         style="fill:none;fill-rule:evenodd;stroke:#000000;stroke-width:1px;stroke-linecap:butt;stroke-linejoin:miter;stroke-opacity:1" />
      <path
         sodipodi:nodetypes="ccc"
         inkscape:connector-curvature="0"
         id="path4052"
         d="m 145.71429,565.21935 c 19.21347,-13.30444 18.5813,-18.67062 25.71428,-27.14286 l 0,1.42857"
         style="fill:none;fill-rule:evenodd;stroke:#000000;stroke-width:1px;stroke-linecap:butt;stroke-linejoin:miter;stroke-opacity:1" />
      <path
         inkscape:connector-curvature="0"
         id="path4054"
         d="M 4.2857143,420.93363 C 1.4285714,292.3622 0,292.3622 0,292.3622 l 1.4285714,4.28572"
         style="fill:none;fill-rule:evenodd;stroke:#000000;stroke-width:1px;stroke-linecap:butt;stroke-linejoin:miter;stroke-opacity:1" />
      <path
         inkscape:connector-curvature="0"
         id="path4056"
         d="m 215.71429,103.79078 c -1.42858,1.42857 0,0 0,0 z"
         style="fill:none;fill-rule:evenodd;stroke:#000000;stroke-width:1px;stroke-linecap:butt;stroke-linejoin:miter;stroke-opacity:1" />
      <path
         inkscape:connector-curvature="0"
         id="path4058"
         d="M 302.85714,160.93363 Z"
         style="fill:none;fill-rule:evenodd;stroke:#000000;stroke-width:1px;stroke-linecap:butt;stroke-linejoin:miter;stroke-opacity:1" />
      <path
         sodipodi:nodetypes="cccc"
         inkscape:connector-curvature="0"
         id="path4060"
         d="m 271.42857,140.93363 c -31.42857,-72.85714 -30,-74.285712 -30,-74.285712 -39.06937,-18.74969 -73.93525,-30.130435 -128.57142,-42.857142 0,0 -46.666673,-2.701071 -71.428579,5.714285"
         style="fill:none;fill-rule:evenodd;stroke:#000000;stroke-width:1px;stroke-linecap:butt;stroke-linejoin:miter;stroke-opacity:1" />
      <path
         inkscape:connector-curvature="0"
         id="path4062"
         d="m 313.65237,303.83917 c 15.79037,-9.14028 0,0 33.85463,-25.92413"
         style="fill:none;fill-rule:evenodd;stroke:#000000;stroke-width:1px;stroke-linecap:butt;stroke-linejoin:miter;stroke-opacity:1"
         sodipodi:nodetypes="cc" />
      <path
         inkscape:connector-curvature="0"
         id="path4064"
         d="m 306.81199,395.07805 c 29.38211,-15.90802 49.18744,6.99911 46.31801,5.69111"
         style="fill:none;fill-rule:evenodd;stroke:#000000;stroke-width:1px;stroke-linecap:butt;stroke-linejoin:miter;stroke-opacity:1"
         sodipodi:nodetypes="cc" />
      <path
         inkscape:connector-curvature="0"
         id="path4066"
         d="m 56.568543,247.27063 c -2.020306,50.50762 7.071067,53.53808 7.071067,53.53808"
         style="fill:none;fill-rule:evenodd;stroke:#000000;stroke-width:1px;stroke-linecap:butt;stroke-linejoin:miter;stroke-opacity:1" />
      <path
         sodipodi:nodetypes="cc"
         inkscape:connector-curvature="0"
         id="path4068"
         d="m 17.172593,362.42802 c -2.020305,17.35237 13.131984,41.58066 13.131984,43.43656"
         style="fill:none;fill-rule:evenodd;stroke:#000000;stroke-width:1px;stroke-linecap:butt;stroke-linejoin:miter;stroke-opacity:1" />
      <path
         sodipodi:nodetypes="cc"
         inkscape:connector-curvature="0"
         id="path4070"
         d="M 44.285714,28.07649 C -18.276484,157.86231 0,300.93363 0,300.93363"
         style="fill:none;fill-rule:evenodd;stroke:#000000;stroke-width:1px;stroke-linecap:butt;stroke-linejoin:miter;stroke-opacity:1" />
      <path
         inkscape:connector-curvature="0"
         id="path4076"
         d="M 4.317279,369.46291 C 3.8282688,356.18678 2.7124433,332.46734 1.8376667,316.75305 -0.61990225,272.60584 -1.1528184,225.85451 0.55935603,204.61019 5.4576938,143.83263 19.459906,85.707413 40.190568,40.095262 l 4.973808,-10.943505 8.788245,-1.669743 c 4.833535,-0.918358 19.716816,-2.019299 33.073959,-2.446537 l 24.28571,-0.776795 25.69477,6.704936 c 39.59615,10.332441 66.26275,19.445097 93.82332,32.061817 8.32703,3.811958 9.7389,5.032881 11.28254,9.756697 0.97045,2.96972 5.91775,15.363777 10.99399,27.542348 5.07626,12.17857 9.58544,23.03868 10.02041,24.13358 0.43496,1.09489 -2.88495,-1.00327 -7.3776,-4.66258 -15.03185,-12.24361 -33.42153,-19.25535 -45.98473,-17.53338 -14.86294,2.0372 -33.17138,16.28763 -41.14711,32.02696 -2.0345,4.01489 -5.3285,12.92255 -7.32,19.79479 -1.99149,6.87225 -3.8427,12.71679 -4.11379,12.98789 -0.2711,0.27108 -6.11435,-1.13615 -12.98501,-3.12719 -23.01055,-6.66819 -41.42991,-4.44672 -58.58797,7.06602 -8.202113,5.50347 -8.807844,6.33708 -14.553213,20.0282 -7.6564,18.24507 -12.737499,35.85888 -14.924636,51.7368 -1.670301,12.12584 -1.979555,12.83788 -9.172938,21.12034 -8.881303,10.22591 -22.26163,30.50371 -27.06369,41.01483 -4.81248,10.53394 -7.4314,34.98468 -5.621247,52.48107 1.204381,11.64116 1.067131,13.56753 -1.224548,17.18698 -1.419527,2.24199 -3.7652444,7.43925 -5.2127042,11.54945 l -2.6317452,7.4731 -0.8891096,-24.13843 z"
         style="fill:#ffd5d5" />
      <path
         style="fill:#ffaaaa"
         d="M 167.46235,890.2919 C 121.92889,866.55824 87.705454,830.04371 67.981268,784.15109 c -12.617644,-29.3577 -13.322723,-33.38754 -11.7771,-67.31111 1.363651,-29.92961 5.497498,-50.00593 12.049113,-58.51737 2.583902,-3.35684 2.860452,-3.24397 4.094012,1.67093 2.173993,8.66188 13.694834,33.24382 15.580413,33.24382 2.500461,0 2.479587,-0.0643 -5.443058,-16.74706 -10.879658,-22.90947 -14.206686,-49.64704 -10.282084,-82.63167 1.318427,-11.08083 3.49234,-16.67743 12.066929,-31.06558 5.752334,-9.65239 15.913607,-23.51039 22.580617,-30.79553 l 12.12183,-13.24571 1.18416,17.03717 c 1.3647,19.63468 4.922,32.18946 9.12062,32.18946 2.45777,0 2.40578,-0.78535 -0.32823,-4.95797 -1.87445,-2.86077 -4.20154,-13.54473 -5.50147,-25.25791 -3.62835,-32.69376 3.17268,-66.43182 20.40536,-101.22551 6.50114,-13.12616 8.85242,-15.86982 18.55612,-21.65276 6.11142,-3.64212 14.74823,-7.64929 19.1929,-8.90482 12.56488,-3.54933 32.77844,-2.63285 50.16901,2.27465 8.7031,2.45596 16.94738,4.03423 18.32061,3.50727 1.37323,-0.52696 3.59695,-5.87416 4.94158,-11.88267 7.1494,-31.94682 24.95049,-53.38597 52.35493,-63.05482 19.60175,-6.9159 51.84509,5.59208 73.16404,28.3821 6.63426,7.09204 20.04185,18.46371 29.79467,25.27038 9.7528,6.80666 22.27807,16.04849 27.83391,20.5374 11.95572,9.65976 41.41625,38.11142 41.41625,39.99795 0,0.72376 -5.9913,0.06 -13.31397,-1.47491 -16.04971,-3.3643 -55.45863,-7.00814 -63.05162,-5.8299 -3.00123,0.46572 -11.49905,1.35886 -18.88406,1.98476 l -13.42731,1.13801 -2.23916,-6.4233 c -4.0653,-11.6617 -4.31715,-4.69082 -0.38588,10.6803 5.08739,19.89153 9.76017,57.54234 12.2506,98.70901 1.1242,18.58286 3.40699,37.80538 5.15837,43.43656 12.35336,39.71978 28.44711,114.19772 30.52881,141.27993 l 1.29853,16.89329 15.59791,-1.06911 c 9.34817,-0.64074 19.96097,-0.0501 26.48714,1.4739 9.94251,2.32189 34.76297,13.33702 40.74402,18.08189 14.4249,11.44351 15.69365,13.30819 18.63705,27.39091 4.38306,20.97077 3.9098,25.90211 -3.49387,36.40576 -4.77564,6.77525 -10.03197,10.97975 -19.64824,15.71644 -12.14815,5.98382 -14.64056,6.46402 -33.38117,6.43158 -45.6972,-0.0792 -68.72593,-7.89079 -93.18837,-31.61069 -8.22123,-7.97168 -14.9477,-15.20261 -14.9477,-16.06876 0,-0.86612 -2.22979,-3.98077 -4.9551,-6.92142 -5.64182,-6.08762 -23.32917,-40.68901 -23.32917,-45.63835 0,-1.79777 -2.15566,-8.15474 -4.79038,-14.12664 -15.16201,-34.3666 -39.65633,-127.80163 -39.65633,-151.27141 0,-6.41985 2.63589,-22.52552 7.19122,-43.93942 0.53184,-2.50012 0.14788,-4.54568 -0.85324,-4.54568 -1.00114,0 -3.37098,8.86409 -5.26635,19.69797 -1.89537,10.83389 -4.05982,22.24695 -4.80992,25.36239 l -1.36383,5.66439 -15.64661,-13.40392 c -8.60565,-7.37217 -16.57218,-13.09542 -17.70342,-12.71835 -1.13124,0.37709 6.50166,7.81564 16.96198,16.53012 17.12096,14.26343 19.15005,16.68093 20.33438,24.22653 4.89756,31.20375 20.15232,88.05502 33.51845,124.91625 13.91186,38.36626 16.50335,44.67527 23.08556,56.20184 6.14404,10.75921 6.22786,11.22637 2.64254,14.72733 -3.52177,3.43891 -4.66179,3.45339 -23.32062,0.29636 -10.78982,-1.8256 -20.98156,-4.33125 -22.64831,-5.56808 -12.84199,-9.52956 -30.6072,-26.74896 -43.74157,-42.39772 -37.04582,-44.13764 -59.42083,-87.97723 -65.38572,-128.11092 -3.63486,-24.45646 -6.14179,-30.65914 -4.888,-12.09397 2.26421,33.52672 21.62603,80.53732 48.81459,118.52207 16.39639,22.90717 55.67399,63.48784 65.35162,67.51977 3.80609,1.58567 11.23855,3.52739 16.5166,4.31488 5.27805,0.7875 9.59645,1.88818 9.59645,2.44595 0,2.04378 -18.03529,28.07195 -21.83275,31.50861 -2.15387,1.94924 -8.35043,5.21593 -13.77014,7.25932 -5.41969,2.0434 -11.44497,4.3775 -13.38951,5.18688 -2.61771,1.08957 -3.55299,0.49766 -3.60275,-2.2801 -0.0592,-3.30863 -0.54211,-3.18146 -4.08837,1.0768 -3.71112,4.45619 -4.99112,4.72735 -16.60031,3.51656 -19.75439,-2.0603 -38.71057,-12.10316 -52.07728,-27.59019 -6.05522,-7.01573 -14.11897,-15.55617 -17.91945,-18.97873 -25.13077,-22.63176 -34.07384,-33.40158 -43.11727,-51.92467 -5.08798,-10.42136 -12.67529,-28.49387 -16.86068,-40.16114 -8.36094,-23.30702 -8.39308,-23.37723 -9.97687,-21.79343 -1.56199,1.56198 14.37934,44.29493 22.82642,61.18938 10.16066,20.32171 22.01753,36.46972 33.47905,45.5955 5.4865,4.36843 10.56218,7.94259 11.27928,7.94259 0.71711,0 5.80494,5.95887 11.30629,13.24193 5.50136,7.28306 12.98985,15.52051 16.6411,18.30546 10.63513,8.1118 28.81405,15.2311 42.49615,16.64246 12.61559,1.30138 12.66111,1.32908 9.52208,5.79593 -5.53982,7.88319 -32.79516,26.95132 -44.30631,30.99716 -16.68499,5.8643 -26.77145,5.13261 -42.53863,-3.08579 z"
         id="path3436"
         inkscape:connector-curvature="0"
         transform="matrix(0.79226546,0,0,0.84267821,-39.560588,-177.61771)" />
      <path
         style="fill:#ffd5d5"
         d="m 490.70808,760.76054 c -15.92706,-9.51323 -32.84736,-13.90635 -53.03301,-13.76925 l -18.68782,0.12688 0,-10.69546 c 0,-5.8825 -1.04314,-17.70904 -2.31809,-26.28122 l -2.3181,-15.58574 6.07333,-5.42652 c 7.40695,-6.6181 31.01891,-14.09064 44.33335,-14.03029 9.67404,0.0438 25.16914,5.52422 27.84063,9.84678 0.75825,1.22687 2.34543,2.23068 3.52708,2.23068 3.75244,0 -2.72396,-6.15074 -10.83159,-10.28695 -13.34279,-6.80697 -28.26257,-7.00377 -44.96842,-0.59314 -4.35921,1.67279 -7.96608,-23.04043 -6.53729,-44.79165 1.33687,-20.35196 6.27312,-45.15747 10.72002,-53.86992 1.54284,-3.02277 4.70192,-6.51105 7.02016,-7.75174 7.21529,-3.86147 38.43542,-28.57613 37.40267,-29.60888 -0.53873,-0.53874 -6.96711,3.42878 -14.28528,8.81671 -33.2208,24.4585 -33.21576,24.45555 -44.16926,25.8241 -11.44393,1.42982 -26.07966,-0.94366 -38.06102,-6.17239 l -7.37891,-3.22019 -1.31214,-18.46993 c -2.16344,-30.45293 -5.1466,-57.81452 -8.37821,-76.84506 -2.22884,-13.12535 -2.44916,-18.57122 -0.81733,-20.20305 1.45933,-1.45933 13.93371,-2.21006 35.97312,-2.16493 36.61537,0.075 52.28661,2.43411 87.60609,13.18804 33.08675,10.07413 37.09614,19.04743 36.95474,82.70736 -0.0987,44.44634 -2.86976,72.13522 -13.20325,131.93009 -5.83072,33.73954 -19.60955,90.47807 -21.88377,90.11304 -0.65256,-0.10476 -4.82303,-2.36257 -9.2677,-5.01737 z"
         id="path3438"
         inkscape:connector-curvature="0"
         transform="matrix(0.79226546,0,0,0.84267821,-39.560588,-177.61771)" />
      <path
         style="fill:#ffd5d5"
         d="m 179.14883,894.40263 c -27.37417,-8.70111 -70.05505,-44.03966 -91.387569,-75.66628 -9.20513,-13.6471 -21.652417,-38.9845 -27.411638,-55.79847 -4.061946,-11.85878 -4.497235,-49.25944 -0.85824,-73.74113 2.395705,-16.11735 9.719783,-35.55798 11.41697,-30.30458 2.74496,8.49664 15.590108,34.34519 17.06745,34.34519 2.546031,0 2.235811,-1.1363 -4.500141,-16.48357 -9.581537,-21.83065 -12.556677,-39.25018 -11.376887,-66.61202 1.099834,-25.50745 3.598497,-33.71593 15.73516,-51.69242 10.119923,-14.98935 28.386575,-37.33233 29.561075,-36.15783 0.58094,0.58093 1.80928,8.52602 2.72965,17.65576 1.84725,18.32392 4.99541,28.03116 9.09082,28.03116 2.10517,0 1.95472,-1.63002 -0.69926,-7.57614 -2.68168,-6.00819 -3.39206,-14.05704 -3.43244,-38.89087 -0.0561,-34.50208 1.69685,-43.36812 14.57626,-73.72352 9.06976,-21.37644 13.8867,-27.25625 28.87304,-35.24389 16.25024,-8.66128 31.31389,-10.06319 54.65871,-5.08685 29.05437,6.19343 27.6072,6.77571 34.34718,-13.82002 9.07414,-27.72836 21.99122,-43.46554 43.91489,-53.50252 21.95207,-10.04999 48.23585,-1.88333 76.30143,23.7077 8.78798,8.01314 27.79693,23.51158 42.24211,34.44099 29.74433,22.50493 61.96078,53.73732 53.53809,51.90276 -26.43881,-5.75867 -77.59639,-8.37057 -95.01352,-4.851 -6.67775,1.34941 -7.28451,1.03213 -9.56131,-4.99982 -3.92277,-10.39259 -4.96715,-5.22585 -1.76115,8.71275 4.65263,20.22801 9.02988,53.98025 12.47628,96.20222 1.74597,21.3901 4.47174,43.66397 6.05728,49.49748 16.93931,62.32336 30.93715,131.16677 31.19444,153.41871 0.0345,2.97896 2.66391,3.40769 20.74756,3.38286 22.16642,-0.0305 28.42202,1.50493 49.51677,12.15353 18.55337,9.36571 26.20932,16.95721 29.89819,29.64652 8.05803,27.71863 2.18605,42.84061 -21.4138,55.14666 l -13.04937,6.80453 -29.29443,-1.03891 c -30.99641,-1.09928 -44.95251,-4.03396 -59.70203,-12.55403 -19.90059,-11.49564 -40.89199,-33.90585 -54.16382,-57.82475 -16.89686,-30.4521 -45.56373,-122.02034 -54.69668,-174.71313 -3.02705,-17.46465 -2.98179,-19.6287 0.8835,-42.23822 2.24072,-13.10673 3.63596,-24.26849 3.10054,-24.80391 -1.71809,-1.71809 -4.97779,9.29409 -8.4155,28.42987 -1.84117,10.24883 -3.65061,18.99085 -4.02098,19.42677 -0.37038,0.4359 -5.46852,-3.27887 -11.32924,-8.25505 -5.8607,-4.97617 -13.31969,-10.7722 -16.57551,-12.88005 -10.24852,-6.63502 -3.66551,1.28577 13.52085,16.26851 8.62533,7.51939 16.10741,15.60328 16.62685,17.96421 0.51946,2.36091 3.32297,15.20221 6.23007,28.53622 11.14154,51.10316 34.76521,123.51299 50.52595,154.8691 8.34114,16.59472 6.82241,19.12663 -10.26791,17.11798 -26.43812,-3.10727 -29.91282,-4.62866 -47.15429,-20.64631 -50.12531,-46.5674 -84.53624,-105.43834 -93.21524,-159.47464 -3.16656,-19.71528 -6.80047,-24.2956 -5.2066,-6.56259 1.84046,20.4765 10.01331,46.29589 23.19766,73.28531 14.06399,28.7901 29.24623,50.58642 53.64496,77.01514 24.73211,26.78987 34.84182,34.42224 49.6451,37.47981 6.60654,1.36458 12.01188,3.25815 12.01188,4.20798 0,3.26299 -15.94865,25.20981 -22.05173,30.34522 -7.55147,6.35414 -26.90379,13.19195 -28.00298,9.89436 -0.48215,-1.44639 -2.71052,-0.82727 -6.15999,1.71142 -4.79483,3.52885 -6.77223,3.75393 -17.52643,1.99493 -23.07539,-3.77427 -33.47994,-10.85982 -68.89526,-46.91799 -30.18096,-30.72878 -32.92175,-34.16408 -41.56004,-52.09126 -5.0865,-10.55609 -12.68338,-28.51155 -16.88195,-39.90102 -4.19857,-11.38947 -8.4645,-20.70813 -9.47985,-20.70813 -2.15231,0 -1.33557,3.09878 6.92238,26.26396 13.82686,38.78707 31.24896,67.33534 50.6126,82.93502 6.33502,5.1036 16.7893,15.57789 23.23174,23.2762 13.24563,15.8277 28.85547,25.54953 46.959,29.2461 6.11143,1.2479 13.38453,2.73537 16.16245,3.30548 4.84497,0.99433 4.57536,1.47099 -6.61689,11.69811 -13.08313,11.95498 -36.71642,24.56821 -48.9415,26.12043 -4.44468,0.56433 -11.91229,-0.19173 -16.59471,-1.68003 z"
         id="path3440"
         inkscape:connector-curvature="0"
         transform="matrix(0.79226546,0,0,0.84267821,-39.560588,-177.61771)" />
    </g>
    <path
       style="fill:#ffaaaa"
       d="m 409.98715,675.58581 c -1.84602,-8.62592 -7.99378,-32.95709 -13.66169,-54.06928 -5.66791,-21.11219 -10.70722,-41.75694 -11.19847,-45.87722 l -0.89318,-7.49143 8.79042,4.43005 c 7.18991,3.62346 12.28797,4.43569 27.99976,4.46097 l 19.20933,0.0309 -3.5913,14.14213 c -6.71648,26.44873 -7.98441,66.57063 -2.63627,83.42114 1.14374,3.60362 0.62614,4.46213 -2.69023,4.46213 -2.25855,0 -7.22619,2.73917 -11.03921,6.08704 l -6.93275,6.08704 -3.35641,-15.68349 z"
       id="path3442"
       inkscape:connector-curvature="0" />
  </g>
</svg>
