<?xml version="1.0" encoding="UTF-8" standalone="no"?>
<!-- Created with Inkscape (http://www.inkscape.org/) -->

<svg
   xmlns:dc="http://purl.org/dc/elements/1.1/"
   xmlns:cc="http://creativecommons.org/ns#"
   xmlns:rdf="http://www.w3.org/1999/02/22-rdf-syntax-ns#"
   xmlns:svg="http://www.w3.org/2000/svg"
   xmlns="http://www.w3.org/2000/svg"
   xmlns:sodipodi="http://sodipodi.sourceforge.net/DTD/sodipodi-0.dtd"
   xmlns:inkscape="http://www.inkscape.org/namespaces/inkscape"
   width="744.09448819"
   height="1052.3622047"
   id="svg3089"
   version="1.1"
   inkscape:version="0.91 r13725"
   sodipodi:docname="leishman_stain.svg">
  <defs
     id="defs3091">
    <inkscape:perspective
       sodipodi:type="inkscape:persp3d"
       inkscape:vp_x="0 : 526.18109 : 1"
       inkscape:vp_y="0 : 1000 : 0"
       inkscape:vp_z="744.09448 : 526.18109 : 1"
       inkscape:persp3d-origin="372.04724 : 350.78739 : 1"
       id="perspective3897" />
  </defs>
  <sodipodi:namedview
     id="base"
     pagecolor="#ffffff"
     bordercolor="#666666"
     borderopacity="1.0"
     inkscape:pageopacity="0.0"
     inkscape:pageshadow="2"
     inkscape:zoom="1"
     inkscape:cx="347.6874"
     inkscape:cy="578.33398"
     inkscape:document-units="px"
     inkscape:current-layer="layer1"
     showgrid="false"
     inkscape:window-width="1024"
     inkscape:window-height="705"
     inkscape:window-x="-8"
     inkscape:window-y="-8"
     inkscape:window-maximized="1" />
  <metadata
     id="metadata3094">
    <rdf:RDF>
      <cc:Work
         rdf:about="">
        <dc:format>image/svg+xml</dc:format>
        <dc:type
           rdf:resource="http://purl.org/dc/dcmitype/StillImage" />
        <dc:title></dc:title>
      </cc:Work>
    </rdf:RDF>
  </metadata>
  <g
     inkscape:label="Layer 1"
     inkscape:groupmode="layer"
     id="layer1">
    <rect
       style="fill:#ffffff;stroke:#834b4b;stroke-width:1.05389953;stroke-opacity:1"
       id="rect3119"
       width="83.788765"
       height="128.66441"
       x="357.62094"
       y="193.80009"
       rx="2.0436285"
       ry="128.66441" />
    <path
       style="fill:none;stroke:#000000;stroke-width:1.42539144px;stroke-linecap:butt;stroke-linejoin:miter;stroke-opacity:1"
       d="m 332.03293,124.15802 48.0768,122.89989"
       id="path3121"
       inkscape:connector-curvature="0" />
    <path
       style="fill:none;stroke:#000000;stroke-width:1.12803066px;stroke-linecap:butt;stroke-linejoin:miter;stroke-opacity:1"
       d="m 333.73259,124.92296 129.3607,-1.65566"
       id="path3125"
       inkscape:connector-curvature="0" />
    <path
       style="fill:none;stroke:#000000;stroke-width:1.48504686px;stroke-linecap:butt;stroke-linejoin:miter;stroke-opacity:1"
       d="M 462.91242,123.26436 424.00151,246.523"
       id="path3129"
       inkscape:connector-curvature="0" />
    <path
       style="fill:none;stroke:#000000;stroke-width:0.90472049px;stroke-linecap:butt;stroke-linejoin:miter;stroke-opacity:1"
       d="m 380.52733,247.0657 45.04707,-0.85289"
       id="path3141"
       inkscape:connector-curvature="0" />
    <path
       style="fill:none;stroke:#000000;stroke-width:1px;stroke-linecap:butt;stroke-linejoin:miter;stroke-opacity:1"
       d="m 440,196.6479 52.14286,-5"
       id="path3929"
       inkscape:connector-curvature="0" />
    <path
       style="fill:none;stroke:#000000;stroke-width:1px;stroke-linecap:butt;stroke-linejoin:miter;stroke-opacity:1"
       d="m 447.14286,173.07647 45,17.85714"
       id="path3931"
       inkscape:connector-curvature="0" />
    <rect
       style="fill:#ffffff;stroke:#834b4b;stroke-width:1.06921148;stroke-opacity:1"
       id="rect3937"
       width="294.21655"
       height="119.93044"
       x="256.03461"
       y="539.39679"
       rx="0"
       ry="46.55191" />
    <text
       xml:space="preserve"
       style="font-size:54.65183640000000054px;font-style:normal;font-weight:normal;line-height:125%;letter-spacing:0px;word-spacing:0px;fill:#280b0b;fill-opacity:1;stroke:none;font-family:Sans"
       x="306.63452"
       y="512.12396"
       id="text4001"
       sodipodi:linespacing="125%"
       transform="scale(0.86095988,1.1614943)"><tspan
         sodipodi:role="line"
         x="306.63452"
         y="512.12396"
         id="tspan4007"> GLYCERINE</tspan></text>
    <path
       style="fill:#e6e6e6;stroke:#834b4b;stroke-width:0.71116346;stroke-opacity:1"
       d="m 327.45869,821.29452 c -43.89563,-7.64849 -80.28964,-39.21648 -94.69608,-82.13896 -3.48274,-10.37644 -5.29398,-19.97024 -6.16171,-32.6374 -0.79516,-11.60767 0.40782,-286.57054 0.11966,-285.45712 -12.14543,46.92848 328.90494,15.59929 344.89964,-2.89652 0.24139,-0.27913 2.96694,66.37749 2.96694,146.92492 0,120.44089 -0.17128,147.53269 -0.96446,152.54696 -7.76214,49.07087 -41.25728,87.52369 -87.87487,100.8814 -13.38722,3.83595 -13.13455,3.82487 -85.66649,3.75914 -51.38788,-0.0466 -68.58693,-0.27923 -72.62263,-0.98242 z"
       id="path4063"
       inkscape:connector-curvature="0"
       sodipodi:nodetypes="ssssssssss" />
    <path
       style="fill:#0000ff;stroke:#834b4b;stroke-width:0.25;stroke-opacity:1"
       d=""
       id="path4089"
       inkscape:connector-curvature="0" />
    <path
       style="fill:#0000ff;stroke:#834b4b;stroke-width:0.08838835;stroke-opacity:1"
       d=""
       id="path4099"
       inkscape:connector-curvature="0" />
    <path
       style="fill:#0000ff;stroke:#834b4b;stroke-width:0.02209709;stroke-opacity:1"
       d="m 556.42941,430.86291 c 0.007,-0.007 0.0264,-0.008 0.0424,-0.002 0.0176,0.007 0.0124,0.0123 -0.0134,0.0134 -0.0233,9.6e-4 -0.0363,-0.004 -0.029,-0.0116 z"
       id="path4115"
       inkscape:connector-curvature="0" />
    <path
       style="fill:#0000ff;stroke:#834b4b;stroke-width:0.02209709;stroke-opacity:1"
       d=""
       id="path4117"
       inkscape:connector-curvature="0" />
    <path
       style="fill:#0000ff;stroke:#834b4b;stroke-width:0.02209709;stroke-opacity:1"
       d="m 556.25217,430.79414 c 0.0334,-0.005 0.0881,-0.005 0.12153,0 0.0334,0.005 0.006,0.009 -0.0608,0.009 -0.0669,0 -0.0942,-0.004 -0.0608,-0.009 z"
       id="path4119"
       inkscape:connector-curvature="0" />
    <path
       style="fill:#0000ff;stroke:#834b4b;stroke-width:0.02209709;stroke-opacity:1"
       d="m 555.90966,430.81743 c 0.0152,-0.006 0.0401,-0.006 0.0553,0 0.0152,0.006 0.003,0.0111 -0.0276,0.0111 -0.0304,0 -0.0428,-0.005 -0.0276,-0.0111 z"
       id="path4121"
       inkscape:connector-curvature="0" />
    <path
       style="fill:#0000ff;stroke:#834b4b;stroke-width:0.02209709;stroke-opacity:1"
       d="m 555.6445,430.81743 c 0.0152,-0.006 0.04,-0.006 0.0552,0 0.0152,0.006 0.003,0.0111 -0.0276,0.0111 -0.0304,0 -0.0428,-0.005 -0.0276,-0.0111 z"
       id="path4123"
       inkscape:connector-curvature="0" />
    <path
       style="fill:#0000ff;stroke:#834b4b;stroke-width:0.02209709;stroke-opacity:1"
       d="m 555.46772,430.81743 c 0.0152,-0.006 0.0401,-0.006 0.0553,0 0.0152,0.006 0.003,0.0111 -0.0276,0.0111 -0.0304,0 -0.0428,-0.005 -0.0276,-0.0111 z"
       id="path4125"
       inkscape:connector-curvature="0" />
    <path
       style="fill:#0000ff;stroke:#834b4b;stroke-width:0.02209709;stroke-opacity:1"
       d="m 544.85053,429.4045 c 0.007,-0.007 0.0264,-0.008 0.0424,-0.002 0.0176,0.007 0.0124,0.0123 -0.0133,0.0134 -0.0233,9.6e-4 -0.0363,-0.004 -0.029,-0.0116 z"
       id="path4131"
       inkscape:connector-curvature="0" />
    <path
       style="fill:#b3b3b3;stroke:#834b4b;stroke-width:0.3000001;stroke-miterlimit:4;stroke-opacity:1;stroke-dasharray:none"
       d="m 369.90089,457.79723 c -36.34153,-0.99703 -77.31187,-5.35205 -102.33755,-10.87818 -24.64328,-5.44169 -41.66245,-14.7092 -41.66245,-22.68659 0,-2.93708 11.62042,-13.91661 19.20059,-18.14163 20.48073,-11.41551 51.83365,-19.35655 95.79941,-24.26397 22.13851,-2.47108 88.57606,-3.04306 112,-0.0151 89.54216,11.5749 105.00485,29.42466 106.69387,30.61103 l 10.80613,7.59028 -5.10424,7.26922 c -14.07389,20.04338 -68.41,27.41374 -143.39576,30.19524 -14.575,0.54065 -30.1,0.8924 -34.5,0.78168 -4.4,-0.11072 -12.275,-0.3186 -17.5,-0.46194 z"
       id="path4181"
       inkscape:connector-curvature="0"
       sodipodi:nodetypes="csssssscssscc" />
    <path
       style="fill:#ffffff;stroke:#834b4b;stroke-width:1;stroke-opacity:1"
       d="m 566.40089,415.89782 c -21.99311,-18.55064 -65.81571,-30.79077 -124.82955,-34.86623 -22.13926,-1.52893 -70.57241,-1.29974 -90.67045,0.42905 -29.82232,2.56525 -52.46009,6.33896 -72.78106,12.13259 -20.47112,5.83644 -31.92315,11.08178 -42.21894,19.33741 -3.48553,2.79486 -8.09363,8.08228 -8.3091,7.09966 -0.44442,-2.02672 8.20345,-22.90389 11.8905,-30.27987 8.27646,-16.55709 23.62341,-34.53642 38.4186,-45.00831 13.31162,-9.42183 32.62072,-17.59342 49,-20.73675 4.27733,-0.82085 26.09787,-1.05821 76,-0.8267 l 70,0.32475 9.5,2.66958 c 35.06347,9.85315 62.18528,31.92994 78.1448,63.60881 3.80784,7.5584 10.30684,26.38303 9.69979,28.09588 -0.18952,0.53476 -1.91959,-0.35618 -3.84459,-1.97987 z"
       id="path4183"
       inkscape:connector-curvature="0"
       sodipodi:nodetypes="sssssssssscssss" />
    <text
       xml:space="preserve"
       style="font-size:44.95901489px;font-style:normal;font-weight:normal;line-height:125%;letter-spacing:0px;word-spacing:0px;fill:#000000;fill-opacity:1;stroke:none;font-family:Sans"
       x="926.55701"
       y="620.91595"
       id="text4185"
       sodipodi:linespacing="125%"
       transform="scale(1.1688433,0.85554668)"><tspan
         sodipodi:role="line"
         x="926.55701"
         y="620.91595"
         id="tspan4191"
         style="fill:#000000" /></text>
    <text
       xml:space="preserve"
       style="font-size:40px;font-style:normal;font-weight:normal;line-height:125%;letter-spacing:0px;word-spacing:0px;fill:#000000;fill-opacity:1;stroke:none;font-family:Sans"
       x="510"
       y="353.36218"
       id="text4197"
       sodipodi:linespacing="125%"><tspan
         sodipodi:role="line"
         id="tspan4199"
         x="510"
         y="353.36218" /></text>
    <rect
       style="fill:#f9f9f9;stroke:#834b4b;stroke-width:0.9989869;stroke-opacity:1"
       id="rect3014"
       width="310.00113"
       height="135.72406"
       x="247.99945"
       y="-630.22418"
       ry="5.7757397"
       transform="scale(1,-1)" />
    <path
       style="fill:#e6e6e6;stroke:#060000;stroke-width:0.1;stroke-miterlimit:4;stroke-opacity:1;stroke-dasharray:none"
       d="m 559.64313,410.05065 c -17.1873,-11.67908 -48.55662,-20.58529 -87.3904,-25.70434 -30.43294,-4.01166 -110.38513,-5.49565 -140,-1.8521 -40.28109,4.95583 -87.27471,22.20793 -93.98717,27.16959 -17.24524,12.74721 -12.25124,18.75147 -2.32322,-10.03618 6.57323,-19.05999 31.66938,-49.55037 53.43149,-61.29372 25.88587,-13.96863 26.55323,-14.35046 107.91613,-15.19833 l 72.53723,1.23368 17.71758,4.73444 c 37.70745,10.07608 62.2956,34.94615 76.33782,69.50426 2.79714,6.88384 5.76106,16.84074 5.36424,17.23756 -0.39682,0.39681 -5.54348,-3.03587 -9.6037,-5.79486 z"
       id="path3835"
       inkscape:connector-curvature="0"
       sodipodi:nodetypes="ssssssscssss" />
    <path
       style="fill:#e6e6e6;stroke:#060000;stroke-width:0.1;stroke-miterlimit:4;stroke-opacity:1;stroke-dasharray:none"
       d="m 360.46106,320.58961 c -1.27505,4.18714 -2.58476,-24.49187 -2.06897,-59.25 0.29416,-19.82309 0.15022,-41.1875 1.5144,-63.66667 l 10.29124,26.5 9.54125,23.25 22.84471,-0.375 22.09471,-0.125 6.39796,-20.25 8.64795,-26.5 0.80472,55.625 c 0.40297,27.85465 -0.7993,57.15855 -0.80995,57.25 l -0.98968,8.5 -39.15498,-0.25 c -20.57232,-0.13135 -39.11299,0.45376 -39.11332,-0.58333 z"
       id="path3837"
       inkscape:connector-curvature="0"
       sodipodi:nodetypes="cscccccccsscssc" />
    <path
       style="fill:#e6e6e6;stroke:#060000;stroke-width:2;stroke-opacity:1"
       d=""
       id="path3839"
       inkscape:connector-curvature="0" />
    <path
       style="fill:#e6e6e6;stroke:#060000;stroke-width:0.1;stroke-miterlimit:4;stroke-opacity:1;stroke-dasharray:none"
       d="m 348.03791,159.95394 c -6.88261,-17.72046 -14.00516,-27.32305 -13.66728,-33.1192 0.0968,-1.66087 127.5032,-2.59613 127.49699,-1.50167 -0.004,0.62302 -6.87485,21.08045 -12.37132,38.48559 -5.49646,17.40515 -9.01077,26.45034 -9.74357,27.5 -1.17244,1.67941 -15.40924,1.9907 -37.10049,1.60428 l -42.1005,-0.75 z"
       id="path3841"
       inkscape:connector-curvature="0"
       sodipodi:nodetypes="sscssscs" />
    <path
       style="fill:#e6e6e6;stroke:#060000;stroke-width:2;stroke-opacity:1"
       d=""
       id="path3843"
       inkscape:connector-curvature="0" />
    <path
       style="fill:#e6e6e6;stroke:#060000;stroke-width:0.1;stroke-miterlimit:4;stroke-opacity:1;stroke-dasharray:none"
       d="m 380.26044,244.85492 c -0.96076,-2.475 -6.71071,-15.85738 -11.14693,-28.0052 l -8.64121,-22.41422 38.03909,0.35356 c 33.1691,0.30829 42.05671,-1.82112 41.03857,0.83209 -0.64143,1.67156 -5.31516,17.34803 -9.29883,28.55664 l -6.65772,21.57288 -15.9292,0.0344 c -24.29115,0.0524 -25.45072,4.10111 -27.40377,-0.93011 z"
       id="path3845"
       inkscape:connector-curvature="0"
       sodipodi:nodetypes="sscssscss" />
    <path
       style="fill:#e6e6e6;stroke:#060000;stroke-width:2;stroke-opacity:1"
       d=""
       id="path3847"
       inkscape:connector-curvature="0" />
    <path
       style="fill:#ececec;stroke:#060000;stroke-width:0.35355338;stroke-opacity:1"
       d=""
       id="path3859"
       inkscape:connector-curvature="0" />
    <path
       style="fill:#ececec;stroke:#060000;stroke-width:0.35355338;stroke-opacity:1"
       d=""
       id="path3861"
       inkscape:connector-curvature="0" />
    <path
       style="fill:#ececec;stroke:#060000;stroke-width:0.35355338;stroke-opacity:1"
       d=""
       id="path3863"
       inkscape:connector-curvature="0" />
    <path
       style="fill:#ececec;stroke:#060000;stroke-width:0.35355337999999997;stroke-opacity:1"
       d=""
       id="path3865"
       inkscape:connector-curvature="0" />
    <path
       style="fill:#ffffff;stroke:#060000;stroke-width:0.35355337999999997;stroke-opacity:1"
       d=""
       id="path3871"
       inkscape:connector-curvature="0" />
    <path
       style="fill:#ffffff;stroke:#060000;stroke-width:0.35355338;stroke-opacity:1"
       d=""
       id="path3875"
       inkscape:connector-curvature="0" />
    <path
       style="fill:#cccccc;stroke:#060000;stroke-width:0.03535534000000000;stroke-miterlimit:4;stroke-opacity:1;stroke-dasharray:none"
       d="m 441.47629,194.28704 c 0.25265,-0.82643 1.78385,-5.68099 3.40266,-10.78791 2.74673,-8.66519 2.99236,-9.2699 3.67798,-9.05467 2.21103,0.69407 42.01461,16.71448 41.57011,16.73142 -0.29168,0.0111 -11.24519,1.05375 -24.34113,2.31698 -13.09594,1.26323 -24.02639,2.29678 -24.28989,2.29678 -0.39998,0 -0.40324,-0.2481 -0.0197,-1.5026 z"
       id="path3899"
       inkscape:connector-curvature="0" />
    <path
       style="fill:#cccccc;fill-opacity:1"
       d="m 328.13581,820.17496 c -9.61512,-1.16449 -22.0652,-5.24158 -33.46852,-10.96012 -34.1364,-17.11872 -58.99443,-50.6944 -65.38524,-88.3157 -1.71638,-10.10394 -2.00035,-39.57919 -1.76796,-183.50983 l 0.17331,-107.33889 3.14901,2.64972 c 10.80019,9.08775 34.45552,15.82607 71.82941,20.46091 37.12581,4.60407 73.2238,6.20506 112.59779,4.99385 58.80677,-1.809 97.9561,-6.31191 122.18724,-14.05383 15.96291,-5.10021 22.90078,-9.31808 29.26996,-17.79465 l 3.76446,-5.01003 0.62466,7.7159 c 2.39244,29.55188 3.70064,267.77114 1.57248,286.34296 -3.63338,31.70728 -21.86006,63.05874 -48.1983,82.9052 -9.5644,7.20699 -26.8137,15.82938 -39.29671,19.6432 l -9,2.74969 -70.5,0.18782 c -38.775,0.1033 -73.67322,-0.19649 -77.55159,-0.6662 l 0,0 z M 556.6874,629.2282 c 1.95893,-1.95893 2,-3.33333 2,-66.92857 0,-70.45245 0.24861,-67.24678 -5.31993,-68.59705 -1.19904,-0.29075 -69.77654,-0.40393 -152.39445,-0.25151 -142.66273,0.2632 -150.30414,0.3669 -151.99999,2.06285 -1.67746,1.67754 -1.78563,5.71466 -1.78563,66.64501 0,62.37767 0.0729,64.93984 1.90499,66.96428 l 1.90499,2.10499 151.84501,0 c 150.51168,0 151.86257,-0.0176 153.84501,-2 z"
       id="path3724"
       inkscape:connector-curvature="0" />
    <path
       style="fill:#ececec;fill-opacity:1"
       d="m 354.1874,456.60187 c -38.43441,-2.05115 -80.48598,-7.95591 -99.83705,-14.01883 -14.96957,-4.69014 -27.66295,-12.97193 -27.66295,-18.04867 0,-3.97439 19.76497,-18.75174 29.26058,-21.87677 2.88168,-0.94837 5.57003,-2.22045 5.97411,-2.82685 0.40407,-0.6064 0.74158,-0.73849 0.75,-0.29353 0.008,0.44496 0.57781,0.45761 1.26531,0.0281 0.6875,-0.42949 1.7,-0.8551 2.25,-0.9458 0.55,-0.0907 6.17892,-1.74065 12.50871,-3.66656 27.34346,-8.31956 58.08054,-12.45534 99.49129,-13.38688 35.45069,-0.79748 75.2509,0.929 95.88167,4.15921 29.6744,4.64618 58.53763,12.4006 72.66707,19.52277 7.47144,3.76611 21.95581,13.97536 21.94155,15.46543 -0.0154,1.60724 -6.67977,9.56867 -10.24524,12.23919 -20.19733,15.12768 -72.44866,23.00148 -157.24505,23.69541 -22,0.18003 -43.15,0.15923 -47,-0.0462 l 0,0 z"
       id="path3726"
       inkscape:connector-curvature="0" />
    <path
       style="fill:#b3b3b3;fill-opacity:1"
       d="m 322.79201,818.68814 c -22.68263,-4.94285 -43.97987,-17.16143 -60.89573,-34.93688 -9.89508,-10.3979 -15.47137,-18.62632 -22.26171,-32.84958 -8.17636,-17.12647 -9.8753,-25.29512 -10.95514,-52.67348 -0.50978,-12.925 -0.94153,-78.29131 -0.95945,-145.25847 l -0.0326,-121.75848 2.21133,1.25848 c 1.21623,0.69216 2.83818,1.83578 3.60433,2.54137 2.12406,1.95618 7.89214,4.68727 16.18434,7.66301 4.125,1.4803 7.5,2.61291 7.5,2.51691 0,-0.17392 3.5047,0.62586 13,2.96661 9.29713,2.29191 47.88939,7.60304 57.5,7.91325 0.825,0.0266 7.35,0.49982 14.5,1.05155 32.43013,2.50244 85.90589,1.9374 123,-1.29965 2.75,-0.23998 8.825,-0.71343 13.5,-1.0521 4.675,-0.33867 9.5244,-0.83584 10.77644,-1.10481 1.25204,-0.26897 4.70186,-0.71913 7.66626,-1.00035 2.9644,-0.28122 8.91501,-1.17562 13.22356,-1.98755 4.30856,-0.81194 9.18374,-1.7245 10.83374,-2.02792 1.65,-0.30342 4.8,-1.0201 7,-1.59262 2.2,-0.57252 4.225,-1.05839 4.5,-1.07969 1.61975,-0.12551 14.29529,-4.86631 18.63741,-6.97061 6.24117,-3.02464 7.30691,-3.8395 13.87477,-10.60867 l 5.17125,-5.32974 0.70009,13.32974 c 1.17445,22.36172 2.40221,222.38861 1.558,253.82974 -0.84067,31.3093 -1.15843,33.88282 -5.9492,48.18231 -8.08888,24.14368 -26.03289,48.26783 -45.96738,61.7991 -9.19756,6.24318 -24.74456,13.63609 -39.52494,18.79491 -1.1,0.38394 -35.75,0.78338 -77,0.88766 -60.9406,0.15406 -76.19887,-0.0716 -81.39539,-1.20404 l 0,0 z m 234.5036,-189.93873 c 2.15255,-2.94391 1.62651,-131.33008 -0.54883,-133.95028 -1.35803,-1.63574 -10.16437,-1.71618 -153.59661,-1.40308 -127.13435,0.27753 -152.42787,0.55785 -153.80937,1.7046 -1.50674,1.2507 -1.6534,7.12139 -1.6534,66.1849 0,39.85448 0.37694,65.80386 0.97885,67.38702 l 0.97885,2.57456 153.10183,-0.25946 c 151.24762,-0.25633 153.11935,-0.28343 154.54868,-2.23826 l 0,0 z"
       id="path3728"
       inkscape:connector-curvature="0" />
    <path
       style="fill:#ececec;fill-opacity:1"
       d="m 321.1874,817.74881 c -14.27192,-3.26293 -30.92664,-11.21377 -43.82636,-20.92238 -9.11893,-6.8631 -21.96619,-20.25562 -27.62333,-28.7957 -5.18606,-7.82892 -13.31872,-24.48127 -15.5317,-31.80253 -4.67717,-15.47359 -4.61355,-13.67883 -5.75134,-162.26135 -0.59284,-77.41875 -0.83215,-141.0071 -0.5318,-141.30745 0.30035,-0.30035 2.95774,0.99507 5.90531,2.87871 7.25936,4.63907 22.13778,10.04222 34.85922,12.65925 38.28394,7.87567 89.21129,11.77028 139,10.62986 75.48289,-1.72895 121.27071,-8.09596 145.16428,-20.18577 2.56535,-1.29803 7.35039,-4.84693 10.63342,-7.88644 5.62664,-5.20927 6.0044,-5.39728 6.5834,-3.27659 1.05708,3.87169 2.88113,195.09128 2.29175,240.24978 -0.61306,46.97368 -1.33243,55.65301 -5.69427,68.7029 -6.56661,19.64616 -16.57167,35.57689 -31.90236,50.7971 -12.06586,11.9789 -20.08113,17.189 -39.81154,25.87837 l -12.76468,5.62163 -77.5,0.19618 c -62.63199,0.15854 -78.65107,-0.067 -83.5,-1.17557 l 0,0 z M 556.8877,629.42723 c 1.04001,-1.04102 1.2997,-14.4942 1.2997,-67.33095 0,-64.87455 -0.035,-66.05565 -2,-67.49631 -1.74085,-1.27633 -21.67321,-1.4278 -153.83084,-1.16904 -148.96322,0.29166 -151.85764,0.33393 -153.25,2.2384 -1.19119,1.62932 -1.41697,12.31164 -1.4055,66.5 0.007,35.50738 0.29115,65.59494 0.63032,66.86124 l 0.61667,2.30237 153.31997,-0.30237 c 124.21368,-0.24497 153.56671,-0.54935 154.61968,-1.60334 l 0,0 z"
       id="path3730"
       inkscape:connector-curvature="0" />
    <path
       style="fill:#cccccc;fill-opacity:1"
       d="m 558.37312,408.6626 c -16.84843,-10.19399 -41.23354,-17.74778 -73.68572,-22.82567 -25.17788,-3.93966 -36.80944,-4.66845 -84.5,-5.29443 -46.75719,-0.61372 -62.26866,0.0864 -82.45937,3.72209 -30.97956,5.57836 -75.24919,20.11366 -82.76551,27.17488 -1.24698,1.17147 -2.49062,1.90656 -2.76366,1.63353 -0.78729,-0.7873 6.91482,-19.79039 10.4497,-25.78209 10.27363,-17.414 27.87495,-36.0682 43.62939,-46.2392 7.93553,-5.12315 20.73667,-10.98902 28.08008,-12.86715 11.75435,-3.00625 33.17781,-4.0064 85.82937,-4.00691 61.94202,-6e-4 68.572,0.37144 83.84418,4.70491 35.87063,10.17826 57.29063,27.23299 73.58573,58.58935 5.58335,10.74395 10.61138,23.7641 9.90252,25.6427 -0.18284,0.48455 -4.29886,-1.51886 -9.14671,-4.45201 z"
       id="path3732"
       inkscape:connector-curvature="0" />
    <path
       style="fill:#cccccc;fill-opacity:1"
       d="m 364.44136,320.49997 c -3.05881,-0.32011 -3.88436,-0.8855 -4.5,-3.0819 -0.97064,-3.4629 -0.80965,-104.10295 0.17695,-110.62269 l 0.74647,-4.93281 6.4594,16.43281 c 3.55268,9.03805 7.67527,19.52667 9.16132,23.30804 l 2.7019,6.87521 11.907,-0.62521 c 6.54885,-0.34387 16.89885,-0.62683 23,-0.6288 l 11.093,-0.004 7.14252,-21.74641 7.14253,-21.74642 0.10036,52 c 0.0552,28.6 -0.1865,55.0375 -0.53712,58.75 l -0.6375,6.75 -35.1054,-0.1681 c -19.30796,-0.0925 -36.79111,-0.34452 -38.85143,-0.56013 z"
       id="path3734"
       inkscape:connector-curvature="0" />
    <path
       style="fill:#cccccc;fill-opacity:1"
       d="m 380.06723,242.62943 c -2.26918,-5.38316 -18.37983,-46.62949 -18.37983,-47.05585 0,-0.18996 17.325,-0.34538 38.5,-0.34538 21.175,0 38.5,0.26498 38.5,0.58884 0,0.32387 -3.37507,11.01137 -7.50016,23.75 -4.12509,12.73864 -7.50009,23.72366 -7.5,24.41116 1.2e-4,0.91945 -2.73531,1.25 -10.34428,1.25 -5.68944,0 -15.13397,0.29305 -20.98784,0.65123 l -10.6434,0.65122 -1.64449,-3.90122 0,0 z"
       id="path3736"
       inkscape:connector-curvature="0" />
    <path
       style="fill:#cccccc;fill-opacity:1"
       d="m 363.99859,191.50937 c -3.07606,-0.38466 -3.35451,-0.82977 -7.87577,-12.58996 -5.72577,-14.89326 -10.76101,-26.91693 -16.95834,-40.49498 -2.58658,-5.66707 -4.42985,-10.57679 -4.09616,-10.91048 1.71706,-1.71706 123.37303,-2.86943 125.05473,-1.18457 0.63253,0.63374 -8.3495,29.31147 -16.154,51.57632 -3.62574,10.34357 -5.06671,13.29767 -6.70038,13.73634 -2.30681,0.61941 -68.21005,0.50008 -73.27008,-0.13267 z"
       id="path3738"
       inkscape:connector-curvature="0" />
    <path
       style="fill:#280b0b"
       d="m 336.4874,818.09649 c -15.68091,-0.65173 -18.27961,-1.01804 -25,-3.52401 -18.63485,-6.94876 -31.19093,-14.78458 -44.84426,-27.98577 -12.05414,-11.65496 -17.07456,-18.42929 -24.12893,-32.55851 -6.6469,-13.31309 -9.57605,-21.68079 -11.0267,-31.5 -1.30432,-8.82869 -2.91467,-128.2372 -2.96316,-219.7191 l -0.0369,-69.7191 8.75,4.42978 c 15.04618,7.61729 27.8485,11.0286 57.75,15.38808 32.4951,4.73761 47.43127,5.59181 97.5,5.576 67.16192,-0.0212 105.30522,-3.21877 137.81296,-11.55292 14.34859,-3.67861 24.00564,-8.16697 31.98069,-14.86383 3.4615,-2.90672 6.6115,-4.96711 7,-4.57865 2.19923,2.19907 3.43644,266.00353 1.34341,286.4491 -2.9065,28.39188 -14.84964,51.94159 -37.33086,73.60969 -12.55383,12.09979 -20.17521,17.09888 -38.59766,25.31736 l -11.29146,5.03727 -64.70854,0.46097 c -35.5897,0.25353 -72.58354,0.13367 -82.20854,-0.26636 z m 206.75793,-187.69922 14.25794,-0.57778 0.14542,-2.64565 c 0.08,-1.4551 0.18892,-31.53576 0.24207,-66.84591 0.0775,-51.46284 -0.16142,-64.45814 -1.20406,-65.5 -1.05558,-1.0548 -29.69928,-1.29973 -152,-1.29973 -82.88461,0 -151.98529,0.35825 -153.55707,0.7961 -2.35591,0.6563 -2.77538,1.22703 -2.38867,3.25 0.258,1.34965 0.0815,2.4539 -0.39223,2.4539 -1.24504,0 -1.1094,127.66796 0.13811,129.99896 0.9703,1.81301 5.07527,1.85407 140.75,1.40768 76.86281,-0.25289 146.16663,-0.7198 154.00849,-1.03757 z"
       id="path3864"
       inkscape:connector-curvature="0" />
    <path
       style="fill:#280b0b"
       d="m 328.9874,454.45168 c -29.11296,-2.80344 -57.72265,-7.40489 -72,-11.58014 -15.31585,-4.47895 -29.5,-13.18876 -29.5,-18.11454 0,-4.20584 14.38837,-15.27868 27.83789,-21.42316 16.71144,-7.63472 49.9933,-15.55191 79.3164,-18.86804 29.46137,-3.33177 102.57244,-2.96714 132.34571,0.66004 29.37333,3.57846 66.32169,13.3672 81.5,21.59182 7.02953,3.80906 20,13.04066 20,14.23479 0,0.40421 -2.44995,3.44221 -5.44433,6.7511 -18.09359,19.99407 -71.32203,28.47346 -177.05567,28.20532 -27.64377,-0.0701 -47.9997,-0.5905 -57,-1.45719 z"
       id="path3866"
       inkscape:connector-curvature="0" />
    <text
       xml:space="preserve"
       style="font-style:normal;font-weight:normal;font-size:47.01603317px;line-height:125%;font-family:sans-serif;letter-spacing:0px;word-spacing:0px;fill:#000000;fill-opacity:1;stroke:none;stroke-width:1px;stroke-linecap:butt;stroke-linejoin:miter;stroke-opacity:1"
       x="281.81873"
       y="517.51697"
       id="text3868"
       sodipodi:linespacing="125%"
       transform="scale(0.94032066,1.063467)"><tspan
         sodipodi:role="line"
         id="tspan3870"
         x="281.81873"
         y="517.51697">LEISHMAN'S</tspan><tspan
         sodipodi:role="line"
         x="281.81873"
         y="576.28699"
         id="tspan3872">  STAIN</tspan></text>
    <path
       style="fill:#c83737"
       d="m 326.4874,817.03476 c -10.30796,-0.9232 -15.21673,-2.50806 -29.5,-9.52446 -30.22577,-14.84788 -55.19577,-45.51287 -63.50021,-77.98291 -1.75824,-6.87465 -2.06707,-13.27089 -2.9376,-60.84074 -1.10631,-60.4541 -2.40666,-234.65845 -1.75161,-234.65845 0.2378,0 5.1027,2.23085 10.81089,4.95743 12.06264,5.76187 23.70385,9.0652 43.90034,12.45723 34.93199,5.86689 58.54055,7.55761 105.47819,7.55377 98.2388,-0.008 148.55094,-7.68312 173.29676,-26.43635 3.46321,-2.62454 6.51286,-4.55579 6.77699,-4.29166 1.07556,1.07556 2.6182,167.43126 2.07495,223.75958 -0.63766,66.1176 -0.94647,70.11832 -6.75376,87.49562 -5.75583,17.22332 -16.9578,33.82992 -32.99946,48.92076 -10.70914,10.0744 -17.34143,14.48469 -33.81925,22.48889 l -13.57623,6.59473 -74.5,0.13392 c -40.975,0.0736 -78.325,-0.20866 -83,-0.62736 z m 227,-186.80064 4.5,-0.70592 0,-66.70064 c 0,-53.39358 -0.25934,-66.95986 -1.29992,-68 -1.92322,-1.92239 -305.47678,-1.9222 -307.39999,1.9e-4 -1.04098,1.04055 -1.30009,14.68354 -1.30009,68.45457 l 0,67.15502 2.5,0.77811 c 3.06952,0.95537 296.71678,0.004 303,-0.98133 z"
       id="path3874"
       inkscape:connector-curvature="0" />
    <path
       style="fill:#782121"
       d="m 321.01568,815.96176 c -6.37256,-1.06539 -11.85908,-3.13106 -22.98516,-8.65385 -12.47411,-6.19194 -21.66824,-12.79793 -31.29334,-22.4843 -13.09383,-13.17719 -20.5725,-24.03233 -27.20897,-39.49332 -6.44847,-15.023 -7.07141,-19.11317 -8.0912,-53.1265 -1.04103,-34.72158 -2.55705,-257.17559 -1.75265,-257.17559 0.28784,0 4.30308,1.74625 8.92276,3.88054 18.08498,8.35529 38.65393,12.95403 79.38028,17.74759 17.69383,2.08259 100.24055,3.00934 130.0815,1.46041 60.39886,-3.13506 91.88152,-10.04808 113.93997,-25.01918 l 5.97257,-4.05359 0.80534,2.74212 c 1.36188,4.63714 2.12406,255.23826 0.8356,274.74211 -1.54549,23.39452 -5.00394,35.56973 -14.89372,52.43216 -5.91121,10.07881 -12.29926,17.91224 -23.08715,28.31091 -10.49683,10.11811 -17.8825,15.12106 -34.88873,23.63316 l -12.23463,6.12377 -79.26537,-0.11762 c -43.59596,-0.0647 -81.50265,-0.49166 -84.2371,-0.94882 z m 234.42791,-185.5748 3.21249,-0.6425 -0.33434,-66.80865 c -0.2659,-53.13301 -0.60045,-67.07464 -1.63434,-68.10813 -1.92311,-1.92234 -305.47673,-1.92245 -307.4,-10e-5 -1.03438,1.03388 -1.36617,15.06331 -1.62385,68.66245 -0.30998,64.48024 -0.24579,67.38683 1.5,67.91815 2.53373,0.77112 302.31611,-0.22843 306.28004,-1.02122 z"
       id="path3876"
       inkscape:connector-curvature="0" />
    <path
       style="fill:#782121"
       d="m 332.4874,454.32006 c -22.90153,-1.82565 -60.71855,-7.82619 -74.50947,-11.82264 -14.74541,-4.27305 -29.49053,-12.99194 -29.49053,-17.43795 0,-6.38514 20.99851,-20.06806 40.5,-26.39036 21.23567,-6.88451 53.10712,-12.94105 77,-14.63234 30.61374,-2.16703 102.61507,-0.98164 124.5,2.04971 21.76233,3.01437 50.36076,10.00952 67.07071,16.40544 9.43887,3.61283 28.81666,15.59444 29.72074,18.37683 0.23957,0.7373 -2.24835,3.95059 -5.52872,7.14065 -15.45965,15.03406 -46.18838,22.45497 -107.62366,25.99083 -16.20623,0.93274 -110.82957,1.18153 -121.63907,0.31983 z"
       id="path3878"
       inkscape:connector-curvature="0" />
  </g>
</svg>
