<?xml version="1.0" encoding="UTF-8" standalone="no"?>
<!-- Created with Inkscape (http://www.inkscape.org/) -->

<svg
   xmlns:dc="http://purl.org/dc/elements/1.1/"
   xmlns:cc="http://creativecommons.org/ns#"
   xmlns:rdf="http://www.w3.org/1999/02/22-rdf-syntax-ns#"
   xmlns:svg="http://www.w3.org/2000/svg"
   xmlns="http://www.w3.org/2000/svg"
   xmlns:xlink="http://www.w3.org/1999/xlink"
   xmlns:sodipodi="http://sodipodi.sourceforge.net/DTD/sodipodi-0.dtd"
   xmlns:inkscape="http://www.inkscape.org/namespaces/inkscape"
   width="744.09448819"
   height="1052.3622047"
   id="svg5427"
   version="1.1"
   inkscape:version="0.48.4 r9939"
   sodipodi:docname="MICROSCOPE.svg">
  <defs
     id="defs5429">
    <linearGradient
       inkscape:collect="always"
       id="linearGradient5601">
      <stop
         style="stop-color:#808080;stop-opacity:1;"
         offset="0"
         id="stop5603" />
      <stop
         style="stop-color:#808080;stop-opacity:0;"
         offset="1"
         id="stop5605" />
    </linearGradient>
    <linearGradient
       inkscape:collect="always"
       id="linearGradient5591">
      <stop
         style="stop-color:#333333;stop-opacity:1;"
         offset="0"
         id="stop5593" />
      <stop
         style="stop-color:#333333;stop-opacity:0;"
         offset="1"
         id="stop5595" />
    </linearGradient>
    <linearGradient
       inkscape:collect="always"
       id="linearGradient5583">
      <stop
         style="stop-color:#000000;stop-opacity:1;"
         offset="0"
         id="stop5585" />
      <stop
         style="stop-color:#000000;stop-opacity:0;"
         offset="1"
         id="stop5587" />
    </linearGradient>
    <linearGradient
       inkscape:collect="always"
       id="linearGradient5567">
      <stop
         style="stop-color:#b3b3b3;stop-opacity:1;"
         offset="0"
         id="stop5569" />
      <stop
         style="stop-color:#b3b3b3;stop-opacity:0;"
         offset="1"
         id="stop5571" />
    </linearGradient>
    <linearGradient
       inkscape:collect="always"
       id="linearGradient5547">
      <stop
         style="stop-color:#e6e6e6;stop-opacity:1;"
         offset="0"
         id="stop5549" />
      <stop
         style="stop-color:#e6e6e6;stop-opacity:0;"
         offset="1"
         id="stop5551" />
    </linearGradient>
    <linearGradient
       inkscape:collect="always"
       id="linearGradient5535">
      <stop
         style="stop-color:#cccccc;stop-opacity:1;"
         offset="0"
         id="stop5537" />
      <stop
         style="stop-color:#cccccc;stop-opacity:0;"
         offset="1"
         id="stop5539" />
    </linearGradient>
    <linearGradient
       inkscape:collect="always"
       id="linearGradient5007">
      <stop
         style="stop-color:#cccccc;stop-opacity:1;"
         offset="0"
         id="stop5009" />
      <stop
         style="stop-color:#cccccc;stop-opacity:0;"
         offset="1"
         id="stop5011" />
    </linearGradient>
    <linearGradient
       inkscape:collect="always"
       id="linearGradient4991">
      <stop
         style="stop-color:#000000;stop-opacity:1;"
         offset="0"
         id="stop4993" />
      <stop
         style="stop-color:#000000;stop-opacity:0;"
         offset="1"
         id="stop4995" />
    </linearGradient>
    <linearGradient
       inkscape:collect="always"
       id="linearGradient4983">
      <stop
         style="stop-color:#999999;stop-opacity:1;"
         offset="0"
         id="stop4985" />
      <stop
         style="stop-color:#999999;stop-opacity:0;"
         offset="1"
         id="stop4987" />
    </linearGradient>
    <linearGradient
       inkscape:collect="always"
       id="linearGradient4975">
      <stop
         style="stop-color:#808080;stop-opacity:1;"
         offset="0"
         id="stop4977" />
      <stop
         style="stop-color:#808080;stop-opacity:0;"
         offset="1"
         id="stop4979" />
    </linearGradient>
    <linearGradient
       inkscape:collect="always"
       id="linearGradient4967">
      <stop
         style="stop-color:#b3b3b3;stop-opacity:1;"
         offset="0"
         id="stop4969" />
      <stop
         style="stop-color:#b3b3b3;stop-opacity:0;"
         offset="1"
         id="stop4971" />
    </linearGradient>
    <linearGradient
       inkscape:collect="always"
       id="linearGradient4945">
      <stop
         style="stop-color:#b3b3b3;stop-opacity:1;"
         offset="0"
         id="stop4947" />
      <stop
         style="stop-color:#b3b3b3;stop-opacity:0;"
         offset="1"
         id="stop4949" />
    </linearGradient>
    <linearGradient
       inkscape:collect="always"
       id="linearGradient4053">
      <stop
         style="stop-color:#cccccc;stop-opacity:1;"
         offset="0"
         id="stop4055" />
      <stop
         style="stop-color:#cccccc;stop-opacity:0;"
         offset="1"
         id="stop4057" />
    </linearGradient>
    <inkscape:path-effect
       effect="spiro"
       id="path-effect3984"
       is_visible="true" />
    <linearGradient
       inkscape:collect="always"
       id="linearGradient6154">
      <stop
         style="stop-color:#241c1c;stop-opacity:1;"
         offset="0"
         id="stop6156" />
      <stop
         style="stop-color:#241c1c;stop-opacity:0;"
         offset="1"
         id="stop6158" />
    </linearGradient>
    <linearGradient
       inkscape:collect="always"
       xlink:href="#linearGradient6154"
       id="linearGradient6160"
       x1="299.00516"
       y1="104.8391"
       x2="450.52805"
       y2="76.554825"
       gradientUnits="userSpaceOnUse"
       gradientTransform="matrix(0.80381381,0,0,1.0013633,55.341605,-0.11840957)" />
    <linearGradient
       inkscape:collect="always"
       xlink:href="#linearGradient4053"
       id="linearGradient4059"
       x1="345.99643"
       y1="978.0979"
       x2="350.98865"
       y2="931.57501"
       gradientUnits="userSpaceOnUse" />
    <linearGradient
       inkscape:collect="always"
       xlink:href="#linearGradient4945"
       id="linearGradient4951"
       x1="345.71429"
       y1="326.64789"
       x2="414.28571"
       y2="326.64789"
       gradientUnits="userSpaceOnUse" />
    <linearGradient
       inkscape:collect="always"
       xlink:href="#linearGradient4967"
       id="linearGradient4973"
       x1="343.45187"
       y1="135.64874"
       x2="420.22345"
       y2="145.75027"
       gradientUnits="userSpaceOnUse" />
    <linearGradient
       inkscape:collect="always"
       xlink:href="#linearGradient4975"
       id="linearGradient4981"
       x1="153.54318"
       y1="333.13358"
       x2="209.60666"
       y2="254.34167"
       gradientUnits="userSpaceOnUse" />
    <linearGradient
       inkscape:collect="always"
       xlink:href="#linearGradient4983"
       id="linearGradient4989"
       x1="530.33008"
       y1="321.51682"
       x2="606.59662"
       y2="217.4711"
       gradientUnits="userSpaceOnUse" />
    <linearGradient
       inkscape:collect="always"
       xlink:href="#linearGradient4991"
       id="linearGradient4997"
       x1="359.89914"
       y1="530.25391"
       x2="355.28244"
       y2="594.60309"
       gradientUnits="userSpaceOnUse" />
    <linearGradient
       inkscape:collect="always"
       xlink:href="#linearGradient5007"
       id="linearGradient5013"
       x1="245.46707"
       y1="575.57019"
       x2="213.64726"
       y2="687.19202"
       gradientUnits="userSpaceOnUse" />
    <linearGradient
       inkscape:collect="always"
       xlink:href="#linearGradient5535"
       id="linearGradient5541"
       x1="354.56354"
       y1="631.63367"
       x2="354.56354"
       y2="690.22247"
       gradientUnits="userSpaceOnUse" />
    <linearGradient
       inkscape:collect="always"
       xlink:href="#linearGradient5547"
       id="linearGradient5553"
       x1="356.58386"
       y1="673.55499"
       x2="355.06863"
       y2="668.50421"
       gradientUnits="userSpaceOnUse" />
    <linearGradient
       inkscape:collect="always"
       xlink:href="#linearGradient5567"
       id="linearGradient5573"
       x1="392.94934"
       y1="610.92554"
       x2="406.5864"
       y2="611.4306"
       gradientUnits="userSpaceOnUse" />
    <linearGradient
       inkscape:collect="always"
       xlink:href="#linearGradient5583"
       id="linearGradient5589"
       x1="352.85715"
       y1="798.07648"
       x2="351.42856"
       y2="712.36218"
       gradientUnits="userSpaceOnUse" />
    <linearGradient
       inkscape:collect="always"
       xlink:href="#linearGradient5591"
       id="linearGradient5597"
       x1="367.35168"
       y1="844.56232"
       x2="367.35168"
       y2="788.97772"
       gradientUnits="userSpaceOnUse" />
    <linearGradient
       inkscape:collect="always"
       xlink:href="#linearGradient5601"
       id="linearGradient5607"
       x1="320"
       y1="885.2193"
       x2="444.28571"
       y2="893.79077"
       gradientUnits="userSpaceOnUse" />
  </defs>
  <sodipodi:namedview
     id="base"
     pagecolor="#ffffff"
     bordercolor="#666666"
     borderopacity="1.0"
     inkscape:pageopacity="0.0"
     inkscape:pageshadow="2"
     inkscape:zoom="2.8"
     inkscape:cx="173.96533"
     inkscape:cy="228.83849"
     inkscape:document-units="px"
     inkscape:current-layer="layer1"
     showgrid="false"
     inkscape:window-width="1366"
     inkscape:window-height="716"
     inkscape:window-x="0"
     inkscape:window-y="0"
     inkscape:window-maximized="1"
     inkscape:object-paths="false"
     inkscape:snap-nodes="false"
     showguides="true"
     inkscape:guide-bbox="true" />
  <metadata
     id="metadata5432">
    <rdf:RDF>
      <cc:Work
         rdf:about="">
        <dc:format>image/svg+xml</dc:format>
        <dc:type
           rdf:resource="http://purl.org/dc/dcmitype/StillImage" />
        <dc:title />
      </cc:Work>
    </rdf:RDF>
  </metadata>
  <g
     inkscape:label="Layer 1"
     inkscape:groupmode="layer"
     id="layer1">
    <path
       style="fill:none;stroke:#000000;stroke-width:1;stroke-linecap:butt;stroke-linejoin:miter;stroke-miterlimit:4;stroke-opacity:1;stroke-dasharray:none"
       d="M 291.72244,187.68743 291.47066,84.947569"
       id="path5562"
       inkscape:connector-curvature="0" />
    <path
       style="fill:url(#linearGradient4951);stroke:#000000;stroke-width:1;stroke-linecap:butt;stroke-linejoin:miter;stroke-opacity:1;stroke-miterlimit:4;stroke-dasharray:none;fill-opacity:1"
       d="m 291.60447,159.94643 0,358.9046 139.20369,0 0,-364.87869"
       id="path6108"
       inkscape:connector-curvature="0" />
    <rect
       style="fill:#241c1c;fill-opacity:1;stroke:#000000;stroke-width:0.80769145;stroke-miterlimit:4;stroke-opacity:1;stroke-dasharray:none;stroke-dashoffset:0"
       id="rect6114"
       width="56.760853"
       height="158.93494"
       x="234.11385"
       y="220.91048" />
    <rect
       style="fill:#241c1c;fill-opacity:1;stroke:#000000;stroke-width:0.80046809;stroke-miterlimit:4;stroke-opacity:1;stroke-dasharray:none;stroke-dashoffset:0"
       id="rect6114-3"
       width="56.768074"
       height="156.08501"
       x="430.44424"
       y="221.88647" />
    <path
       style="fill:url(#linearGradient6160);fill-opacity:1;stroke:#000000;stroke-width:1.813;stroke-miterlimit:4;stroke-opacity:1;stroke-dasharray:none;stroke-dashoffset:0"
       d="m 291.96591,117.63152 c 0.43323,-45.057817 0.48297,-45.634066 4.91071,-56.896494 27.75943,-70.6090527 111.1154,-65.5556168 130.99017,7.941249 2.9681,10.97606 3.34751,17.16097 3.27844,53.443315 l -0.0781,41.03078 -4.9501,-11.95367 c -15.21492,-36.74161 -51.26957,-55.48377 -84.59162,-43.97299 -20.73414,7.16241 -37.13454,23.44016 -45.88566,45.54249 l -4.11147,10.38417 0.43766,-45.51885 z"
       id="path6152"
       inkscape:connector-curvature="0" />
    <rect
       style="fill:#ffffff;fill-opacity:1;stroke:#000000;stroke-width:0.78756821;stroke-miterlimit:4;stroke-opacity:1;stroke-dasharray:none;stroke-dashoffset:0"
       id="rect6162"
       width="22.435787"
       height="60.821583"
       x="210.98479"
       y="271.43286" />
    <rect
       style="fill:#ffffff;fill-opacity:1;stroke:#000000;stroke-width:0.78756726;stroke-miterlimit:4;stroke-opacity:1;stroke-dasharray:none;stroke-dashoffset:0"
       id="rect6162-1"
       width="22.435789"
       height="60.821434"
       x="488.6037"
       y="261.33252" />
    <rect
       style="fill:url(#linearGradient4981);fill-opacity:1;stroke:#000000;stroke-width:1;stroke-miterlimit:4;stroke-opacity:1;stroke-dasharray:none;stroke-dashoffset:0"
       id="rect6182"
       width="66.670067"
       height="129.29953"
       x="144.04201"
       y="236.23222"
       ry="32.324883" />
    <rect
       style="fill:url(#linearGradient4989);fill-opacity:1;stroke:#000000;stroke-width:1;stroke-miterlimit:4;stroke-opacity:1;stroke-dasharray:none;stroke-dashoffset:0"
       id="rect6182-6"
       width="66.670067"
       height="129.29953"
       x="510.91034"
       y="230.51794"
       ry="32.324883"
       inkscape:transform-center-x="68.571429"
       inkscape:transform-center-y="-285.71429" />
    <path
       sodipodi:type="arc"
       style="fill:url(#linearGradient4997);fill-rule:evenodd;stroke:#000000;stroke-width:1px;stroke-linecap:butt;stroke-linejoin:miter;stroke-opacity:1;fill-opacity:1"
       id="path3017"
       sodipodi:cx="362.85715"
       sodipodi:cy="553.79077"
       sodipodi:rx="111.42857"
       sodipodi:ry="30"
       d="m 474.28572,553.79077 a 111.42857,30 0 1 1 -222.85715,0 111.42857,30 0 1 1 222.85715,0 z"
       transform="matrix(1.4222213,0,0,0.99682212,-155.77746,-19.66869)" />
    <path
       sodipodi:type="arc"
       style="fill:#000000;fill-rule:evenodd;stroke:#000000;stroke-width:1px;stroke-linecap:butt;stroke-linejoin:miter;stroke-opacity:1"
       id="path3017-7"
       sodipodi:cx="362.85715"
       sodipodi:cy="553.79077"
       sodipodi:rx="111.42857"
       sodipodi:ry="30"
       d="m 474.28572,553.79077 a 111.42857,30 0 1 1 -222.85715,0 111.42857,30 0 1 1 222.85715,0 z"
       transform="matrix(1.4222213,0,0,0.99682212,-155.10574,-2.0397082)" />
    <path
       sodipodi:type="arc"
       style="fill:#ffffff;fill-rule:evenodd;stroke:#000000;stroke-width:1px;stroke-linecap:butt;stroke-linejoin:miter;stroke-opacity:1"
       id="path3034"
       sodipodi:cx="468.71078"
       sodipodi:cy="554.35699"
       sodipodi:rx="40.406101"
       sodipodi:ry="5.0507627"
       d="m 509.11689,554.35699 a 40.406101,5.0507627 0 1 1 -80.81221,0 40.406101,5.0507627 0 1 1 80.81221,0 z"
       transform="matrix(0.98465267,0.17452537,-0.17452537,0.98465267,92.542995,-79.393751)" />
    <path
       sodipodi:type="arc"
       style="fill:#ffffff"
       id="path3804"
       sodipodi:cx="407.59656"
       sodipodi:cy="554.10443"
       sodipodi:rx="1.5152289"
       sodipodi:ry="0.25253814"
       d="m 409.11179,554.10443 a 1.5152289,0.25253814 0 1 1 -3.03046,0 1.5152289,0.25253814 0 1 1 3.03046,0 z" />
    <path
       style="fill:none;stroke:#000000;stroke-width:1px;stroke-linecap:butt;stroke-linejoin:miter;stroke-opacity:1"
       d="M 495.65331,823.05755 493.633,854.37228"
       id="path3852"
       inkscape:connector-curvature="0" />
    <path
       style="fill:none;stroke:#000000;stroke-width:1px;stroke-linecap:butt;stroke-linejoin:miter;stroke-opacity:1"
       d="m 224.09623,822.15768 -1.51523,29.7995"
       id="path3858"
       inkscape:connector-curvature="0" />
    <path
       style="fill:none;stroke:#000000;stroke-width:1.03125846px;stroke-linecap:butt;stroke-linejoin:miter;stroke-opacity:1"
       d="m 302.03561,577.62224 0,337.32745 z"
       id="path3882"
       inkscape:connector-curvature="0" />
    <path
       style="fill:none;stroke:#000000;stroke-width:1.021312px;stroke-linecap:butt;stroke-linejoin:miter;stroke-opacity:1"
       d="m 415.1727,576.60187 0,341.38849 z"
       id="path3884"
       inkscape:connector-curvature="0" />
    <path
       style="fill:#000000;stroke:#000000;stroke-width:1.32380115999999992;stroke-miterlimit:4;stroke-opacity:1"
       d="m 197.38568,633.94139 324.23312,0 86.8483,145.13789 -506.3122,0 z"
       id="rect3809"
       inkscape:connector-curvature="0"
       sodipodi:nodetypes="ccccc" />
    <path
       style="fill:url(#linearGradient5541);stroke:#000000;stroke-width:1;stroke-miterlimit:4;stroke-opacity:1;fill-opacity:1"
       d="m 315.7143,553.79073 82.85714,0 -12.85714,112.85714 c -11.42858,15.23807 -41.90476,16.66669 -57.14286,1.42857 z"
       id="rect3808"
       inkscape:connector-curvature="0"
       sodipodi:nodetypes="ccccc" />
    <path
       sodipodi:type="arc"
       style="fill:#ffffff;stroke:#000000;stroke-width:1;stroke-miterlimit:4;stroke-opacity:1;stroke-dasharray:none"
       id="path3814"
       sodipodi:cx="352.54324"
       sodipodi:cy="713.96106"
       sodipodi:rx="41.416256"
       sodipodi:ry="13.131983"
       d="m 393.9595,713.96106 a 41.416256,13.131983 0 1 1 -82.83251,0 41.416256,13.131983 0 1 1 82.83251,0 z"
       transform="translate(7.6406223,-11.37955)" />
    <rect
       style="fill:#000000;stroke:#000000;stroke-width:1.81299995999999997;stroke-miterlimit:4;stroke-opacity:1;stroke-dasharray:none"
       id="rect3886"
       width="25.253815"
       height="30.304575"
       x="347.90247"
       y="875.05609"
       ry="15.152287"
       rx="5.0507627" />
    <path
       sodipodi:type="arc"
       style="fill:url(#linearGradient5597);stroke:#000000;stroke-width:1;stroke-miterlimit:4;stroke-opacity:1;stroke-dasharray:none;fill-opacity:1"
       id="path3830-1"
       sodipodi:cx="370.72598"
       sodipodi:cy="841.2403"
       sodipodi:rx="168.69548"
       sodipodi:ry="21.213203"
       d="m 539.42146,841.2403 a 168.69548,21.213203 0 1 1 -337.39096,0 168.69548,21.213203 0 1 1 337.39096,0 z"
       transform="matrix(0.81000966,0,0,1.0023327,58.155869,7.2583113)" />
    <path
       sodipodi:type="arc"
       style="fill:#333333;stroke:#000000;stroke-width:1;stroke-miterlimit:4;stroke-opacity:1;stroke-dasharray:none"
       id="path3830"
       sodipodi:cx="370.72598"
       sodipodi:cy="841.2403"
       sodipodi:rx="168.69548"
       sodipodi:ry="21.213203"
       d="m 539.42146,841.2403 a 168.69548,21.213203 0 1 1 -337.39096,0 168.69548,21.213203 0 1 1 337.39096,0 z"
       transform="matrix(0.81000966,0,0,1.0023327,58.734869,-20.061689)" />
    <rect
       style="fill:url(#linearGradient5589);stroke:#000000;stroke-width:1.00710057999999991;stroke-miterlimit:4;stroke-opacity:1;stroke-dasharray:none;fill-opacity:1"
       id="rect3826"
       width="506.20789"
       height="44.439575"
       x="102.85755"
       y="779.28418" />
    <path
       sodipodi:type="arc"
       style="fill:#ffffff;stroke:#000000;stroke-width:1.81299996;stroke-miterlimit:4;stroke-opacity:1;stroke-dasharray:none"
       id="path3898"
       sodipodi:cx="262.63965"
       sodipodi:cy="1052.3622"
       sodipodi:rx="131.31982"
       sodipodi:ry="119.198"
       d="M 140.37356,1095.8548 A 131.31982,119.198 0 0 1 205.07283,945.22773"
       transform="matrix(1.5212954,0,0,1.0404102,-11.214746,-106.94674)"
       sodipodi:start="2.7680922"
       sodipodi:end="4.2586034"
       sodipodi:open="true" />
    <path
       sodipodi:type="arc"
       style="fill:#ffffff;stroke:#000000;stroke-width:1;stroke-miterlimit:4;stroke-opacity:1;stroke-dasharray:none"
       id="path3860"
       sodipodi:cx="346.07144"
       sodipodi:cy="972.00507"
       sodipodi:rx="140.35715"
       sodipodi:ry="39.642857"
       d="m 486.42859,972.00507 a 140.35715,39.642857 0 1 1 -280.7143,0 140.35715,39.642857 0 1 1 280.7143,0 z"
       transform="matrix(0.80938333,0,0,1.0856509,68.781044,-89.006244)" />
    <path
       sodipodi:type="arc"
       style="fill:#ffffff;stroke:#000000;stroke-width:1.81299996;stroke-miterlimit:4;stroke-opacity:1;stroke-dasharray:none"
       id="path3898-3"
       sodipodi:cx="262.63965"
       sodipodi:cy="1052.3622"
       sodipodi:rx="131.31982"
       sodipodi:ry="119.198"
       d="M 140.37356,1095.8548 A 131.31982,119.198 0 0 1 205.07283,945.22773"
       transform="matrix(-1.5212954,0,0,1.0404102,726.58836,-108.41437)"
       sodipodi:start="2.7680922"
       sodipodi:end="4.2586034"
       sodipodi:open="true" />
    <path
       sodipodi:type="arc"
       style="fill:url(#linearGradient4059);stroke:#000000;stroke-width:1;stroke-miterlimit:4;stroke-opacity:1;stroke-dasharray:none;fill-opacity:1"
       id="path3860-5"
       sodipodi:cx="346.07144"
       sodipodi:cy="972.00507"
       sodipodi:rx="140.35715"
       sodipodi:ry="39.642857"
       d="m 486.42859,972.00507 a 140.35715,39.642857 0 1 1 -280.7143,0 140.35715,39.642857 0 1 1 280.7143,0 z"
       transform="matrix(0.80938333,0,0,1.0856509,68.45889,-101.43455)" />
    <path
       style="font-size:medium;font-style:normal;font-variant:normal;font-weight:normal;font-stretch:normal;text-indent:0;text-align:start;text-decoration:none;line-height:normal;letter-spacing:normal;word-spacing:normal;text-transform:none;direction:ltr;block-progression:tb;writing-mode:lr-tb;text-anchor:start;baseline-shift:baseline;color:#000000;fill:#000000;fill-opacity:1;fill-rule:nonzero;stroke:none;stroke-width:1.81299996;marker:none;visibility:visible;display:inline;overflow:visible;enable-background:accumulate;font-family:Sans;-inkscape-font-specification:Sans"
       d="M 220.81031,845.79109 C 120.32608,875.06076 76.266001,950.05834 122.50921,1013.4326 l 2.47179,-0.8563 C 79.450272,950.17868 122.65589,876.43197 221.85607,847.53632 l -1.04576,-1.74523 z"
       id="path3898-9"
       inkscape:connector-curvature="0" />
    <path
       sodipodi:type="arc"
       style="fill:#ffffff;stroke:#000000;stroke-width:1.81299996;stroke-miterlimit:4;stroke-opacity:1;stroke-dasharray:none"
       id="path3898-9-3"
       sodipodi:cx="262.63965"
       sodipodi:cy="1052.3622"
       sodipodi:rx="131.31982"
       sodipodi:ry="119.198"
       d="m 144.31037,1104.0535 a 131.31982,119.198 0 0 1 64.9167,-160.58411"
       transform="matrix(-1.5211002,0,0,1.0537272,813.55372,-147.62137)"
       sodipodi:start="2.693043"
       sodipodi:end="4.29351"
       sodipodi:open="true" />
    <path
       sodipodi:type="arc"
       style="fill:#e6e6e6;stroke:#000000;stroke-width:1.81299995999999997;stroke-miterlimit:4;stroke-opacity:1;stroke-dasharray:none"
       id="path3960"
       sodipodi:cx="665.69055"
       sodipodi:cy="527.08289"
       sodipodi:rx="18.182749"
       sodipodi:ry="12.121831"
       d="m 683.8733,527.08289 a 18.182749,12.121831 0 1 1 -36.3655,0 18.182749,12.121831 0 1 1 36.3655,0 z"
       transform="matrix(0.84837827,0,0,0.45491048,-208.02273,430.33815)" />
    <path
       style="fill:none;stroke:#000000;stroke-width:1.01621854px;stroke-linecap:butt;stroke-linejoin:miter;stroke-opacity:1"
       d="m 328.55111,664.14072 c 26.20569,-10.08568 42.50371,-5.42089 58.05474,0.35619"
       id="path3972"
       inkscape:connector-curvature="0"
       sodipodi:nodetypes="cc" />
    <path
       style="fill:none;stroke:#000000;stroke-width:1px;stroke-linecap:butt;stroke-linejoin:miter;stroke-opacity:1"
       d="m 197.5,640.57647 c 15.15456,2.05095 27.18732,9.56505 38.57143,18.21428"
       id="path3982"
       inkscape:connector-curvature="0"
       sodipodi:nodetypes="cc" />
    <path
       style="fill:#808080;stroke:#000000;stroke-width:2.29500008;stroke-linecap:butt;stroke-linejoin:miter;stroke-miterlimit:4;stroke-opacity:1;stroke-dasharray:none"
       d="m 121.78572,1010.2194 c 34.4992,41.5987 58.20249,33.9307 79.64285,21.4285"
       id="path3991"
       inkscape:connector-curvature="0"
       sodipodi:nodetypes="cc" />
    <path
       style="fill:none;stroke:#000000;stroke-width:2.38269305;stroke-linecap:butt;stroke-linejoin:miter;stroke-miterlimit:4;stroke-opacity:1;stroke-dasharray:none"
       d="m 595.87063,1013.506 c -37.29624,41.4752 -60.99066,30.9813 -84.16931,18.5158"
       id="path3991-8"
       inkscape:connector-curvature="0"
       sodipodi:nodetypes="cc" />
    <text
       xml:space="preserve"
       style="font-size:20px;font-style:normal;font-weight:normal;line-height:125%;letter-spacing:0px;word-spacing:0px;fill:#000000;fill-opacity:1;stroke:none;font-family:Sans"
       x="420.23569"
       y="472.40613"
       id="text4017"
       sodipodi:linespacing="125%"
       transform="matrix(0.92279946,0.37218179,-0.36708736,0.93560606,0,0)"><tspan
         sodipodi:role="line"
         id="tspan4019"
         x="420.23569"
         y="472.40613"> 45x</tspan></text>
    <text
       xml:space="preserve"
       style="font-size:20px;font-style:normal;font-weight:normal;line-height:125%;letter-spacing:0px;word-spacing:0px;fill:#000000;fill-opacity:1;stroke:none;font-family:Sans"
       x="335.37064"
       y="625.06769"
       id="text4021"
       sodipodi:linespacing="125%"><tspan
         sodipodi:role="line"
         id="tspan4025"
         x="335.37064"
         y="625.06769">10x</tspan></text>
    <path
       style="fill:#000000;stroke:#000000;stroke-width:2.31830025;stroke-miterlimit:4;stroke-opacity:1;stroke-dasharray:none"
       d="m 334.89679,1007.9034 c -47.19527,-2.5187 -85.36549,-15.73474 -95.89328,-33.20204 -1.97959,-3.28446 -3.50522,-9.59737 -2.3188,-9.59496 0.4028,8.1e-4 2.9431,2.25426 5.64511,5.00765 23.44202,23.88773 100.82214,34.55255 161.09568,22.20274 25.76586,-5.27931 47.153,-15.23361 54.65896,-25.44014 l 3.0814,-4.19005 0,3.77478 c 0,17.6737 -32.37531,34.13182 -77.78175,39.54062 -12.44744,1.4827 -37.74425,2.4747 -48.48732,1.9014 l 0,0 z"
       id="path4043"
       inkscape:connector-curvature="0" />
    <path
       style="fill:url(#linearGradient4973);fill-opacity:1"
       d="m 419.18144,502.91145 -5.55584,-0.84164 0,-173.61205 0,-173.61205 -16.66751,0.0363 c -9.16714,0.02 -45.82808,2.45194 -68.50513,3.55241 -22.67706,1.10048 -40.59263,3.14433 -34.48103,0.66964 1.14431,-0.46335 3.68618,-6.01193 6.88067,-12.46305 3.19449,-6.45111 7.0416,-13.80476 10.7964,-17.87825 4.33248,-4.70019 15.95901,-13.69671 20.58174,-15.98018 10.68407,-5.27757 13.12133,-6.92611 28.36185,-6.90096 14.60917,0.0241 25.75753,6.3792 34.3852,10.91005 13.6755,7.18174 21.98879,18.69042 28.91908,34.56903 l 5.89117,13.49779 0,169.74998 c 0,134.61456 -0.52271,169.68734 -2.52538,169.44729 -1.38896,-0.16647 -5.02551,-0.68145 -8.08122,-1.14434 z"
       id="path4965"
       inkscape:connector-curvature="0"
       sodipodi:nodetypes="ccccssssssssscsccc" />
    <path
       style="fill:url(#linearGradient5013);stroke:#000000;stroke-width:1;stroke-miterlimit:4;stroke-opacity:1;fill-opacity:1;opacity:1"
       d="m 222.85714,552.36216 82.85715,-8.57143 -68.57143,115.71429 c -14.66536,-1.52839 -32.3691,7.57753 -40.00001,-18.57143 z"
       id="rect3805"
       inkscape:connector-curvature="0"
       sodipodi:nodetypes="ccccc" />
    <path
       style="fill:url(#linearGradient5553);fill-opacity:1"
       d="m 353.01645,674.46017 c -8.81154,-0.78034 -13.14177,-3.86204 -8.9651,-6.38019 5.65404,-3.40889 22.25756,-3.10428 26.10364,0.47889 1.4652,1.36504 1.30368,2.30407 -0.59729,3.47246 -3.38433,2.08012 -9.81563,3.02446 -16.54125,2.42884 z"
       id="path5545"
       inkscape:connector-curvature="0" />
    <path
       style="fill:#b3b3b3;fill-opacity:1"
       d="m 303.0139,605.87732 0,-27.24954 4.41942,0.29221 c 2.43068,0.16071 5.77568,0.43375 7.43333,0.60676 l 3.01392,0.31455 2.8961,25.50635 c 1.59285,14.0285 2.90718,26.01775 2.92073,26.64278 l 0.0246,1.13642 -10.35407,0 -10.35406,0 0,-27.24953 z"
       id="path5555"
       inkscape:connector-curvature="0" />
    <path
       style="fill:url(#linearGradient5573);fill-opacity:1"
       d="m 390.3878,632.74804 c -0.009,-0.79039 5.62055,-50.43325 5.83801,-51.4815 0.263,-1.2677 1.33969,-1.44329 11.97022,-1.95211 l 6.43973,-0.30823 0,27.06033 0,27.06032 -12.12183,0 c -6.66701,0 -12.12377,-0.17046 -12.12613,-0.37881 z"
       id="path5557"
       inkscape:connector-curvature="0" />
    <path
       style="fill:url(#linearGradient5607);fill-opacity:1"
       d="m 406.46533,915.76126 c -17.22996,-4.23581 -38.67495,-5.90095 -65.71429,-5.10251 -15.32143,0.45242 -29.94643,1.23662 -32.5,1.74266 l -4.64286,0.92008 0,-21.09689 0,-21.09689 18.21429,0.92896 c 10.01786,0.51092 21.10714,0.9414 24.64286,0.95662 3.53571,0.0152 5.66522,0.51305 4.73223,1.10629 -6.2228,3.9568 -6.2228,28.08416 0,32.04096 3.16442,2.01212 17.7866,1.25661 20.08075,-1.03754 4.52009,-4.52009 4.66706,-25.29881 0.21046,-29.75541 -1.6469,-1.6469 0.39623,-2.09298 13.16435,-2.87421 8.3126,-0.50861 18.2281,-0.92475 22.03444,-0.92475 l 6.92062,0 0,22.85715 c 0,12.57143 -0.48214,22.79134 -1.07142,22.71091 -0.58929,-0.0804 -3.32143,-0.69937 -6.07143,-1.37543 l 0,0 z"
       id="path5599"
       inkscape:connector-curvature="0" />
    <path
       style="fill:#999999;fill-opacity:1"
       d="m 532.7362,1039.1551 c -6.12291,-1.8955 -15.35112,-5.8617 -16.99442,-7.304 -0.1798,-0.1578 1.52064,-4.1039 3.77876,-8.7692 6.18548,-12.7792 8.33394,-22.2056 8.35486,-36.65748 0.013,-9.00722 -0.5072,-14.0927 -2.02472,-19.79231 -10.01366,-37.60985 -46.62277,-70.75735 -98.16192,-88.88011 -6.60922,-2.32401 -10.73312,-4.32043 -10.92797,-5.29035 -0.34329,-1.70888 -1.67586,-1.46792 23.54645,-4.25776 22.32478,-2.46935 40.91167,-6.5148 49.23017,-10.71499 4.18111,-2.11113 7.39933,-6.20706 6.28879,-8.00395 -0.88455,-1.43124 0.32421,-1.10216 15.6968,4.27332 48.56197,16.98115 83.96511,47.29664 96.31486,82.47384 2.91105,8.29187 3.0839,9.63989 3.1331,24.43342 0.0456,13.69613 -0.24453,16.60189 -2.31575,23.19791 -4.70659,14.98864 -12.27168,27.28666 -23.02613,37.43186 -18.8114,17.7457 -35.28922,23.3096 -52.89288,17.8598 z"
       id="path5614"
       inkscape:connector-curvature="0" />
    <path
       style="fill:#999999;fill-opacity:1"
       d="m 164.61441,1039.9011 c -25.85428,-7.0597 -40.5118,-30.056 -41.53536,-31.3972 -3.47751,-4.5564 -10.54365,-19.72161 -12.55116,-26.93708 -10.652597,-38.28792 8.53865,-77.68619 51.85653,-106.45778 11.06678,-7.35051 29.42701,-16.42882 44.07251,-21.79187 11.66503,-4.27163 15.58021,-5.27804 14.64478,-3.76448 -1.07329,1.73661 2.21402,5.85763 6.33065,7.93621 10.31281,5.20716 30.71995,9.03479 68.67561,12.88102 4.28821,0.43455 5.3033,0.89432 5.3033,2.40207 0,1.4401 -1.89753,2.49021 -8.33376,4.61201 -17.00543,5.60609 -33.72147,13.19901 -46.18338,20.97786 -50.39736,31.45853 -70.48744,75.86871 -54.06203,119.50694 1.34778,3.5808 3.14646,7.5041 3.99706,8.7185 1.67662,2.3937 1.98935,3.846 0.78893,3.6637 -0.41669,-0.063 -13.10763,15.0829 -33.00368,9.6501 z"
       id="path5616"
       inkscape:connector-curvature="0"
       sodipodi:nodetypes="scssssssssssscs" />
  </g>
</svg>
