<svg xmlns:dc="http://purl.org/dc/elements/1.1/" xmlns:cc="http://creativecommons.org/ns#" xmlns:rdf="http://www.w3.org/1999/02/22-rdf-syntax-ns#" xmlns:svg="http://www.w3.org/2000/svg" xmlns="http://www.w3.org/2000/svg" xmlns:sodipodi="http://sodipodi.sourceforge.net/DTD/sodipodi-0.dtd" xmlns:inkscape="http://www.inkscape.org/namespaces/inkscape" width="3422.3999" height="1539.15" id="gwd-image_18" version="1.1" inkscape:version="0.48.4 r9939" sodipodi:docname="lfthnd.svg" viewBox="0 0 3422.3999 1539.15" src="blob:https%3A//www.gstatic.com/37400c72-bdc9-4a9b-8975-1f323ec79963" data-gwd-node="true" is="gwd-image" source="assets/right hand gloves.svg" gwd-svg-index="21" class="gwd-img-cfir">
  <defs id="defs4" data-gwd-node="true"></defs>
  <sodipodi:namedview id="base" pagecolor="#ffffff" bordercolor="#666666" borderopacity="1.0" inkscape:pageopacity="0.0" inkscape:pageshadow="2" inkscape:zoom="0.175" inkscape:cx="1945.0145" inkscape:cy="735.91898" inkscape:document-units="px" inkscape:current-layer="layer1" showgrid="false" units="pc" inkscape:window-width="1366" inkscape:window-height="716" inkscape:window-x="0" inkscape:window-y="0" inkscape:window-maximized="1" data-gwd-node="true"></sodipodi:namedview>
  <metadata id="metadata7" data-gwd-node="true">
    <rdf:rdf data-gwd-node="true">
      <cc:work rdf:about="" data-gwd-node="true">
        <dc:format data-gwd-node="true">image/svg+xml</dc:format>
        <dc:type rdf:resource="http://purl.org/dc/dcmitype/StillImage" data-gwd-node="true"></dc:type>
        <dc:title data-gwd-node="true"></dc:title>
      </cc:work>
    </rdf:rdf>
  </metadata>
  <g inkscape:label="Layer 1" inkscape:groupmode="layer" id="layer1" transform="translate(0,486.7873)" data-gwd-node="true">
    <path style="fill:#0000ff;stroke:#000000;stroke-width:1px;stroke-linecap:butt;stroke-linejoin:miter;stroke-opacity:1" d="M 931.42857,962.00717 C 1154.6532,846.01588 1150.588,858.34661 1177.1429,824.86431 l 0.7143,0 c 56.2545,-128.66773 75.0336,-252.47529 290.7142,-391.42857 262.8572,-174.28572 270.7715,-170.49765 270.7715,-170.49765 47.7325,-14.80771 50.5993,19.8146 37.8,36.21193 l 0.5357,-0.35714 C 1579.5244,443.50836 1638.813,433.23909 1600,482.00717 c 42.3894,-33.7843 83.8827,-70.25686 131.4286,-88.57143 77.1428,-38.57145 152.2654,-67.45791 229.4082,-90.43328 53.0904,4.89794 47.9779,31.30467 34.2858,57.14285 -74.5236,23.51882 -136.6474,59.43745 -195.1226,99.00471 -65.6013,37.71155 -76.936,67.0744 -111.4286,100 44.4387,-29.96116 96.5082,-71.93518 143.3771,-89.09137 101.8931,-47.68295 195.1454,-83.79661 302.3372,-102.3372 47.3944,-1.21869 54.305,16.48515 34.4293,61.01015 -86.0052,34.43503 -164.898,72.82817 -258.7868,123.03046 l -96.306,81.67368 c 64.1238,-26.96242 149.8303,-63.93875 178.9898,-67.9079 92.4898,-35.13968 125.7316,-28.99526 184.7042,-42.68384 48.0044,5.40358 39.4276,37.3569 14.6026,47.56128 -162.316,66.79616 -235.1176,82.47159 -288.2249,124.35751 -17.7007,10.7314 -33.3811,33.43715 -51.0819,54.83539 -20.789,30.18259 -41.5779,48.54887 -62.3669,73.53298 58.8864,-15.21178 118.255,-26.05071 169.7549,-15.40971 44.1438,13.33333 50.0905,26.66667 65.7143,40 8.9265,16.15102 30.9942,48.77842 7.1429,68.57143 -37.8998,-10.4204 -153.4852,8.16447 -187.1429,24.28572 -124.8109,24.73626 -142.5967,55.55722 -267.2865,129.8564 -109.572,122.9278 -117.2931,174.0357 -164.1421,248.715 z" id="path2985" inkscape:connector-curvature="0" transform="translate(0,-486.78732)" sodipodi:nodetypes="ccccccccccccccccccccccccccccccc" data-gwd-node="true"></path>
    <path style="fill:none;stroke:#000000;stroke-width:1px;stroke-linecap:butt;stroke-linejoin:miter;stroke-opacity:1" d="M 1408.5714,1319.15 z" id="path2989" inkscape:connector-curvature="0" transform="translate(0,-486.78732)" data-gwd-node="true"></path>
    <path style="fill:none;stroke:#000000;stroke-width:1px;stroke-linecap:butt;stroke-linejoin:miter;stroke-opacity:1" d="M 982.85714,1002.0072 C 657.14286,1167.7215 657.14286,1167.7215 657.14286,1167.7215" id="path2991" inkscape:connector-curvature="0" transform="translate(0,-486.78732)" data-gwd-node="true"></path>
    <path style="fill:none;stroke:#000000;stroke-width:1px;stroke-linecap:butt;stroke-linejoin:miter;stroke-opacity:1" d="m 1331.4286,1262.0072 c -125.7143,254.2857 -125.7143,251.4285 -125.7143,251.4285 l 0,-2.8571" id="path2993" inkscape:connector-curvature="0" transform="translate(0,-486.78732)" data-gwd-node="true"></path>
    <path sodipodi:type="arc" style="fill:#ffd5d5;fill-rule:evenodd;stroke:#000000;stroke-width:1px;stroke-linecap:butt;stroke-linejoin:miter;stroke-opacity:1" id="path2995" sodipodi:cx="965.71429" sodipodi:cy="1359.15" sodipodi:rx="308.57144" sodipodi:ry="197.14285" d="m 1274.2857,1359.15 c 0,108.879 -138.1521,197.1429 -308.57141,197.1429 -170.4193,0 -308.57144,-88.2639 -308.57144,-197.1429 0,-108.879 138.15214,-197.1428 308.57144,-197.1428 170.41931,0 308.57141,88.2638 308.57141,197.1428 z" transform="matrix(0.89276713,0.55543045,-0.29733559,0.39736571,472.00774,-221.20483)" inkscape:transform-center-y="-87.561039" data-gwd-node="true"></path>
    <path style="fill:#0000ff;fill-opacity:1" d="M 1204.4875,1461.752 C 1154.5011,1347.1996 881.79869,1172.1089 722.79688,1152.4788 l -24.17668,-2.9848 139.33407,-70.702 c 76.63374,-38.8861 141.1894,-71.2095 143.45703,-71.8298 4.46358,-1.2209 342.5782,247.3294 344.5874,253.3086 0.6699,1.9934 -23.9064,53.8475 -54.6141,115.2314 l -55.8321,111.6072 -11.065,-25.3574 0,0 z" id="path3016" inkscape:connector-curvature="0" transform="translate(0,-486.7873)" data-gwd-node="true"></path>
    <path style="fill:#0000ff;fill-opacity:1" d="m 1065.0145,1507.8344 c -128.02069,-42.442 -266.35815,-128.4079 -350.96894,-218.0998 -77.97913,-82.662 -80.2751,-131.075 -6.21619,-131.075 43.1005,0 106.19886,19.5928 182.94361,56.8061 192.67082,93.4255 353.04902,248.2836 308.32042,297.7082 -15.5714,17.2062 -72.9672,14.9205 -134.0789,-5.3395 z" id="path3717" inkscape:connector-curvature="0" transform="translate(0,-486.7873)" data-gwd-node="true"></path>
    <path style="fill:#0000ff;fill-opacity:1" d="m 1204.9002,1454.8699 c -14.9106,-33.9975 -108.0508,-124.9614 -171.6496,-167.6388 -94.72305,-63.5632 -200.07911,-111.9754 -293.09864,-134.6821 -13.67439,-3.338 -23.9601,-6.8988 -22.85714,-7.913 1.10296,-1.0141 61.18637,-31.4104 133.5187,-67.5473 l 131.51332,-65.7034 48.48666,34.6628 c 26.6677,19.0645 103.0588,75.2694 169.758,124.8998 l 121.2713,90.2372 -36.0695,75.8801 c -19.8381,41.7341 -43.7047,90.8891 -53.0368,109.2333 l -16.9675,33.3532 -10.8688,-24.7818 0,0 z" id="path3719" inkscape:connector-curvature="0" transform="translate(0,-486.7873)" data-gwd-node="true"></path>
    <path style="fill:#0000ff;fill-opacity:1" d="m 1065.0145,1503.6667 c -185.6646,-61.8531 -405.7143,-231.698 -405.7143,-313.1498 0,-46.563 111.34403,-30.6904 241.12008,34.3727 132.46502,66.4112 258.47612,169.0516 295.30642,240.5372 8.393,16.2904 8.1956,37.7535 -0.4265,46.3757 -12.0586,12.0586 -82.9577,7.6312 -130.2857,-8.1358 z" id="path3721" inkscape:connector-curvature="0" transform="translate(0,-486.7873)" data-gwd-node="true"></path>
  </g>
</svg>