<?xml version="1.0" encoding="UTF-8" standalone="no"?>
<!-- Created with Inkscape (http://www.inkscape.org/) -->

<svg
   xmlns:dc="http://purl.org/dc/elements/1.1/"
   xmlns:cc="http://creativecommons.org/ns#"
   xmlns:rdf="http://www.w3.org/1999/02/22-rdf-syntax-ns#"
   xmlns:svg="http://www.w3.org/2000/svg"
   xmlns="http://www.w3.org/2000/svg"
   xmlns:sodipodi="http://sodipodi.sourceforge.net/DTD/sodipodi-0.dtd"
   xmlns:inkscape="http://www.inkscape.org/namespaces/inkscape"
   width="744.09448819"
   height="1052.3622047"
   id="svg3089"
   version="1.1"
   inkscape:version="0.91 r13725"
   sodipodi:docname="spirirt_new.svg">
  <defs
     id="defs3091">
    <inkscape:perspective
       sodipodi:type="inkscape:persp3d"
       inkscape:vp_x="0 : 526.18109 : 1"
       inkscape:vp_y="0 : 1000 : 0"
       inkscape:vp_z="744.09448 : 526.18109 : 1"
       inkscape:persp3d-origin="372.04724 : 350.78739 : 1"
       id="perspective3897" />
  </defs>
  <sodipodi:namedview
     id="base"
     pagecolor="#ffffff"
     bordercolor="#666666"
     borderopacity="1.0"
     inkscape:pageopacity="0.0"
     inkscape:pageshadow="2"
     inkscape:zoom="1"
     inkscape:cx="347.6874"
     inkscape:cy="578.33398"
     inkscape:document-units="px"
     inkscape:current-layer="layer1"
     showgrid="false"
     inkscape:window-width="1024"
     inkscape:window-height="705"
     inkscape:window-x="-8"
     inkscape:window-y="-8"
     inkscape:window-maximized="1" />
  <metadata
     id="metadata3094">
    <rdf:RDF>
      <cc:Work
         rdf:about="">
        <dc:format>image/svg+xml</dc:format>
        <dc:type
           rdf:resource="http://purl.org/dc/dcmitype/StillImage" />
        <dc:title></dc:title>
      </cc:Work>
    </rdf:RDF>
  </metadata>
  <g
     inkscape:label="Layer 1"
     inkscape:groupmode="layer"
     id="layer1">
    <rect
       style="fill:#ffffff;stroke:#834b4b;stroke-width:1.05389953;stroke-opacity:1"
       id="rect3119"
       width="83.788765"
       height="128.66441"
       x="357.62094"
       y="193.80009"
       rx="2.0436285"
       ry="128.66441" />
    <path
       style="fill:none;stroke:#000000;stroke-width:1.42539144px;stroke-linecap:butt;stroke-linejoin:miter;stroke-opacity:1"
       d="m 332.03293,124.15802 48.0768,122.89989"
       id="path3121"
       inkscape:connector-curvature="0" />
    <path
       style="fill:none;stroke:#000000;stroke-width:1.12803066px;stroke-linecap:butt;stroke-linejoin:miter;stroke-opacity:1"
       d="m 333.73259,124.92296 129.3607,-1.65566"
       id="path3125"
       inkscape:connector-curvature="0" />
    <path
       style="fill:none;stroke:#000000;stroke-width:1.48504686px;stroke-linecap:butt;stroke-linejoin:miter;stroke-opacity:1"
       d="M 462.91242,123.26436 424.00151,246.523"
       id="path3129"
       inkscape:connector-curvature="0" />
    <path
       style="fill:none;stroke:#000000;stroke-width:0.90472049px;stroke-linecap:butt;stroke-linejoin:miter;stroke-opacity:1"
       d="m 380.52733,247.0657 45.04707,-0.85289"
       id="path3141"
       inkscape:connector-curvature="0" />
    <path
       style="fill:none;stroke:#000000;stroke-width:1px;stroke-linecap:butt;stroke-linejoin:miter;stroke-opacity:1"
       d="m 440,196.6479 52.14286,-5"
       id="path3929"
       inkscape:connector-curvature="0" />
    <path
       style="fill:none;stroke:#000000;stroke-width:1px;stroke-linecap:butt;stroke-linejoin:miter;stroke-opacity:1"
       d="m 447.14286,173.07647 45,17.85714"
       id="path3931"
       inkscape:connector-curvature="0" />
    <rect
       style="fill:#ffffff;stroke:#834b4b;stroke-width:1.06921148;stroke-opacity:1"
       id="rect3937"
       width="294.21655"
       height="119.93044"
       x="256.03461"
       y="539.39679"
       rx="0"
       ry="46.55191" />
    <text
       xml:space="preserve"
       style="font-size:54.65183640000000054px;font-style:normal;font-weight:normal;line-height:125%;letter-spacing:0px;word-spacing:0px;fill:#280b0b;fill-opacity:1;stroke:none;font-family:Sans"
       x="306.63452"
       y="512.12396"
       id="text4001"
       sodipodi:linespacing="125%"
       transform="scale(0.86095988,1.1614943)"><tspan
         sodipodi:role="line"
         x="306.63452"
         y="512.12396"
         id="tspan4007"> GLYCERINE</tspan></text>
    <path
       style="fill:#e6e6e6;stroke:#834b4b;stroke-width:0.71116346;stroke-opacity:1"
       d="m 327.45869,821.29452 c -43.89563,-7.64849 -80.28964,-39.21648 -94.69608,-82.13896 -3.48274,-10.37644 -5.29398,-19.97024 -6.16171,-32.6374 -0.79516,-11.60767 0.40782,-286.57054 0.11966,-285.45712 -12.14543,46.92848 328.90494,15.59929 344.89964,-2.89652 0.24139,-0.27913 2.96694,66.37749 2.96694,146.92492 0,120.44089 -0.17128,147.53269 -0.96446,152.54696 -7.76214,49.07087 -41.25728,87.52369 -87.87487,100.8814 -13.38722,3.83595 -13.13455,3.82487 -85.66649,3.75914 -51.38788,-0.0466 -68.58693,-0.27923 -72.62263,-0.98242 z"
       id="path4063"
       inkscape:connector-curvature="0"
       sodipodi:nodetypes="ssssssssss" />
    <path
       style="fill:#0000ff;stroke:#834b4b;stroke-width:0.25;stroke-opacity:1"
       d=""
       id="path4089"
       inkscape:connector-curvature="0" />
    <path
       style="fill:#0000ff;stroke:#834b4b;stroke-width:0.08838835;stroke-opacity:1"
       d=""
       id="path4099"
       inkscape:connector-curvature="0" />
    <path
       style="fill:#0000ff;stroke:#834b4b;stroke-width:0.02209709;stroke-opacity:1"
       d="m 556.42941,430.86291 c 0.007,-0.007 0.0264,-0.008 0.0424,-0.002 0.0176,0.007 0.0124,0.0123 -0.0134,0.0134 -0.0233,9.6e-4 -0.0363,-0.004 -0.029,-0.0116 z"
       id="path4115"
       inkscape:connector-curvature="0" />
    <path
       style="fill:#0000ff;stroke:#834b4b;stroke-width:0.02209709;stroke-opacity:1"
       d=""
       id="path4117"
       inkscape:connector-curvature="0" />
    <path
       style="fill:#0000ff;stroke:#834b4b;stroke-width:0.02209709;stroke-opacity:1"
       d="m 556.25217,430.79414 c 0.0334,-0.005 0.0881,-0.005 0.12153,0 0.0334,0.005 0.006,0.009 -0.0608,0.009 -0.0669,0 -0.0942,-0.004 -0.0608,-0.009 z"
       id="path4119"
       inkscape:connector-curvature="0" />
    <path
       style="fill:#0000ff;stroke:#834b4b;stroke-width:0.02209709;stroke-opacity:1"
       d="m 555.90966,430.81743 c 0.0152,-0.006 0.0401,-0.006 0.0553,0 0.0152,0.006 0.003,0.0111 -0.0276,0.0111 -0.0304,0 -0.0428,-0.005 -0.0276,-0.0111 z"
       id="path4121"
       inkscape:connector-curvature="0" />
    <path
       style="fill:#0000ff;stroke:#834b4b;stroke-width:0.02209709;stroke-opacity:1"
       d="m 555.6445,430.81743 c 0.0152,-0.006 0.04,-0.006 0.0552,0 0.0152,0.006 0.003,0.0111 -0.0276,0.0111 -0.0304,0 -0.0428,-0.005 -0.0276,-0.0111 z"
       id="path4123"
       inkscape:connector-curvature="0" />
    <path
       style="fill:#0000ff;stroke:#834b4b;stroke-width:0.02209709;stroke-opacity:1"
       d="m 555.46772,430.81743 c 0.0152,-0.006 0.0401,-0.006 0.0553,0 0.0152,0.006 0.003,0.0111 -0.0276,0.0111 -0.0304,0 -0.0428,-0.005 -0.0276,-0.0111 z"
       id="path4125"
       inkscape:connector-curvature="0" />
    <path
       style="fill:#0000ff;stroke:#834b4b;stroke-width:0.02209709;stroke-opacity:1"
       d="m 544.85053,429.4045 c 0.007,-0.007 0.0264,-0.008 0.0424,-0.002 0.0176,0.007 0.0124,0.0123 -0.0133,0.0134 -0.0233,9.6e-4 -0.0363,-0.004 -0.029,-0.0116 z"
       id="path4131"
       inkscape:connector-curvature="0" />
    <path
       style="fill:#b3b3b3;stroke:#834b4b;stroke-width:0.3000001;stroke-miterlimit:4;stroke-opacity:1;stroke-dasharray:none"
       d="m 369.90089,457.79723 c -36.34153,-0.99703 -77.31187,-5.35205 -102.33755,-10.87818 -24.64328,-5.44169 -41.66245,-14.7092 -41.66245,-22.68659 0,-2.93708 11.62042,-13.91661 19.20059,-18.14163 20.48073,-11.41551 51.83365,-19.35655 95.79941,-24.26397 22.13851,-2.47108 88.57606,-3.04306 112,-0.0151 89.54216,11.5749 105.00485,29.42466 106.69387,30.61103 l 10.80613,7.59028 -5.10424,7.26922 c -14.07389,20.04338 -68.41,27.41374 -143.39576,30.19524 -14.575,0.54065 -30.1,0.8924 -34.5,0.78168 -4.4,-0.11072 -12.275,-0.3186 -17.5,-0.46194 z"
       id="path4181"
       inkscape:connector-curvature="0"
       sodipodi:nodetypes="csssssscssscc" />
    <path
       style="fill:#ffffff;stroke:#834b4b;stroke-width:1;stroke-opacity:1"
       d="m 566.40089,415.89782 c -21.99311,-18.55064 -65.81571,-30.79077 -124.82955,-34.86623 -22.13926,-1.52893 -70.57241,-1.29974 -90.67045,0.42905 -29.82232,2.56525 -52.46009,6.33896 -72.78106,12.13259 -20.47112,5.83644 -31.92315,11.08178 -42.21894,19.33741 -3.48553,2.79486 -8.09363,8.08228 -8.3091,7.09966 -0.44442,-2.02672 8.20345,-22.90389 11.8905,-30.27987 8.27646,-16.55709 23.62341,-34.53642 38.4186,-45.00831 13.31162,-9.42183 32.62072,-17.59342 49,-20.73675 4.27733,-0.82085 26.09787,-1.05821 76,-0.8267 l 70,0.32475 9.5,2.66958 c 35.06347,9.85315 62.18528,31.92994 78.1448,63.60881 3.80784,7.5584 10.30684,26.38303 9.69979,28.09588 -0.18952,0.53476 -1.91959,-0.35618 -3.84459,-1.97987 z"
       id="path4183"
       inkscape:connector-curvature="0"
       sodipodi:nodetypes="sssssssssscssss" />
    <text
       xml:space="preserve"
       style="font-size:44.95901489px;font-style:normal;font-weight:normal;line-height:125%;letter-spacing:0px;word-spacing:0px;fill:#000000;fill-opacity:1;stroke:none;font-family:Sans"
       x="926.55701"
       y="620.91595"
       id="text4185"
       sodipodi:linespacing="125%"
       transform="scale(1.1688433,0.85554668)"><tspan
         sodipodi:role="line"
         x="926.55701"
         y="620.91595"
         id="tspan4191"
         style="fill:#000000" /></text>
    <text
       xml:space="preserve"
       style="font-size:40px;font-style:normal;font-weight:normal;line-height:125%;letter-spacing:0px;word-spacing:0px;fill:#000000;fill-opacity:1;stroke:none;font-family:Sans"
       x="510"
       y="353.36218"
       id="text4197"
       sodipodi:linespacing="125%"><tspan
         sodipodi:role="line"
         id="tspan4199"
         x="510"
         y="353.36218" /></text>
    <rect
       style="fill:#f9f9f9;stroke:#834b4b;stroke-width:0.9989869;stroke-opacity:1"
       id="rect3014"
       width="310.00113"
       height="135.72406"
       x="244.99945"
       y="-633.22418"
       ry="5.7757397"
       transform="scale(1,-1)" />
    <path
       style="fill:#e6e6e6;stroke:#060000;stroke-width:0.1;stroke-miterlimit:4;stroke-opacity:1;stroke-dasharray:none"
       d="m 559.64313,410.05065 c -17.1873,-11.67908 -48.55662,-20.58529 -87.3904,-25.70434 -30.43294,-4.01166 -110.38513,-5.49565 -140,-1.8521 -40.28109,4.95583 -87.27471,22.20793 -93.98717,27.16959 -17.24524,12.74721 -12.25124,18.75147 -2.32322,-10.03618 6.57323,-19.05999 31.66938,-49.55037 53.43149,-61.29372 25.88587,-13.96863 26.55323,-14.35046 107.91613,-15.19833 l 72.53723,1.23368 17.71758,4.73444 c 37.70745,10.07608 62.2956,34.94615 76.33782,69.50426 2.79714,6.88384 5.76106,16.84074 5.36424,17.23756 -0.39682,0.39681 -5.54348,-3.03587 -9.6037,-5.79486 z"
       id="path3835"
       inkscape:connector-curvature="0"
       sodipodi:nodetypes="ssssssscssss" />
    <path
       style="fill:#e6e6e6;stroke:#060000;stroke-width:0.1;stroke-miterlimit:4;stroke-opacity:1;stroke-dasharray:none"
       d="m 360.46106,320.58961 c -1.27505,4.18714 -2.58476,-24.49187 -2.06897,-59.25 0.29416,-19.82309 0.15022,-41.1875 1.5144,-63.66667 l 10.29124,26.5 9.54125,23.25 22.84471,-0.375 22.09471,-0.125 6.39796,-20.25 8.64795,-26.5 0.80472,55.625 c 0.40297,27.85465 -0.7993,57.15855 -0.80995,57.25 l -0.98968,8.5 -39.15498,-0.25 c -20.57232,-0.13135 -39.11299,0.45376 -39.11332,-0.58333 z"
       id="path3837"
       inkscape:connector-curvature="0"
       sodipodi:nodetypes="cscccccccsscssc" />
    <path
       style="fill:#e6e6e6;stroke:#060000;stroke-width:2;stroke-opacity:1"
       d=""
       id="path3839"
       inkscape:connector-curvature="0" />
    <path
       style="fill:#e6e6e6;stroke:#060000;stroke-width:0.1;stroke-miterlimit:4;stroke-opacity:1;stroke-dasharray:none"
       d="m 348.03791,159.95394 c -6.88261,-17.72046 -14.00516,-27.32305 -13.66728,-33.1192 0.0968,-1.66087 127.5032,-2.59613 127.49699,-1.50167 -0.004,0.62302 -6.87485,21.08045 -12.37132,38.48559 -5.49646,17.40515 -9.01077,26.45034 -9.74357,27.5 -1.17244,1.67941 -15.40924,1.9907 -37.10049,1.60428 l -42.1005,-0.75 z"
       id="path3841"
       inkscape:connector-curvature="0"
       sodipodi:nodetypes="sscssscs" />
    <path
       style="fill:#e6e6e6;stroke:#060000;stroke-width:2;stroke-opacity:1"
       d=""
       id="path3843"
       inkscape:connector-curvature="0" />
    <path
       style="fill:#e6e6e6;stroke:#060000;stroke-width:0.1;stroke-miterlimit:4;stroke-opacity:1;stroke-dasharray:none"
       d="m 380.26044,244.85492 c -0.96076,-2.475 -6.71071,-15.85738 -11.14693,-28.0052 l -8.64121,-22.41422 38.03909,0.35356 c 33.1691,0.30829 42.05671,-1.82112 41.03857,0.83209 -0.64143,1.67156 -5.31516,17.34803 -9.29883,28.55664 l -6.65772,21.57288 -15.9292,0.0344 c -24.29115,0.0524 -25.45072,4.10111 -27.40377,-0.93011 z"
       id="path3845"
       inkscape:connector-curvature="0"
       sodipodi:nodetypes="sscssscss" />
    <path
       style="fill:#e6e6e6;stroke:#060000;stroke-width:2;stroke-opacity:1"
       d=""
       id="path3847"
       inkscape:connector-curvature="0" />
    <path
       style="fill:#ececec;stroke:#060000;stroke-width:0.35355338;stroke-opacity:1"
       d=""
       id="path3859"
       inkscape:connector-curvature="0" />
    <path
       style="fill:#ececec;stroke:#060000;stroke-width:0.35355338;stroke-opacity:1"
       d=""
       id="path3861"
       inkscape:connector-curvature="0" />
    <path
       style="fill:#ececec;stroke:#060000;stroke-width:0.35355338;stroke-opacity:1"
       d=""
       id="path3863"
       inkscape:connector-curvature="0" />
    <path
       style="fill:#ececec;stroke:#060000;stroke-width:0.35355337999999997;stroke-opacity:1"
       d=""
       id="path3865"
       inkscape:connector-curvature="0" />
    <path
       style="fill:#ffffff;stroke:#060000;stroke-width:0.35355337999999997;stroke-opacity:1"
       d=""
       id="path3871"
       inkscape:connector-curvature="0" />
    <path
       style="fill:#ffffff;stroke:#060000;stroke-width:0.35355338;stroke-opacity:1"
       d=""
       id="path3875"
       inkscape:connector-curvature="0" />
    <path
       style="fill:#cccccc;stroke:#060000;stroke-width:0.03535534000000000;stroke-miterlimit:4;stroke-opacity:1;stroke-dasharray:none"
       d="m 441.47629,194.28704 c 0.25265,-0.82643 1.78385,-5.68099 3.40266,-10.78791 2.74673,-8.66519 2.99236,-9.2699 3.67798,-9.05467 2.21103,0.69407 42.01461,16.71448 41.57011,16.73142 -0.29168,0.0111 -11.24519,1.05375 -24.34113,2.31698 -13.09594,1.26323 -24.02639,2.29678 -24.28989,2.29678 -0.39998,0 -0.40324,-0.2481 -0.0197,-1.5026 z"
       id="path3899"
       inkscape:connector-curvature="0" />
    <path
       style="fill:#cccccc;fill-opacity:1"
       d="m 328.13581,820.17496 c -9.61512,-1.16449 -22.0652,-5.24158 -33.46852,-10.96012 -34.1364,-17.11872 -58.99443,-50.6944 -65.38524,-88.3157 -1.71638,-10.10394 -2.00035,-39.57919 -1.76796,-183.50983 l 0.17331,-107.33889 3.14901,2.64972 c 10.80019,9.08775 34.45552,15.82607 71.82941,20.46091 37.12581,4.60407 73.2238,6.20506 112.59779,4.99385 58.80677,-1.809 97.9561,-6.31191 122.18724,-14.05383 15.96291,-5.10021 22.90078,-9.31808 29.26996,-17.79465 l 3.76446,-5.01003 0.62466,7.7159 c 2.39244,29.55188 3.70064,267.77114 1.57248,286.34296 -3.63338,31.70728 -21.86006,63.05874 -48.1983,82.9052 -9.5644,7.20699 -26.8137,15.82938 -39.29671,19.6432 l -9,2.74969 -70.5,0.18782 c -38.775,0.1033 -73.67322,-0.19649 -77.55159,-0.6662 l 0,0 z M 556.6874,629.2282 c 1.95893,-1.95893 2,-3.33333 2,-66.92857 0,-70.45245 0.24861,-67.24678 -5.31993,-68.59705 -1.19904,-0.29075 -69.77654,-0.40393 -152.39445,-0.25151 -142.66273,0.2632 -150.30414,0.3669 -151.99999,2.06285 -1.67746,1.67754 -1.78563,5.71466 -1.78563,66.64501 0,62.37767 0.0729,64.93984 1.90499,66.96428 l 1.90499,2.10499 151.84501,0 c 150.51168,0 151.86257,-0.0176 153.84501,-2 z"
       id="path3724"
       inkscape:connector-curvature="0" />
    <path
       style="fill:#ececec;fill-opacity:1"
       d="m 354.1874,456.60187 c -38.43441,-2.05115 -80.48598,-7.95591 -99.83705,-14.01883 -14.96957,-4.69014 -27.66295,-12.97193 -27.66295,-18.04867 0,-3.97439 19.76497,-18.75174 29.26058,-21.87677 2.88168,-0.94837 5.57003,-2.22045 5.97411,-2.82685 0.40407,-0.6064 0.74158,-0.73849 0.75,-0.29353 0.008,0.44496 0.57781,0.45761 1.26531,0.0281 0.6875,-0.42949 1.7,-0.8551 2.25,-0.9458 0.55,-0.0907 6.17892,-1.74065 12.50871,-3.66656 27.34346,-8.31956 58.08054,-12.45534 99.49129,-13.38688 35.45069,-0.79748 75.2509,0.929 95.88167,4.15921 29.6744,4.64618 58.53763,12.4006 72.66707,19.52277 7.47144,3.76611 21.95581,13.97536 21.94155,15.46543 -0.0154,1.60724 -6.67977,9.56867 -10.24524,12.23919 -20.19733,15.12768 -72.44866,23.00148 -157.24505,23.69541 -22,0.18003 -43.15,0.15923 -47,-0.0462 l 0,0 z"
       id="path3726"
       inkscape:connector-curvature="0" />
    <path
       style="fill:#b3b3b3;fill-opacity:1"
       d="m 322.79201,818.68814 c -22.68263,-4.94285 -43.97987,-17.16143 -60.89573,-34.93688 -9.89508,-10.3979 -15.47137,-18.62632 -22.26171,-32.84958 -8.17636,-17.12647 -9.8753,-25.29512 -10.95514,-52.67348 -0.50978,-12.925 -0.94153,-78.29131 -0.95945,-145.25847 l -0.0326,-121.75848 2.21133,1.25848 c 1.21623,0.69216 2.83818,1.83578 3.60433,2.54137 2.12406,1.95618 7.89214,4.68727 16.18434,7.66301 4.125,1.4803 7.5,2.61291 7.5,2.51691 0,-0.17392 3.5047,0.62586 13,2.96661 9.29713,2.29191 47.88939,7.60304 57.5,7.91325 0.825,0.0266 7.35,0.49982 14.5,1.05155 32.43013,2.50244 85.90589,1.9374 123,-1.29965 2.75,-0.23998 8.825,-0.71343 13.5,-1.0521 4.675,-0.33867 9.5244,-0.83584 10.77644,-1.10481 1.25204,-0.26897 4.70186,-0.71913 7.66626,-1.00035 2.9644,-0.28122 8.91501,-1.17562 13.22356,-1.98755 4.30856,-0.81194 9.18374,-1.7245 10.83374,-2.02792 1.65,-0.30342 4.8,-1.0201 7,-1.59262 2.2,-0.57252 4.225,-1.05839 4.5,-1.07969 1.61975,-0.12551 14.29529,-4.86631 18.63741,-6.97061 6.24117,-3.02464 7.30691,-3.8395 13.87477,-10.60867 l 5.17125,-5.32974 0.70009,13.32974 c 1.17445,22.36172 2.40221,222.38861 1.558,253.82974 -0.84067,31.3093 -1.15843,33.88282 -5.9492,48.18231 -8.08888,24.14368 -26.03289,48.26783 -45.96738,61.7991 -9.19756,6.24318 -24.74456,13.63609 -39.52494,18.79491 -1.1,0.38394 -35.75,0.78338 -77,0.88766 -60.9406,0.15406 -76.19887,-0.0716 -81.39539,-1.20404 l 0,0 z m 234.5036,-189.93873 c 2.15255,-2.94391 1.62651,-131.33008 -0.54883,-133.95028 -1.35803,-1.63574 -10.16437,-1.71618 -153.59661,-1.40308 -127.13435,0.27753 -152.42787,0.55785 -153.80937,1.7046 -1.50674,1.2507 -1.6534,7.12139 -1.6534,66.1849 0,39.85448 0.37694,65.80386 0.97885,67.38702 l 0.97885,2.57456 153.10183,-0.25946 c 151.24762,-0.25633 153.11935,-0.28343 154.54868,-2.23826 l 0,0 z"
       id="path3728"
       inkscape:connector-curvature="0" />
    <path
       style="fill:#ececec;fill-opacity:1"
       d="m 321.1874,817.74881 c -14.27192,-3.26293 -30.92664,-11.21377 -43.82636,-20.92238 -9.11893,-6.8631 -21.96619,-20.25562 -27.62333,-28.7957 -5.18606,-7.82892 -13.31872,-24.48127 -15.5317,-31.80253 -4.67717,-15.47359 -4.61355,-13.67883 -5.75134,-162.26135 -0.59284,-77.41875 -0.83215,-141.0071 -0.5318,-141.30745 0.30035,-0.30035 2.95774,0.99507 5.90531,2.87871 7.25936,4.63907 22.13778,10.04222 34.85922,12.65925 38.28394,7.87567 89.21129,11.77028 139,10.62986 75.48289,-1.72895 121.27071,-8.09596 145.16428,-20.18577 2.56535,-1.29803 7.35039,-4.84693 10.63342,-7.88644 5.62664,-5.20927 6.0044,-5.39728 6.5834,-3.27659 1.05708,3.87169 2.88113,195.09128 2.29175,240.24978 -0.61306,46.97368 -1.33243,55.65301 -5.69427,68.7029 -6.56661,19.64616 -16.57167,35.57689 -31.90236,50.7971 -12.06586,11.9789 -20.08113,17.189 -39.81154,25.87837 l -12.76468,5.62163 -77.5,0.19618 c -62.63199,0.15854 -78.65107,-0.067 -83.5,-1.17557 l 0,0 z M 556.8877,629.42723 c 1.04001,-1.04102 1.2997,-14.4942 1.2997,-67.33095 0,-64.87455 -0.035,-66.05565 -2,-67.49631 -1.74085,-1.27633 -21.67321,-1.4278 -153.83084,-1.16904 -148.96322,0.29166 -151.85764,0.33393 -153.25,2.2384 -1.19119,1.62932 -1.41697,12.31164 -1.4055,66.5 0.007,35.50738 0.29115,65.59494 0.63032,66.86124 l 0.61667,2.30237 153.31997,-0.30237 c 124.21368,-0.24497 153.56671,-0.54935 154.61968,-1.60334 l 0,0 z"
       id="path3730"
       inkscape:connector-curvature="0" />
    <path
       style="fill:#cccccc;fill-opacity:1"
       d="m 558.37312,408.6626 c -16.84843,-10.19399 -41.23354,-17.74778 -73.68572,-22.82567 -25.17788,-3.93966 -36.80944,-4.66845 -84.5,-5.29443 -46.75719,-0.61372 -62.26866,0.0864 -82.45937,3.72209 -30.97956,5.57836 -75.24919,20.11366 -82.76551,27.17488 -1.24698,1.17147 -2.49062,1.90656 -2.76366,1.63353 -0.78729,-0.7873 6.91482,-19.79039 10.4497,-25.78209 10.27363,-17.414 27.87495,-36.0682 43.62939,-46.2392 7.93553,-5.12315 20.73667,-10.98902 28.08008,-12.86715 11.75435,-3.00625 33.17781,-4.0064 85.82937,-4.00691 61.94202,-6e-4 68.572,0.37144 83.84418,4.70491 35.87063,10.17826 57.29063,27.23299 73.58573,58.58935 5.58335,10.74395 10.61138,23.7641 9.90252,25.6427 -0.18284,0.48455 -4.29886,-1.51886 -9.14671,-4.45201 z"
       id="path3732"
       inkscape:connector-curvature="0" />
    <path
       style="fill:#cccccc;fill-opacity:1"
       d="m 364.44136,320.49997 c -3.05881,-0.32011 -3.88436,-0.8855 -4.5,-3.0819 -0.97064,-3.4629 -0.80965,-104.10295 0.17695,-110.62269 l 0.74647,-4.93281 6.4594,16.43281 c 3.55268,9.03805 7.67527,19.52667 9.16132,23.30804 l 2.7019,6.87521 11.907,-0.62521 c 6.54885,-0.34387 16.89885,-0.62683 23,-0.6288 l 11.093,-0.004 7.14252,-21.74641 7.14253,-21.74642 0.10036,52 c 0.0552,28.6 -0.1865,55.0375 -0.53712,58.75 l -0.6375,6.75 -35.1054,-0.1681 c -19.30796,-0.0925 -36.79111,-0.34452 -38.85143,-0.56013 z"
       id="path3734"
       inkscape:connector-curvature="0" />
    <path
       style="fill:#cccccc;fill-opacity:1"
       d="m 380.06723,242.62943 c -2.26918,-5.38316 -18.37983,-46.62949 -18.37983,-47.05585 0,-0.18996 17.325,-0.34538 38.5,-0.34538 21.175,0 38.5,0.26498 38.5,0.58884 0,0.32387 -3.37507,11.01137 -7.50016,23.75 -4.12509,12.73864 -7.50009,23.72366 -7.5,24.41116 1.2e-4,0.91945 -2.73531,1.25 -10.34428,1.25 -5.68944,0 -15.13397,0.29305 -20.98784,0.65123 l -10.6434,0.65122 -1.64449,-3.90122 0,0 z"
       id="path3736"
       inkscape:connector-curvature="0" />
    <path
       style="fill:#cccccc;fill-opacity:1"
       d="m 363.99859,191.50937 c -3.07606,-0.38466 -3.35451,-0.82977 -7.87577,-12.58996 -5.72577,-14.89326 -10.76101,-26.91693 -16.95834,-40.49498 -2.58658,-5.66707 -4.42985,-10.57679 -4.09616,-10.91048 1.71706,-1.71706 123.37303,-2.86943 125.05473,-1.18457 0.63253,0.63374 -8.3495,29.31147 -16.154,51.57632 -3.62574,10.34357 -5.06671,13.29767 -6.70038,13.73634 -2.30681,0.61941 -68.21005,0.50008 -73.27008,-0.13267 z"
       id="path3738"
       inkscape:connector-curvature="0" />
    <text
       xml:space="preserve"
       style="font-style:normal;font-weight:normal;font-size:76.29418945px;line-height:125%;font-family:sans-serif;letter-spacing:0px;word-spacing:0px;fill:#000000;fill-opacity:1;stroke:none;stroke-width:1px;stroke-linecap:butt;stroke-linejoin:miter;stroke-opacity:1"
       x="341.44385"
       y="501.02292"
       id="text3386"
       sodipodi:linespacing="125%"
       transform="scale(0.84942579,1.1772659)"><tspan
         sodipodi:role="line"
         id="tspan3388"
         x="341.44385"
         y="501.02292">SPIRIT</tspan><tspan
         sodipodi:role="line"
         x="341.44385"
         y="596.39063"
         id="tspan3390" /></text>
  </g>
</svg>
