<?xml version="1.0" encoding="UTF-8" standalone="no"?>
<!-- Created with Inkscape (http://www.inkscape.org/) -->

<svg
   xmlns:dc="http://purl.org/dc/elements/1.1/"
   xmlns:cc="http://creativecommons.org/ns#"
   xmlns:rdf="http://www.w3.org/1999/02/22-rdf-syntax-ns#"
   xmlns:svg="http://www.w3.org/2000/svg"
   xmlns="http://www.w3.org/2000/svg"
   xmlns:xlink="http://www.w3.org/1999/xlink"
   xmlns:sodipodi="http://sodipodi.sourceforge.net/DTD/sodipodi-0.dtd"
   xmlns:inkscape="http://www.inkscape.org/namespaces/inkscape"
   width="744.09448819"
   height="1052.3622047"
   id="svg2"
   version="1.1"
   inkscape:version="0.48.4 r9939"
   sodipodi:docname="washbasin.svg">
  <defs
     id="defs4">
    <linearGradient
       inkscape:collect="always"
       id="linearGradient4381">
      <stop
         style="stop-color:#b3b3b3;stop-opacity:1;"
         offset="0"
         id="stop4383" />
      <stop
         style="stop-color:#b3b3b3;stop-opacity:0;"
         offset="1"
         id="stop4385" />
    </linearGradient>
    <linearGradient
       inkscape:collect="always"
       id="linearGradient4371">
      <stop
         style="stop-color:#b3b3b3;stop-opacity:1;"
         offset="0"
         id="stop4373" />
      <stop
         style="stop-color:#b3b3b3;stop-opacity:0;"
         offset="1"
         id="stop4375" />
    </linearGradient>
    <linearGradient
       inkscape:collect="always"
       id="linearGradient4363">
      <stop
         style="stop-color:#b3b3b3;stop-opacity:1;"
         offset="0"
         id="stop4365" />
      <stop
         style="stop-color:#b3b3b3;stop-opacity:0;"
         offset="1"
         id="stop4367" />
    </linearGradient>
    <linearGradient
       inkscape:collect="always"
       id="linearGradient4355">
      <stop
         style="stop-color:#b3b3b3;stop-opacity:1;"
         offset="0"
         id="stop4357" />
      <stop
         style="stop-color:#b3b3b3;stop-opacity:0;"
         offset="1"
         id="stop4359" />
    </linearGradient>
    <linearGradient
       inkscape:collect="always"
       id="linearGradient4341">
      <stop
         style="stop-color:#b3b3b3;stop-opacity:1;"
         offset="0"
         id="stop4343" />
      <stop
         style="stop-color:#b3b3b3;stop-opacity:0;"
         offset="1"
         id="stop4345" />
    </linearGradient>
    <linearGradient
       inkscape:collect="always"
       id="linearGradient4325">
      <stop
         style="stop-color:#b3b3b3;stop-opacity:1;"
         offset="0"
         id="stop4327" />
      <stop
         style="stop-color:#b3b3b3;stop-opacity:0;"
         offset="1"
         id="stop4329" />
    </linearGradient>
    <linearGradient
       inkscape:collect="always"
       id="linearGradient4317">
      <stop
         style="stop-color:#cccccc;stop-opacity:1;"
         offset="0"
         id="stop4319" />
      <stop
         style="stop-color:#cccccc;stop-opacity:0;"
         offset="1"
         id="stop4321" />
    </linearGradient>
    <linearGradient
       inkscape:collect="always"
       id="linearGradient4271">
      <stop
         style="stop-color:#b3b3b3;stop-opacity:1;"
         offset="0"
         id="stop4273" />
      <stop
         style="stop-color:#b3b3b3;stop-opacity:0;"
         offset="1"
         id="stop4275" />
    </linearGradient>
    <linearGradient
       inkscape:collect="always"
       xlink:href="#linearGradient4271"
       id="linearGradient4277"
       x1="585.71429"
       y1="422.36218"
       x2="582.14288"
       y2="261.64789"
       gradientUnits="userSpaceOnUse" />
    <linearGradient
       inkscape:collect="always"
       xlink:href="#linearGradient4271"
       id="linearGradient4288"
       gradientUnits="userSpaceOnUse"
       x1="585.71429"
       y1="422.36218"
       x2="582.14288"
       y2="261.64789" />
    <linearGradient
       inkscape:collect="always"
       xlink:href="#linearGradient4317"
       id="linearGradient4323"
       x1="247.85715"
       y1="553.79077"
       x2="392.85715"
       y2="302.36218"
       gradientUnits="userSpaceOnUse" />
    <linearGradient
       inkscape:collect="always"
       xlink:href="#linearGradient4325"
       id="linearGradient4331"
       x1="404.28571"
       y1="640.2193"
       x2="286.42856"
       y2="597.36218"
       gradientUnits="userSpaceOnUse" />
    <linearGradient
       inkscape:collect="always"
       xlink:href="#linearGradient4341"
       id="linearGradient4347"
       x1="208.5965"
       y1="476.57523"
       x2="228.79955"
       y2="476.57523"
       gradientUnits="userSpaceOnUse" />
    <linearGradient
       inkscape:collect="always"
       xlink:href="#linearGradient4355"
       id="linearGradient4361"
       x1="217.68787"
       y1="378.59042"
       x2="237.89093"
       y2="398.79349"
       gradientUnits="userSpaceOnUse" />
    <linearGradient
       inkscape:collect="always"
       xlink:href="#linearGradient4363"
       id="linearGradient4369"
       x1="250.01276"
       y1="372.02444"
       x2="276.7818"
       y2="397.78333"
       gradientUnits="userSpaceOnUse" />
    <linearGradient
       inkscape:collect="always"
       xlink:href="#linearGradient4371"
       id="linearGradient4377"
       x1="284.35794"
       y1="373.53967"
       x2="307.08636"
       y2="391.72241"
       gradientUnits="userSpaceOnUse" />
    <linearGradient
       inkscape:collect="always"
       xlink:href="#linearGradient4381"
       id="linearGradient4387"
       x1="333.85541"
       y1="397.27826"
       x2="308.09653"
       y2="421.01685"
       gradientUnits="userSpaceOnUse" />
  </defs>
  <sodipodi:namedview
     id="base"
     pagecolor="#ffffff"
     bordercolor="#666666"
     borderopacity="1.0"
     inkscape:pageopacity="0.0"
     inkscape:pageshadow="2"
     inkscape:zoom="1.979899"
     inkscape:cx="323.06881"
     inkscape:cy="622.07837"
     inkscape:document-units="px"
     inkscape:current-layer="layer1"
     showgrid="false"
     inkscape:window-width="1366"
     inkscape:window-height="716"
     inkscape:window-x="0"
     inkscape:window-y="0"
     inkscape:window-maximized="1"
     showguides="true"
     inkscape:guide-bbox="true" />
  <metadata
     id="metadata7">
    <rdf:RDF>
      <cc:Work
         rdf:about="">
        <dc:format>image/svg+xml</dc:format>
        <dc:type
           rdf:resource="http://purl.org/dc/dcmitype/StillImage" />
      </cc:Work>
    </rdf:RDF>
  </metadata>
  <g
     inkscape:label="Layer 1"
     inkscape:groupmode="layer"
     id="layer1">
    <rect
       style="fill:#ffffff;stroke:#000000;stroke-width:1;stroke-linejoin:miter;stroke-miterlimit:4;stroke-opacity:1;stroke-dasharray:none"
       id="rect3024"
       width="20"
       height="244.28572"
       x="198.57143"
       y="399.50504" />
    <rect
       style="fill:#ffffff;stroke:#000000;stroke-width:0.99954176;stroke-linejoin:miter;stroke-miterlimit:4;stroke-opacity:1;stroke-dasharray:none"
       id="rect2985"
       width="225.71474"
       height="216.94345"
       x="387.37076"
       y="302.53296" />
    <path
       style="fill:#ffffff;stroke:#000000;stroke-width:1;stroke-linejoin:miter;stroke-miterlimit:4;stroke-opacity:1"
       d="m 350.214,645.2193 263.21429,-343.92857 0,216.07142 -263.21429,345 z"
       id="rect3016"
       inkscape:connector-curvature="0"
       sodipodi:nodetypes="ccccc" />
    <path
       style="fill:#ffffff;stroke:#000000;stroke-width:1;stroke-linejoin:miter;stroke-miterlimit:4;stroke-opacity:1"
       d="m 124.28572,642.6903 262.85715,-341.42857 0,215.71428 -263.11713,345.47217 z"
       id="rect3019"
       inkscape:connector-curvature="0"
       sodipodi:nodetypes="ccccc" />
    <rect
       style="fill:#ffffff;stroke:#000000;stroke-width:1;stroke-linejoin:miter;stroke-miterlimit:4;stroke-opacity:1;stroke-dasharray:none"
       id="rect2985-0"
       width="225.71428"
       height="217.14285"
       x="124.28572"
       y="645.2193" />
    <path
       sodipodi:type="arc"
       style="fill:#ffffff;stroke:#000000;stroke-width:1;stroke-linejoin:miter;stroke-miterlimit:4;stroke-opacity:1;stroke-dasharray:none"
       id="path3022"
       sodipodi:cx="386.42856"
       sodipodi:cy="555.93359"
       sodipodi:rx="9.2857141"
       sodipodi:ry="23.571428"
       d="m 395.71427,555.93359 a 9.2857141,23.571428 0 1 1 -18.57143,0 9.2857141,23.571428 0 1 1 18.57143,0 z"
       transform="matrix(0.84379666,0.53666303,-0.53666303,0.84379666,358.71044,-120.54323)" />
    <path
       sodipodi:type="arc"
       style="fill:#ffffff;stroke:#000000;stroke-width:1;stroke-linejoin:miter;stroke-miterlimit:4;stroke-opacity:1;stroke-dasharray:none"
       id="path3026"
       sodipodi:cx="233.92857"
       sodipodi:cy="398.43362"
       sodipodi:rx="13.214286"
       sodipodi:ry="16.785715"
       d="M 220.7148,398.28539 A 13.214286,16.785715 0 0 1 234.0063,381.6482"
       transform="matrix(1.7448484,0,0,0.99062534,-166.58466,4.6062265)"
       sodipodi:start="3.150424"
       sodipodi:end="4.7182707"
       sodipodi:open="true" />
    <path
       sodipodi:type="arc"
       style="fill:#ffffff;stroke:#000000;stroke-width:1;stroke-linejoin:miter;stroke-miterlimit:4;stroke-opacity:1;stroke-dasharray:none"
       id="path3030"
       sodipodi:cx="224.50641"
       sodipodi:cy="394.62662"
       sodipodi:rx="30.557114"
       sodipodi:ry="26.390236"
       d="m 193.95049,394.39356 a 30.557114,26.390236 0 0 1 30.73565,-26.15672"
       sodipodi:start="3.150424"
       sodipodi:end="4.7182707"
       sodipodi:open="true"
       transform="matrix(1.3827393,0,0,1.333877,-69.502916,-126.66436)" />
    <rect
       style="fill:#ffffff;stroke:#000000;stroke-width:1;stroke-linejoin:miter;stroke-miterlimit:4;stroke-opacity:1;stroke-dasharray:none"
       id="rect3032"
       width="31.31473"
       height="34.345188"
       x="240.66884"
       y="358.38739" />
    <rect
       style="fill:#ffffff;stroke:#000000;stroke-width:1;stroke-linejoin:miter;stroke-miterlimit:4;stroke-opacity:1;stroke-dasharray:none"
       id="rect3034"
       width="33.840111"
       height="18.940361"
       x="271.936"
       y="364.50082" />
    <path
       style="fill:none;stroke:#000000;stroke-width:1px;stroke-linecap:butt;stroke-linejoin:miter;stroke-opacity:1"
       d="m 305.71429,383.39032 c 10.8883,-0.9773 21.23763,-1.62639 20,27.14286"
       id="path3058"
       inkscape:connector-curvature="0"
       sodipodi:nodetypes="cc" />
    <path
       style="fill:none;stroke:#000000;stroke-width:1;stroke-linecap:butt;stroke-linejoin:miter;stroke-miterlimit:4;stroke-opacity:1;stroke-dasharray:none"
       d="m 306.33855,364.84569 c 19.39675,-1.62508 37.83338,-2.7044 35.62862,45.13349"
       id="path3058-9"
       inkscape:connector-curvature="0"
       sodipodi:nodetypes="cc" />
    <path
       sodipodi:type="arc"
       style="fill:#ffffff;stroke:#000000;stroke-width:2.3601079;stroke-linejoin:miter;stroke-miterlimit:4;stroke-opacity:1;stroke-dasharray:none"
       id="path3846"
       sodipodi:cx="190.89285"
       sodipodi:cy="353.61218"
       sodipodi:rx="23.035715"
       sodipodi:ry="5.1785712"
       d="m 213.50534,352.62406 a 23.035715,5.1785712 0 1 1 -45.59209,0.62688"
       transform="matrix(0.35168063,0,0,0.4838632,266.72369,239.13029)"
       sodipodi:start="6.0911991"
       sodipodi:end="9.4945911"
       sodipodi:open="true" />
    <rect
       style="fill:#ffffff;stroke:#000000;stroke-width:1;stroke-linejoin:miter;stroke-miterlimit:4;stroke-opacity:1;stroke-dasharray:none"
       id="rect3848"
       width="38.57143"
       height="42.857143"
       x="237.85713"
       y="314.50504"
       ry="11.428572" />
    <rect
       style="fill:#ffffff;stroke:#000000;stroke-width:1;stroke-linejoin:miter;stroke-miterlimit:4;stroke-opacity:1;stroke-dasharray:none"
       id="rect3852"
       width="4.2857141"
       height="29.285715"
       x="246.42857"
       y="321.64789"
       ry="2.1428571" />
    <rect
       style="fill:#ffffff;stroke:#000000;stroke-width:1;stroke-linejoin:miter;stroke-miterlimit:4;stroke-opacity:1;stroke-dasharray:none"
       id="rect3852-3"
       width="4.2857141"
       height="29.285715"
       x="262.85715"
       y="322.00504"
       ry="2.1428571" />
    <path
       style="fill:url(#linearGradient4331);stroke:#000000;stroke-width:2.02030515999999993;stroke-linejoin:miter;stroke-miterlimit:4;stroke-opacity:1;stroke-dasharray:none;fill-opacity:1"
       d="m 352.18299,751.30833 0.0295,-105.89766 129.77507,-169.52144 129.77506,-169.52144 0.52332,104.48676 0.52332,104.48675 -129.64857,170.09056 C 411.854,778.98164 353.20644,855.9012 352.8328,856.3642 c -0.37364,0.46297 -0.66606,-46.81217 -0.64981,-105.05587 l 0,0 z"
       id="path3143"
       inkscape:connector-curvature="0" />
    <path
       style="fill:#b3b3b3;stroke:#000000;stroke-width:2.02030516;stroke-linejoin:miter;stroke-miterlimit:4;stroke-opacity:1;stroke-dasharray:none"
       d="m 125.87928,753.49699 0,-107.07617 111.11678,0 111.11678,0 0,107.07617 0,107.07617 -111.11678,0 -111.11678,0 0,-107.07617 z"
       id="path3145"
       inkscape:connector-curvature="0" />
    <path
       sodipodi:nodetypes="scccccsss"
       style="fill:url(#linearGradient4347);stroke:#000000;stroke-width:2.02030515999999993;stroke-linejoin:miter;stroke-miterlimit:4;stroke-opacity:1;stroke-dasharray:none;fill-opacity:1"
       d="m 199.36788,471.05834 -0.75762,-70.60967 10.35407,0 8.08122,-0.25254 1.01015,60.57097 0,59.30827 -6.67294,9.3821 c -3.36322,4.72867 -10.95584,12.77116 -11.86929,13.82677 -0.91345,1.05561 0.26213,-34.22615 -0.14559,-72.2259 z"
       id="path3147"
       inkscape:connector-curvature="0" />
    <path
       sodipodi:nodetypes="scscsssss"
       style="fill:url(#linearGradient4361);stroke:#000000;stroke-width:2.02030515999999993;stroke-linejoin:miter;stroke-miterlimit:4;stroke-opacity:1;stroke-dasharray:none;fill-opacity:1"
       d="m 199.87296,397.57043 c -4.15866,-11.04368 22.33852,-31.49848 22.79873,-28.73722 0,0 5.50388,-2.40622 9.77868,-2.56516 l 6.566,-0.24412 0,7.86846 c 0,5.75939 -0.83919,7.86846 -3.13079,7.86846 -5.74603,0 -16.13044,5.93548 -17.10906,11.20844 -1.10783,5.96916 -3.05582,5.7016 -10.01473,4.954 -4.44658,-0.4777 -8.47781,0.73866 -8.88883,-0.35286 z"
       id="path3149"
       inkscape:connector-curvature="0" />
    <path
       sodipodi:nodetypes="ccccccccc"
       style="fill:url(#linearGradient4369);stroke:#000000;stroke-width:2.02030515999999993;stroke-linejoin:miter;stroke-miterlimit:4;stroke-opacity:1;stroke-dasharray:none;fill-opacity:1"
       d="m 241.54175,375.69994 0,-16.16244 15.65736,0 14.14214,0 0,16.16244 0,16.16244 -14.14214,0 -15.65736,-0.25254 z"
       id="path3151"
       inkscape:connector-curvature="0" />
    <path
       style="fill:url(#linearGradient4377);stroke:#000000;stroke-width:2.02030515999999993;stroke-linejoin:miter;stroke-miterlimit:4;stroke-opacity:1;stroke-dasharray:none;fill-opacity:1"
       d="m 273.36155,373.67963 0,-8.08122 15.15229,0 15.15229,0 0,8.08122 0,8.08122 -15.15229,0 -15.15229,0 0,-8.08122 z"
       id="path3153"
       inkscape:connector-curvature="0" />
    <path
       sodipodi:nodetypes="csssccc"
       style="fill:url(#linearGradient4387);stroke:#000000;stroke-width:2.02030515999999993;stroke-linejoin:miter;stroke-miterlimit:4;stroke-opacity:1;stroke-dasharray:none;fill-opacity:1"
       d="m 332.2116,413.10995 c -5.07634,3.25636 -7.34847,-3.78419 -6.2181,-12.09284 0.64208,-4.71953 -2.70302,-11.94707 -3.33476,-13.59336 -0.63174,-1.64629 2.37134,-5.51479 5.67413,-8.83475 l 5.30752,-6.85165 4.83712,8.10358 c 10.16987,42.14793 -4.8055,33.77388 -6.26591,33.26902 z"
       id="path3155"
       inkscape:connector-curvature="0" />
    <path
       sodipodi:nodetypes="ssssccs"
       style="fill:#b3b3b3;stroke:#000000;stroke-width:2.02030516;stroke-linejoin:miter;stroke-miterlimit:4;stroke-opacity:1;stroke-dasharray:none"
       d="m 313.26258,382.33411 c -6.06437,0.55407 -8.0203,3.00435 -8.08122,-9.04121 -0.053,-10.47686 0.72869,-8.8948 9.50138,-7.69449 3.80139,0.52012 10.02609,-0.96764 12.51966,0.7805 l 5.79618,4.06349 c -0.68736,6.28755 -9.45543,18.3442 -12.90472,13.03605 -0.7015,-0.16649 -3.75353,-1.42554 -6.83128,-1.14434 z"
       id="path3157"
       inkscape:connector-curvature="0" />
    <path
       style="fill:#b3b3b3;stroke:#000000;stroke-width:2.02030516;stroke-linejoin:miter;stroke-miterlimit:4;stroke-opacity:1;stroke-dasharray:none"
       d="m 275.98727,335.29384 c 0,-6.11143 0.37874,-8.61155 0.84164,-5.55584 0.4629,3.05571 0.4629,8.05596 0,11.11167 -0.4629,3.05572 -0.84164,0.55559 -0.84164,-5.55583 z"
       id="path3159"
       inkscape:connector-curvature="0" />
    <path
       sodipodi:nodetypes="ssssssccssssss"
       style="fill:#cccccc;stroke:#000000;stroke-width:2.02030516;stroke-linejoin:miter;stroke-miterlimit:4;stroke-opacity:1;stroke-dasharray:none"
       d="m 241.3498,353.06496 c -3.7235,-2.54917 -4.1742,-28.45352 0.28162,-34.55758 3.81041,-5.21991 27.2604,-5.1331 31.38791,-0.43975 5.38591,6.12427 5.48692,33.82449 -2.68024,37.41963 -3.98056,1.75222 -19.68379,3.94842 -28.98929,-2.4223 z m 26.96099,-15.89151 c 0,-12.6378 -0.54807,-15.06181 -3.53553,-15.63714 -3.08624,-2.75362 -2.51099,28.94473 -2.14658,30.63549 5.08444,1.65237 5.68211,-1.20234 5.68211,-14.99835 z m -16.16244,-0.86946 c 0,-11.80975 -0.5715,-14.19686 -3.53554,-14.76768 -3.11829,-0.60053 -3.53553,1.14225 -3.53553,14.76768 0,13.62543 0.41724,15.36821 3.53553,14.76768 2.96404,-0.57082 3.53554,-2.95794 3.53554,-14.76768 z"
       id="path3161"
       inkscape:connector-curvature="0" />
    <path
       sodipodi:nodetypes="csccssscccccccscc"
       style="fill:url(#linearGradient4323);stroke:#000000;stroke-width:2.02030515999999993;stroke-linejoin:miter;stroke-miterlimit:4;stroke-opacity:1;stroke-dasharray:none;fill-opacity:1"
       d="m 128.2901,640.66044 c 1.45197,-2.05705 45.36232,-59.25732 97.57856,-127.11173 58.58617,-76.13206 94.89488,-125.42088 95.93355,-124.04423 9.91402,8.6406 -2.91272,20.45485 6.91225,23.70005 2.6649,0.66885 6.9833,0.91346 9.59645,0.54357 4.55302,-0.64447 4.73622,-1.31787 4.39248,-16.14713 -0.21534,-9.2903 -1.59695,-17.86914 -3.4571,-21.46629 l -3.09842,-5.99168 24.67031,-31.9122 24.6703,-31.9122 0.52322,104.33421 0.52324,104.33421 -49.01056,64.5938 -49.01054,64.59378 -81.43184,0.11294 c -78.8661,0.1095 -81.34866,-0.004 -78.7919,-3.62712 z"
       id="path3163"
       inkscape:connector-curvature="0" />
    <path
       sodipodi:nodetypes="ccsssccccc"
       style="fill:url(#linearGradient4288);fill-opacity:1;stroke:#000000;stroke-width:2.02030516;stroke-linejoin:miter;stroke-miterlimit:4;stroke-opacity:1;stroke-dasharray:none"
       d="m 388.51894,411.05528 0,-106.06602 113.55054,-0.71429 c 64.45812,-0.40547 108.98869,-2.10633 108.5914,-1.02617 -0.37039,1.00704 -40.87006,52.3063 -84.76119,109.63328 l -79.80205,104.23087 -28.78935,0.004 -28.78935,0.004 0,-106.06601 z"
       id="path3165"
       inkscape:connector-curvature="0" />
    <path
       style="fill:#cccccc;stroke:#000000;stroke-width:2.02030516;stroke-linejoin:miter;stroke-miterlimit:4;stroke-opacity:1;stroke-dasharray:none"
       d="m 294.97944,641.59014 c 0.88859,-1.54571 21.61664,-29.22951 46.06233,-61.51956 l 44.44671,-58.70918 28.8531,-0.0997 28.85309,-0.0998 -14.45645,18.68783 c -7.95104,10.2783 -29.11717,37.97109 -47.03584,61.53954 l -32.57939,42.85173 -27.87958,0.0798 c -23.25426,0.0665 -27.61155,-0.3865 -26.26397,-2.73062 z m 91.46351,-69.17362 c 7.31648,-6.15642 16.21813,-22.56937 16.21813,-29.90317 0,-13.13846 -15.7485,-8.45888 -25.07167,7.44992 -12.76083,21.77471 -7.17513,35.94048 8.85354,22.45325 z"
       id="path3167"
       inkscape:connector-curvature="0" />
    <path
       style="fill:#cccccc;stroke:#000000;stroke-width:2.02030516;stroke-linejoin:miter;stroke-miterlimit:4;stroke-opacity:1;stroke-dasharray:none"
       d="m 373.38105,571.69282 c -1.9343,-3.12975 6.59658,-20.54714 13.61739,-27.80248 7.63888,-7.89406 11.62203,-8.39113 11.62203,-1.45034 0,15.12177 -19.79415,38.06345 -25.23942,29.25282 z"
       id="path3169"
       inkscape:connector-curvature="0" />
  </g>
</svg>
