<?xml version="1.0" encoding="UTF-8" standalone="no"?>
<!-- Created with Inkscape (http://www.inkscape.org/) -->

<svg
   xmlns:dc="http://purl.org/dc/elements/1.1/"
   xmlns:cc="http://creativecommons.org/ns#"
   xmlns:rdf="http://www.w3.org/1999/02/22-rdf-syntax-ns#"
   xmlns:svg="http://www.w3.org/2000/svg"
   xmlns="http://www.w3.org/2000/svg"
   xmlns:sodipodi="http://sodipodi.sourceforge.net/DTD/sodipodi-0.dtd"
   xmlns:inkscape="http://www.inkscape.org/namespaces/inkscape"
   width="744.09448819"
   height="1052.3622047"
   id="svg3269"
   version="1.1"
   inkscape:version="0.48.4 r9939"
   sodipodi:docname="water.svg">
  <defs
     id="defs3271" />
  <sodipodi:namedview
     id="base"
     pagecolor="#ffffff"
     bordercolor="#666666"
     borderopacity="1.0"
     inkscape:pageopacity="0.0"
     inkscape:pageshadow="2"
     inkscape:zoom="0.7"
     inkscape:cx="487.54334"
     inkscape:cy="498.57143"
     inkscape:document-units="px"
     inkscape:current-layer="layer1"
     showgrid="false"
     inkscape:window-width="1366"
     inkscape:window-height="716"
     inkscape:window-x="0"
     inkscape:window-y="0"
     inkscape:window-maximized="1" />
  <metadata
     id="metadata3274">
    <rdf:RDF>
      <cc:Work
         rdf:about="">
        <dc:format>image/svg+xml</dc:format>
        <dc:type
           rdf:resource="http://purl.org/dc/dcmitype/StillImage" />
        <dc:title></dc:title>
      </cc:Work>
    </rdf:RDF>
  </metadata>
  <g
     inkscape:label="Layer 1"
     inkscape:groupmode="layer"
     id="layer1">
    <g
       id="g4248">
      <path
         inkscape:connector-curvature="0"
         id="path3277"
         d="m 460,303.79076 c -82.49075,44.17823 -57.42678,128.37619 -20,28.57143"
         style="fill:none;stroke:#00d5fb;stroke-width:1px;stroke-linecap:butt;stroke-linejoin:miter;stroke-opacity:1" />
      <path
         sodipodi:nodetypes="cc"
         inkscape:connector-curvature="0"
         id="path3279"
         d="M 365.71429,372.36219 C 264.54902,420.24517 320.67325,500.54763 334.28572,391.6479"
         style="fill:#00d5fb;stroke:#00d5fb;stroke-width:1px;stroke-linecap:butt;stroke-linejoin:miter;stroke-opacity:1;fill-opacity:1" />
      <path
         sodipodi:nodetypes="cssc"
         inkscape:connector-curvature="0"
         id="path3312"
         d="m 328.57143,452.36218 c -6.40101,17.50771 -29.48145,76.68785 -5.71428,88.57143 9.81088,4.90544 23.46169,-47.14911 34.28571,-20 17.42078,43.69531 0.49304,78.50404 83.57143,26.42858"
         style="fill:none;stroke:#00d5fb;stroke-width:1px;stroke-linecap:butt;stroke-linejoin:miter;stroke-opacity:1" />
      <path
         inkscape:connector-curvature="0"
         id="path3281"
         d="M 480,369.50504 C 493.44414,458.89862 286.15971,586.02431 371.42857,466.6479"
         style="fill:none;stroke:#00d5fb;stroke-width:1px;stroke-linecap:butt;stroke-linejoin:miter;stroke-opacity:1" />
      <path
         sodipodi:nodetypes="csssc"
         inkscape:connector-curvature="0"
         id="path3283"
         d="m 485.71429,478.07647 c -19.94778,-21.37977 -75.91365,194.90032 -140,162.85715 -17.8966,-8.9483 16.25346,-75.88939 5,-87.14286 -9.53872,-9.53872 -94.98222,65.66093 -70.71429,-7.14286 8.10277,-24.30829 40.29104,-66.16415 46.42857,-90.71428"
         style="fill:none;stroke:#00d5fb;stroke-width:1px;stroke-linecap:butt;stroke-linejoin:miter;stroke-opacity:1" />
      <path
         sodipodi:nodetypes="cc"
         inkscape:connector-curvature="0"
         id="path3285"
         d="m 220,566.6479 c -50.97017,97.32567 1e-5,193.91909 1e-5,0"
         style="fill:#00d5fb;stroke:#00d5fb;stroke-width:1px;stroke-linecap:butt;stroke-linejoin:miter;stroke-opacity:1;fill-opacity:1" />
      <path
         inkscape:connector-curvature="0"
         id="path3287"
         d="M 457.14286,612.36219 C 387.91267,715.91075 287.29355,786.46707 408.57143,640.93362"
         style="fill:none;stroke:#00d5fb;stroke-width:1px;stroke-linecap:butt;stroke-linejoin:miter;stroke-opacity:1" />
      <path
         inkscape:connector-curvature="0"
         id="path3289"
         d="M 285.71429,743.79076 C 147.44394,882.80592 251.42857,871.10142 251.42857,792.36219"
         style="fill:none;stroke:#00d5fb;stroke-width:1px;stroke-linecap:butt;stroke-linejoin:miter;stroke-opacity:1" />
      <path
         sodipodi:nodetypes="cc"
         inkscape:connector-curvature="0"
         id="path3291"
         d="m 570,279.50505 c -24.99629,-16.05807 -37.09421,45.51305 1.42857,-0.71429"
         style="fill:#00d5fb;stroke:#00d5fb;stroke-width:1px;stroke-linecap:butt;stroke-linejoin:miter;stroke-opacity:1;fill-opacity:1" />
      <path
         inkscape:connector-curvature="0"
         id="path3293"
         d="m 451.42857,720.93362 c -60.75843,69.10289 -40.98572,-57.38003 0,0 z"
         style="fill:#00d5fb;stroke:#00d5fb;stroke-width:1px;stroke-linecap:butt;stroke-linejoin:miter;stroke-opacity:1;fill-opacity:1" />
      <path
         inkscape:connector-curvature="0"
         id="path3295"
         d="m 328.57143,766.6479 c -23.66643,63.46067 58.19105,-7.27388 0,0 z"
         style="fill:#00d5fb;stroke:#00d5fb;stroke-width:1px;stroke-linecap:butt;stroke-linejoin:miter;stroke-opacity:1;fill-opacity:1" />
      <path
         inkscape:connector-curvature="0"
         id="path3297"
         d="m 300,626.6479 c -58.59735,50.51746 53.1481,44.29008 0,0 z"
         style="fill:#00d5fb;stroke:#00d5fb;stroke-width:1px;stroke-linecap:butt;stroke-linejoin:miter;stroke-opacity:1;fill-opacity:1" />
      <path
         inkscape:connector-curvature="0"
         id="path3314"
         d="m 422.85715,509.50504 c -46.19268,65.86755 4.97066,-6.04699 45.71428,-40"
         style="fill:none;stroke:#00d5fb;stroke-width:1px;stroke-linecap:butt;stroke-linejoin:miter;stroke-opacity:1" />
      <path
         inkscape:connector-curvature="0"
         id="path3316"
         d="m 437.14286,406.64789 c -59.20379,-14.01963 -36.9293,73.85861 0,0 z"
         style="fill:#00d5fb;stroke:#00d5fb;stroke-width:1px;stroke-linecap:butt;stroke-linejoin:miter;stroke-opacity:1;fill-opacity:1" />
      <path
         inkscape:connector-curvature="0"
         id="path3318"
         d="m 548.57143,360.93361 c 8.75769,88.62572 -102.22973,157.53282 -25.71428,65.71428"
         style="fill:none;stroke:#00d5fb;stroke-width:1px;stroke-linecap:butt;stroke-linejoin:miter;stroke-opacity:1" />
      <path
         inkscape:connector-curvature="0"
         id="path3320"
         d="m 508.57143,289.50504 c -34.95445,10.06948 -16.21845,64.87379 0,0 z"
         style="fill:#00d5fb;stroke:#00d5fb;stroke-width:1px;stroke-linecap:butt;stroke-linejoin:miter;stroke-opacity:1;fill-opacity:1" />
      <path
         inkscape:connector-curvature="0"
         id="path3322"
         d="m 542.85715,506.64789 c -35.32695,92.40691 -34.4201,14.4201 -8.57143,-11.42857"
         style="fill:none;stroke:#00d5fb;stroke-width:1px;stroke-linecap:butt;stroke-linejoin:miter;stroke-opacity:1" />
      <path
         inkscape:connector-curvature="0"
         id="path3324"
         d="m 228.57143,558.07647 c -12.8026,33.13743 -0.79305,74.91581 -5.71428,114.28571"
         style="fill:none;stroke:#00d5fb;stroke-width:1px;stroke-linecap:butt;stroke-linejoin:miter;stroke-opacity:1" />
      <path
         inkscape:connector-curvature="0"
         id="path3326"
         d="m 191.42857,649.50504 c -31.39679,31.21911 -25.85703,94.8567 2.85715,-20"
         style="fill:#00d5fb;stroke:#00d5fb;stroke-width:1px;stroke-linecap:butt;stroke-linejoin:miter;stroke-opacity:1;fill-opacity:1" />
      <path
         inkscape:connector-curvature="0"
         id="path3328"
         d="m 180,763.79075 c -44.03201,20.78728 0,90.59609 0,0 z"
         style="fill:#00d5fb;stroke:#00d5fb;stroke-width:1px;stroke-linecap:butt;stroke-linejoin:miter;stroke-opacity:1;fill-opacity:1" />
      <path
         inkscape:connector-curvature="0"
         id="path4227"
         d="m 352.14286,642.24098 c -5.54547,-1.52157 -7.41483,-2.78133 -9.10715,-6.13729 -3.04765,-6.04369 -2.13781,-14.26319 4.70744,-42.52722 5.62403,-23.2216 6.03556,-25.55204 5.72398,-32.41332 -0.55603,-12.24408 -4.92569,-11.98292 -31.03131,1.85469 -20.65932,10.95073 -30.03835,14.64844 -37.01781,14.59437 -8.87435,-0.0687 -10.99876,-7.78633 -6.56539,-23.85084 3.42025,-12.39343 6.26088,-18.15844 24.02397,-48.75633 6.1578,-10.60714 12.09949,-20.97483 13.20375,-23.03929 2.2499,-4.20632 3.0708,-4.45298 1.77744,-0.53408 -2.06143,6.2462 -5.06074,20.6521 -5.84703,28.08364 -1.61104,15.22681 1.45077,26.24581 8.61962,31.02074 2.60636,1.736 5.32502,1.56063 7.77584,-0.5016 1.14799,-0.96597 4.78668,-5.86348 8.08597,-10.88337 6.64168,-10.10531 11.09653,-15.21747 13.26087,-15.21747 4.1962,0 7.72442,8.0507 13.91686,31.75556 4.86654,18.62924 7.50223,24.13424 12.86491,26.87008 3.23846,1.65213 10.59566,1.83627 15.98817,0.40015 8.27024,-2.20251 24.72769,-10.20992 38.7548,-18.85624 2.8635,-1.76506 5.39122,-3.02434 5.61717,-2.7984 0.49133,0.49132 -9.6251,20.04888 -17.29083,33.42747 -25.27053,44.1033 -47.44004,63.00215 -67.46127,57.50875 z"
         style="fill:#00d5fb;fill-opacity:1;stroke:#00d5fb;stroke-width:0.71428573;stroke-linejoin:miter;stroke-miterlimit:4;stroke-opacity:1;stroke-dasharray:none" />
    </g>
  </g>
</svg>
